<svg width="31" height="31" viewBox="0 0 31 31" fill="none" xmlns="http://www.w3.org/2000/svg">
<g clip-path="url(#clip0_16_182)">
<path d="M3.875 9.04175H7.75" stroke="white" stroke-width="2.75" stroke-linecap="round" stroke-linejoin="round"/>
<path d="M3.875 14.2083H6.45833" stroke="white" stroke-width="2.75" stroke-linecap="round" stroke-linejoin="round"/>
<path d="M11.6508 11.368L10.8758 19.118C10.8399 19.4772 10.8797 19.8398 10.9925 20.1827C11.1053 20.5255 11.2887 20.8409 11.5309 21.1085C11.7731 21.3761 12.0686 21.59 12.3985 21.7364C12.7284 21.8828 13.0853 21.9584 13.4462 21.9584H23.7537C24.3944 21.9584 25.0121 21.7203 25.4871 21.2905C25.9621 20.8606 26.2604 20.2696 26.3242 19.6321L27.0992 11.8821C27.1351 11.523 27.0953 11.1603 26.9825 10.8175C26.8697 10.4747 26.6863 10.1593 26.4441 9.89168C26.2019 9.62408 25.9064 9.41018 25.5765 9.26379C25.2466 9.1174 24.8897 9.04176 24.5287 9.04175H14.2212C13.5806 9.04177 12.9629 9.27983 12.4879 9.7097C12.0129 10.1396 11.7146 10.7306 11.6508 11.368Z" stroke="white" stroke-width="2.75" stroke-linecap="round" stroke-linejoin="round"/>
<path d="M12.6583 9.6875L16.5101 13.9242C16.8524 14.3007 17.2655 14.6062 17.7258 14.8231C18.1862 15.0401 18.6848 15.1642 19.1931 15.1884C19.7014 15.2126 20.2095 15.1365 20.6884 14.9644C21.1673 14.7922 21.6076 14.5274 21.9842 14.1851L26.2208 10.3333" stroke="white" stroke-width="2.75" stroke-linecap="round" stroke-linejoin="round"/>
</g>
<defs>
<clipPath id="clip0_16_182">
<rect width="31" height="31" fill="white"/>
</clipPath>
</defs>
</svg>
