<svg width="200" height="59" viewBox="0 0 200 59" fill="none" xmlns="http://www.w3.org/2000/svg">
<g clip-path="url(#clip0_55_664)">
<path d="M47.2623 16.9207V3.93147C47.2623 3.2623 47.6452 2.90381 48.3155 2.90381H49.0934C49.6559 2.90381 50.0389 3.095 50.362 3.54909L56.4179 11.8541V3.93147C56.4179 3.2623 56.8009 2.90381 57.4711 2.90381H58.8115C59.4818 2.90381 59.8408 3.27425 59.8408 3.93147V16.9326C59.8408 17.6018 59.4698 17.9603 58.8115 17.9603H58.0336C57.495 17.9603 57.0881 17.7691 56.7889 17.315L50.6852 8.92641V16.9326C50.6852 17.6018 50.3142 17.9603 49.6559 17.9603H48.3155C47.6452 17.9603 47.2623 17.5899 47.2623 16.9326V16.9207Z" fill="white"/>
<path d="M63.2158 16.9207V3.93147C63.2158 3.2623 63.5988 2.90381 64.269 2.90381H65.6095C66.2797 2.90381 66.6387 3.27425 66.6387 3.93147V16.9326C66.6387 17.6018 66.2677 17.9603 65.6095 17.9603H64.269C63.5988 17.9603 63.2158 17.5899 63.2158 16.9326V16.9207Z" fill="white"/>
<path d="M69.164 14.949C68.8887 14.3037 69.2238 13.8496 69.894 13.6823L70.8156 13.4672C71.414 13.3119 71.7371 13.5748 72.0842 14.1364C72.5749 14.937 73.5324 15.4748 74.801 15.4748C76.2611 15.4748 77.2305 14.8295 77.2305 13.8377C77.2305 13.0848 76.6441 12.4874 75.5071 12.093L73.5443 11.388C71.7611 10.8025 69.5589 9.47607 69.535 7.14589C69.535 4.39749 71.9286 2.66479 74.8848 2.66479C77.2305 2.66479 78.8941 3.69246 79.7079 5.4132C80.0311 6.03458 79.7319 6.53646 79.0856 6.72766L78.2239 6.96665C77.6255 7.13394 77.2544 6.9069 76.8834 6.38112C76.5005 5.73584 75.8302 5.3893 74.9207 5.3893C73.8435 5.3893 72.922 5.92704 72.922 6.91885C72.922 7.45658 73.1613 8.04211 74.4898 8.53205L76.4526 9.23707C79.4087 10.2289 80.4978 11.7704 80.5457 13.6704C80.5457 16.6219 78.0204 18.1873 74.8129 18.1873C71.9885 18.1873 69.9419 16.9446 69.14 14.937L69.164 14.949Z" fill="white"/>
<path d="M81.4673 16.7773L86.5059 3.71638C86.6974 3.17865 87.1043 2.90381 87.7147 2.90381H89.2466C89.845 2.90381 90.2399 3.17865 90.4554 3.71638L95.5658 16.7773C95.8291 17.4823 95.5179 17.9603 94.7519 17.9603H93.3517C92.7652 17.9603 92.3583 17.6974 92.1429 17.1477L91.3889 15.1641H85.5724L84.8423 17.1238C84.6269 17.6855 84.2439 17.9603 83.6575 17.9603H82.305C81.5271 17.9603 81.2279 17.4823 81.4912 16.7773H81.4673ZM90.6947 12.4754L88.4926 6.40504L86.2306 12.4754H90.6947Z" fill="white"/>
<path d="M111.531 10.444C111.531 6.18991 114.93 2.65283 119.658 2.65283C121.453 2.65283 122.913 3.03522 124.23 3.81194C124.816 4.18238 124.876 4.72011 124.493 5.25784L123.954 5.95092C123.571 6.48865 123.116 6.53645 122.506 6.24966C121.369 5.66413 120.519 5.62828 119.658 5.62828C116.965 5.62828 114.966 7.75531 114.966 10.432C114.966 13.1087 116.714 15.2238 119.813 15.2238C120.699 15.2238 121.668 15.0326 122.446 14.6263V12.3081H119.837C119.167 12.3081 118.784 11.9377 118.784 11.2804V10.8025C118.784 10.1333 119.167 9.77479 119.837 9.77479H124.601C125.271 9.77479 125.654 10.1452 125.654 10.8025V15.1521C125.654 15.6898 125.486 16.0961 124.984 16.4666C123.368 17.6735 121.537 18.2112 119.741 18.2112C114.87 18.2112 111.531 14.6861 111.531 10.4679V10.444Z" fill="white"/>
<path d="M103.213 12.583H101.215V16.9326C101.215 17.6018 100.844 17.9603 100.185 17.9603H98.845C98.1748 17.9603 97.7918 17.5899 97.7918 16.9326V3.93147C97.7918 3.2623 98.1748 2.90381 98.845 2.90381H104.638C107.845 2.90381 109.64 5.18618 109.64 7.92264C109.64 10.1333 108.408 11.878 106.301 12.4157C106.469 13.9452 107.33 15.4748 108.587 15.4748C109.042 15.4748 109.293 15.427 109.58 15.3075C110.203 15.0924 110.466 15.2238 110.741 15.7974L110.933 16.2276C111.208 16.8131 111.148 17.3031 110.61 17.6018C109.856 17.9842 108.97 18.1993 108.025 18.1993C104.303 18.1993 103.393 14.2798 103.225 12.583H103.213ZM104.159 10.1214C105.392 10.1214 106.158 9.17735 106.158 7.97044C106.158 6.76353 105.356 5.77171 104.159 5.77171H101.203V10.1214H104.159Z" fill="white"/>
<path d="M126.97 16.7773L132.009 3.71638C132.2 3.17865 132.607 2.90381 133.218 2.90381H134.75C135.348 2.90381 135.743 3.17865 135.958 3.71638L141.069 16.7773C141.332 17.4823 141.021 17.9603 140.255 17.9603H138.855C138.268 17.9603 137.861 17.6974 137.646 17.1477L136.892 15.1641H131.075L130.345 17.1238C130.13 17.6855 129.747 17.9603 129.16 17.9603H127.808C127.03 17.9603 126.731 17.4823 126.994 16.7773H126.97ZM136.186 12.4754L133.984 6.40504L131.722 12.4754H136.186Z" fill="white"/>
<path d="M151.206 5.78366V9.17735H156.077C156.747 9.17735 157.106 9.54778 157.106 10.217V10.8025C157.106 11.4717 156.735 11.8541 156.077 11.8541H151.206V15.0804H156.962C157.633 15.0804 158.004 15.4509 158.004 16.1081V16.9207C158.004 17.5899 157.633 17.9484 156.962 17.9484H148.836C148.166 17.9484 147.783 17.5779 147.783 16.9207V3.93147C147.783 3.2623 148.166 2.90381 148.836 2.90381H156.962C157.633 2.90381 158.004 3.27425 158.004 3.93147V4.74405C158.004 5.41322 157.633 5.77171 156.962 5.77171H151.206V5.78366Z" fill="white"/>
<path d="M159.583 10.432C159.583 6.23772 162.755 2.66479 167.853 2.66479C169.792 2.66479 171.217 3.22643 172.461 4.0868C173 4.45723 173.06 4.99497 172.677 5.5327L172.138 6.20188C171.755 6.73961 171.276 6.73961 170.69 6.39307C169.828 5.90314 168.799 5.64024 167.842 5.64024C164.826 5.64024 162.994 7.79117 162.994 10.444C162.994 13.0968 164.826 15.2358 167.842 15.2358C168.787 15.2358 169.828 14.9729 170.69 14.4829C171.276 14.1364 171.743 14.1364 172.138 14.6741L172.677 15.3433C173.06 15.9049 173.048 16.371 172.569 16.7175C171.3 17.6257 169.852 18.1993 167.853 18.1993C162.743 18.1993 159.583 14.6263 159.583 10.432Z" fill="white"/>
<path d="M174.077 10.432C174.077 6.18993 177.356 2.66479 182.072 2.66479C186.787 2.66479 190.066 6.18993 190.066 10.432C190.066 14.6741 186.787 18.1993 182.072 18.1993C177.356 18.1993 174.077 14.6741 174.077 10.432ZM186.644 10.432C186.644 7.76727 184.753 5.6283 182.072 5.6283C179.391 5.6283 177.524 7.75532 177.524 10.432C177.524 13.1087 179.403 15.2238 182.072 15.2238C184.741 15.2238 186.644 13.0968 186.644 10.432Z" fill="white"/>
<path d="M46.3287 34.3312C46.3287 30.1369 49.5003 26.564 54.5987 26.564C56.5376 26.564 57.9618 27.1256 59.2065 27.986C59.7451 28.3564 59.8049 28.8941 59.4219 29.4319L58.8833 30.101C58.5004 30.6388 58.0216 30.6388 57.4352 30.2922C56.5735 29.8023 55.5442 29.5394 54.5868 29.5394C51.5708 29.5394 49.7397 31.6903 49.7397 34.3432C49.7397 36.996 51.5708 39.1349 54.5868 39.1349C55.5323 39.1349 56.5735 38.872 57.4352 38.3821C58.0216 38.0356 58.4884 38.0356 58.8833 38.5733L59.4219 39.2425C59.8049 39.8041 59.7929 40.2702 59.3142 40.6167C58.0456 41.5249 56.5974 42.0984 54.5987 42.0984C49.4883 42.0984 46.3287 38.5255 46.3287 34.3312Z" fill="white"/>
<path d="M60.8342 34.3312C60.8342 30.0891 64.1134 26.564 68.8289 26.564C73.5444 26.564 76.8236 30.0891 76.8236 34.3312C76.8236 38.5733 73.5444 42.0984 68.8289 42.0984C64.1134 42.0984 60.8342 38.5733 60.8342 34.3312ZM73.3888 34.3312C73.3888 31.6664 71.4978 29.5275 68.8169 29.5275C66.1361 29.5275 64.269 31.6545 64.269 34.3312C64.269 37.0079 66.148 39.123 68.8169 39.123C71.4858 39.123 73.3888 36.996 73.3888 34.3312Z" fill="white"/>
<path d="M79.2771 40.8198V27.8187C79.2771 27.1495 79.6601 26.791 80.3303 26.791H81.1082C81.6707 26.791 82.0537 26.9822 82.3769 27.4363L88.4327 35.7413V27.8187C88.4327 27.1495 88.8157 26.791 89.4859 26.791H90.8264C91.4966 26.791 91.8556 27.1615 91.8556 27.8187V40.8198C91.8556 41.489 91.4846 41.8475 90.8264 41.8475H90.0484C89.5099 41.8475 89.103 41.6563 88.8038 41.2022L82.7 32.8136V40.8198C82.7 41.489 82.329 41.8475 81.6707 41.8475H80.3303C79.6601 41.8475 79.2771 41.4771 79.2771 40.8198Z" fill="white"/>
<path d="M94.3929 38.8481C94.1176 38.2029 94.4527 37.7488 95.1229 37.5815L96.0445 37.3664C96.6429 37.2111 96.966 37.4739 97.3131 38.0356C97.8038 38.8362 98.7613 39.3739 100.03 39.3739C101.49 39.3739 102.471 38.7287 102.471 37.7368C102.471 36.984 101.885 36.3865 100.748 35.9922L98.7852 35.2872C97.0019 34.7016 94.7998 33.3752 94.7759 31.0451C94.7759 28.2967 97.1695 26.564 100.126 26.564C102.471 26.564 104.135 27.5916 104.949 29.3124C105.272 29.9338 104.973 30.4356 104.326 30.6268L103.465 30.8658C102.866 31.0331 102.495 30.8061 102.124 30.2803C101.741 29.635 101.071 29.2885 100.162 29.2885C99.0844 29.2885 98.1629 29.8262 98.1629 30.818C98.1629 31.3558 98.4022 31.9413 99.7307 32.4312L101.693 33.1362C104.65 34.1281 105.739 35.6696 105.787 37.5695C105.787 40.5211 103.261 42.0865 100.054 42.0865C97.2293 42.0865 95.1828 40.8437 94.3809 38.8362L94.3929 38.8481Z" fill="white"/>
<path d="M108.025 36.1595V27.8306C108.025 27.1615 108.408 26.803 109.078 26.803H110.418C111.088 26.803 111.448 27.1734 111.448 27.8306V36.1595C111.448 38.1192 112.74 39.123 114.272 39.123C115.804 39.123 117.12 38.1073 117.12 36.1595V27.8306C117.12 27.1615 117.503 26.803 118.174 26.803H119.514C120.184 26.803 120.543 27.1734 120.543 27.8306V36.1595C120.543 40.0312 117.683 42.0985 114.272 42.0985C110.861 42.0985 108.025 40.0312 108.025 36.1595Z" fill="white"/>
<path d="M123.715 40.8198V27.8187C123.715 27.1495 124.098 26.791 124.768 26.791H126.109C126.779 26.791 127.138 27.1615 127.138 27.8187V38.9677H132.918C133.589 38.9677 133.972 39.3381 133.972 39.9953V40.8079C133.972 41.4771 133.589 41.8356 132.918 41.8356H124.768C124.098 41.8356 123.715 41.4651 123.715 40.8079V40.8198Z" fill="white"/>
<path d="M144.827 27.8306V28.6432C144.827 29.3124 144.444 29.6709 143.774 29.6709H140.279V40.8199C140.279 41.489 139.908 41.8475 139.25 41.8475H137.957C137.287 41.8475 136.928 41.4771 136.928 40.8199V29.6709H133.481C132.811 29.6709 132.452 29.3004 132.452 28.6432V27.8306C132.452 27.1615 132.823 26.803 133.481 26.803H143.786C144.456 26.803 144.839 27.1734 144.839 27.8306H144.827Z" fill="white"/>
<path d="M144.049 40.6765L149.087 27.6156C149.279 27.0778 149.686 26.803 150.296 26.803H151.828C152.427 26.803 152.821 27.0778 153.037 27.6156L158.147 40.6765C158.411 41.3815 158.099 41.8595 157.333 41.8595H155.933C155.347 41.8595 154.94 41.5966 154.724 41.0469L153.97 39.0633H148.154L147.424 41.023C147.208 41.5846 146.825 41.8595 146.239 41.8595H144.887C144.109 41.8595 143.809 41.3815 144.073 40.6765H144.049ZM153.276 36.3746L151.074 30.3042L148.812 36.3746H153.276Z" fill="white"/>
<path d="M160.337 40.8198V27.8187C160.337 27.1495 160.72 26.791 161.391 26.791H162.169C162.731 26.791 163.114 26.9822 163.437 27.4363L169.493 35.7413V27.8187C169.493 27.1495 169.876 26.791 170.546 26.791H171.887C172.557 26.791 172.916 27.1615 172.916 27.8187V40.8198C172.916 41.489 172.545 41.8475 171.887 41.8475H171.109C170.57 41.8475 170.163 41.6563 169.864 41.2022L163.772 32.8136V40.8198C163.772 41.489 163.401 41.8475 162.743 41.8475H161.403C160.732 41.8475 160.349 41.4771 160.349 40.8198H160.337Z" fill="white"/>
<path d="M187.421 27.8306V28.6432C187.421 29.3124 187.038 29.6709 186.368 29.6709H182.874V40.8199C182.874 41.489 182.503 41.8475 181.844 41.8475H180.552C179.881 41.8475 179.522 41.4771 179.522 40.8199V29.6709H176.076C175.405 29.6709 175.046 29.3004 175.046 28.6432V27.8306C175.046 27.1615 175.417 26.803 176.076 26.803H186.38C187.05 26.803 187.433 27.1734 187.433 27.8306H187.421Z" fill="white"/>
<path d="M188.594 38.8481C188.319 38.2029 188.654 37.7488 189.324 37.5815L190.246 37.3664C190.844 37.2111 191.167 37.4739 191.515 38.0356C192.005 38.8362 192.963 39.3739 194.231 39.3739C195.691 39.3739 196.661 38.7287 196.661 37.7368C196.661 36.984 196.074 36.3865 194.937 35.9922L192.975 35.2872C191.191 34.7016 188.989 33.3752 188.965 31.0451C188.965 28.2967 191.359 26.564 194.303 26.564C196.649 26.564 198.312 27.5916 199.126 29.3124C199.449 29.9338 199.15 30.4356 198.504 30.6268L197.642 30.8658C197.044 31.0331 196.673 30.8061 196.302 30.2803C195.919 29.635 195.249 29.2885 194.339 29.2885C193.262 29.2885 192.34 29.8262 192.34 30.818C192.34 31.3558 192.58 31.9413 193.908 32.4312L195.871 33.1362C198.827 34.1281 199.928 35.6696 199.964 37.5695C199.964 40.5211 197.439 42.0865 194.231 42.0865C191.407 42.0865 189.36 40.8437 188.558 38.8362L188.594 38.8481Z" fill="white"/>
<path d="M26.2941 0C25.7196 5.9748 24.3792 12.4993 22.6917 19.2866C15.044 13.1207 9.0719 6.77542 7.55194 0H0.347107V46.938H9.74212C10.3166 40.9632 11.657 34.4387 13.3445 27.6514C20.9922 33.8293 26.9763 40.1626 28.4843 46.938H35.6891V0H26.2941Z" fill="#028E48"/>
<path d="M3.67423 55.279H4.72743V57.2985C4.17689 57.7047 3.42289 57.9318 2.71677 57.9318C1.14894 57.9318 0 56.8563 0 55.3626C0 53.8689 1.16091 52.7935 2.74071 52.7935C3.61439 52.7935 4.34444 53.0922 4.82317 53.6538L4.08114 54.335C3.71013 53.9526 3.29125 53.7733 2.78858 53.7733C1.81916 53.7733 1.16091 54.4186 1.16091 55.3626C1.16091 56.3066 1.81916 56.9519 2.77661 56.9519C3.08779 56.9519 3.38699 56.9041 3.67423 56.7368V55.279Z" fill="white"/>
<path d="M9.44287 57.8482L8.48541 56.4621H7.42025V57.8482H6.2713V52.8652H8.42557C9.76601 52.8652 10.5918 53.5583 10.5918 54.6696C10.5918 55.4224 10.2208 55.9721 9.56255 56.247L10.6876 57.8482H9.44287ZM8.35376 53.8092H7.40828V55.5419H8.35376C9.05988 55.5419 9.41893 55.2074 9.41893 54.6696C9.41893 54.1319 9.05988 53.8092 8.35376 53.8092Z" fill="white"/>
<path d="M15.8219 56.9281V57.8482H11.9681V52.8652H15.7381V53.7853H13.1171V54.8728H15.4389V55.769H13.1171V56.9281H15.8339H15.8219Z" fill="white"/>
<path d="M21.064 56.9281V57.8482H17.2102V52.8652H20.9802V53.7853H18.3591V54.8728H20.681V55.769H18.3591V56.9281H21.0759H21.064Z" fill="white"/>
<path d="M27.0121 52.8652V57.8482H26.0667L23.5773 54.825V57.8482H22.4403V52.8652H23.3978L25.8752 55.8885V52.8652H27.0121Z" fill="white"/>
<path d="M28.6518 52.8652H29.8007V57.8482H28.6518V52.8652Z" fill="white"/>
<path d="M36.0242 52.8652V57.8482H35.0787L32.5893 54.825V57.8482H31.4523V52.8652H32.4098L34.8872 55.8885V52.8652H36.0242Z" fill="white"/>
<path d="M41.0389 55.279H42.092V57.2985C41.5415 57.7047 40.7875 57.9318 40.0814 57.9318C38.5136 57.9318 37.3646 56.8563 37.3646 55.3626C37.3646 53.8689 38.5255 52.7935 40.1053 52.7935C40.979 52.7935 41.7091 53.0922 42.1878 53.6538L41.4458 54.335C41.0748 53.9526 40.6559 53.7733 40.1532 53.7733C39.1838 53.7733 38.5255 54.4186 38.5255 55.3626C38.5255 56.3066 39.1838 56.9519 40.1412 56.9519C40.4524 56.9519 40.7516 56.9041 41.0389 56.7368V55.279Z" fill="white"/>
<path d="M47.1306 53.8092H45.5389V52.8652H49.8833V53.8092H48.2916V57.8482H47.1426V53.8092H47.1306Z" fill="white"/>
<path d="M55.5323 52.8652V57.8482H54.3833V55.8168H52.1214V57.8482H50.9724V52.8652H52.1214V54.8369H54.3833V52.8652H55.5323Z" fill="white"/>
<path d="M61.0257 56.9281V57.8482H57.1719V52.8652H60.9419V53.7853H58.3209V54.8728H60.6427V55.769H58.3209V56.9281H61.0377H61.0257Z" fill="white"/>
<path d="M68.2544 55.279H69.3076V57.2985C68.7571 57.7047 68.0031 57.9318 67.297 57.9318C65.7291 57.9318 64.5802 56.8563 64.5802 55.3626C64.5802 53.8689 65.7411 52.7935 67.3209 52.7935C68.1946 52.7935 68.9246 53.0922 69.4034 53.6538L68.6613 54.335C68.2903 53.9526 67.8714 53.7733 67.3688 53.7733C66.3994 53.7733 65.7411 54.4186 65.7411 55.3626C65.7411 56.3066 66.3994 56.9519 67.3688 56.9519C67.68 56.9519 67.9792 56.9041 68.2664 56.7368V55.279H68.2544Z" fill="white"/>
<path d="M70.8395 52.8652H71.9885V56.9042H74.4898V57.8482H70.8395V52.8652Z" fill="white"/>
<path d="M75.196 55.3626C75.196 53.8809 76.3569 52.7935 77.9247 52.7935C79.4926 52.7935 80.6535 53.8809 80.6535 55.3626C80.6535 56.8444 79.4926 57.9318 77.9247 57.9318C76.3569 57.9318 75.196 56.8324 75.196 55.3626ZM79.4926 55.3626C79.4926 54.4186 78.8223 53.7733 77.9367 53.7733C77.0511 53.7733 76.3808 54.4186 76.3808 55.3626C76.3808 56.3066 77.0511 56.9519 77.9367 56.9519C78.8223 56.9519 79.4926 56.3066 79.4926 55.3626Z" fill="white"/>
<path d="M86.5657 56.486C86.5657 57.3463 85.8836 57.8482 84.5671 57.8482H81.9939V52.8652H84.4234C85.6681 52.8652 86.3144 53.3791 86.3144 54.1677C86.3144 54.6696 86.0511 55.052 85.6562 55.2671C86.2067 55.4463 86.5657 55.8765 86.5657 56.4979V56.486ZM83.1428 53.7376V54.9086H84.2918C84.8543 54.9086 85.1655 54.7174 85.1655 54.3231C85.1655 53.9287 84.8663 53.7376 84.2918 53.7376H83.1428ZM85.4048 56.3784C85.4048 55.9602 85.0817 55.757 84.4833 55.757H83.1428V56.9878H84.4833C85.0817 56.9878 85.4048 56.7967 85.4048 56.3784Z" fill="white"/>
<path d="M91.7599 56.9281V57.8482H87.9062V52.8652H91.6761V53.7853H89.0551V54.8728H91.3769V55.769H89.0551V56.9281H91.7719H91.7599Z" fill="white"/>
<path d="M94.2373 57.2148C94.2373 57.406 94.2134 57.5375 94.0458 57.9318L93.6389 58.9595H92.9328L93.244 57.8242C93.0166 57.7406 92.861 57.5136 92.861 57.2148C92.861 56.8085 93.1602 56.5337 93.5551 56.5337C93.9501 56.5337 94.2373 56.8085 94.2373 57.2148Z" fill="white"/>
<path d="M97.6842 55.3626C97.6842 53.857 98.8451 52.7935 100.389 52.7935C101.251 52.7935 101.969 53.1041 102.436 53.6777L101.693 54.3589C101.358 53.9765 100.939 53.7733 100.437 53.7733C99.5033 53.7733 98.8451 54.4306 98.8451 55.3626C98.8451 56.2947 99.5033 56.9519 100.437 56.9519C100.939 56.9519 101.358 56.7607 101.693 56.3664L102.436 57.0475C101.969 57.6211 101.239 57.9318 100.377 57.9318C98.8331 57.9318 97.6722 56.8563 97.6722 55.3626H97.6842Z" fill="white"/>
<path d="M103.261 55.3626C103.261 53.8809 104.422 52.7935 105.99 52.7935C107.558 52.7935 108.719 53.8809 108.719 55.3626C108.719 56.8444 107.558 57.9318 105.99 57.9318C104.422 57.9318 103.261 56.8324 103.261 55.3626ZM107.558 55.3626C107.558 54.4186 106.888 53.7733 106.002 53.7733C105.116 53.7733 104.446 54.4186 104.446 55.3626C104.446 56.3066 105.116 56.9519 106.002 56.9519C106.888 56.9519 107.558 56.3066 107.558 55.3626Z" fill="white"/>
<path d="M114.631 52.8652V57.8482H113.686L111.196 54.825V57.8482H110.059V52.8652H111.017L113.494 55.8885V52.8652H114.631Z" fill="white"/>
<path d="M115.876 57.3582L116.271 56.4859C116.69 56.7846 117.312 56.9997 117.922 56.9997C118.605 56.9997 118.88 56.7726 118.88 56.462C118.88 55.5299 115.983 56.1632 115.983 54.323C115.983 53.4746 116.666 52.7695 118.09 52.7695C118.712 52.7695 119.358 52.9249 119.813 53.2117L119.454 54.084C118.987 53.8211 118.521 53.6897 118.078 53.6897C117.396 53.6897 117.132 53.9525 117.132 54.2632C117.132 55.1834 120.029 54.55 120.029 56.3783C120.029 57.2148 119.335 57.9198 117.922 57.9198C117.132 57.9198 116.331 57.6928 115.888 57.3462L115.876 57.3582Z" fill="white"/>
<path d="M121.226 55.6615V52.8772H122.386V55.6256C122.386 56.5696 122.793 56.964 123.499 56.964C124.206 56.964 124.613 56.5696 124.613 55.6256V52.8772H125.749V55.6615C125.749 57.1313 124.912 57.9438 123.499 57.9438C122.087 57.9438 121.237 57.1313 121.237 55.6615H121.226Z" fill="white"/>
<path d="M127.341 52.8652H128.49V56.9042H130.992V57.8482H127.341V52.8652Z" fill="white"/>
<path d="M132.679 53.8092H131.087V52.8652H135.432V53.8092H133.84V57.8482H132.691V53.8092H132.679Z" fill="white"/>
<path d="M136.509 52.8652H137.658V57.8482H136.509V52.8652Z" fill="white"/>
<path d="M143.869 52.8652V57.8482H142.924L140.434 54.825V57.8482H139.297V52.8652H140.255L142.732 55.8885V52.8652H143.869Z" fill="white"/>
<path d="M148.896 55.279H149.949V57.2985C149.399 57.7047 148.645 57.9318 147.938 57.9318C146.371 57.9318 145.222 56.8563 145.222 55.3626C145.222 53.8689 146.383 52.7935 147.962 52.7935C148.836 52.7935 149.566 53.0922 150.045 53.6538L149.303 54.335C148.932 53.9526 148.513 53.7733 148.01 53.7733C147.041 53.7733 146.383 54.4186 146.383 55.3626C146.383 56.3066 147.041 56.9519 147.998 56.9519C148.309 56.9519 148.609 56.9041 148.896 56.7368V55.279Z" fill="white"/>
<path d="M161.486 52.8652L159.859 57.8482H158.626L157.537 54.4784L156.4 57.8482H155.167L153.528 52.8652H154.724L155.849 56.3665L157.022 52.8652H158.087L159.224 56.4023L160.385 52.8652H161.486Z" fill="white"/>
<path d="M162.588 52.8652H163.736V57.8482H162.588V52.8652Z" fill="white"/>
<path d="M166.405 53.8092H164.814V52.8652H169.158V53.8092H167.566V57.8482H166.417V53.8092H166.405Z" fill="white"/>
<path d="M174.819 52.8652V57.8482H173.67V55.8168H171.408V57.8482H170.259V52.8652H171.408V54.8369H173.67V52.8652H174.819Z" fill="white"/>
<path d="M178.613 55.3626C178.613 53.857 179.774 52.7935 181.318 52.7935C182.179 52.7935 182.897 53.1041 183.364 53.6777L182.622 54.3589C182.287 53.9765 181.868 53.7733 181.366 53.7733C180.432 53.7733 179.774 54.4306 179.774 55.3626C179.774 56.2947 180.432 56.9519 181.366 56.9519C181.868 56.9519 182.287 56.7607 182.622 56.3664L183.364 57.0475C182.886 57.6211 182.167 57.9318 181.306 57.9318C179.762 57.9318 178.601 56.8563 178.601 55.3626H178.613Z" fill="white"/>
<path d="M187.792 56.7847H185.471L185.028 57.8482H183.843L186.069 52.8652H187.206L189.432 57.8482H188.223L187.781 56.7847H187.792ZM187.433 55.9124L186.644 54.0124L185.854 55.9124H187.445H187.433Z" fill="white"/>
<path d="M193.609 57.8482L192.652 56.4621H191.586V57.8482H190.437V52.8652H192.592C193.932 52.8652 194.758 53.5583 194.758 54.6696C194.758 55.4224 194.387 55.9721 193.729 56.247L194.854 57.8482H193.609ZM192.52 53.8092H191.574V55.5419H192.52C193.226 55.5419 193.585 55.2074 193.585 54.6696C193.585 54.1319 193.226 53.8092 192.52 53.8092Z" fill="white"/>
<path d="M199.988 56.9281V57.8482H196.134V52.8652H199.904V53.7853H197.283V54.8728H199.605V55.769H197.283V56.9281H200H199.988Z" fill="white"/>
</g>
<defs>
<clipPath id="clip0_55_664">
<rect width="200" height="58.9474" fill="white"/>
</clipPath>
</defs>
</svg>
