<svg width="188" height="56" viewBox="0 0 188 56" fill="none" xmlns="http://www.w3.org/2000/svg">
<g clip-path="url(#clip0_45_122)">
<path d="M44.2162 15.8546V3.68363C44.2162 3.05661 44.5745 2.7207 45.2016 2.7207H45.9294C46.4556 2.7207 46.8139 2.89985 47.1162 3.32533L52.7818 11.1071V3.68363C52.7818 3.05661 53.1401 2.7207 53.7671 2.7207H55.0212C55.6482 2.7207 55.9841 3.0678 55.9841 3.68363V15.8658C55.9841 16.4928 55.637 16.8287 55.0212 16.8287H54.2934C53.7895 16.8287 53.4088 16.6495 53.1289 16.2241L47.4185 8.3639V15.8658C47.4185 16.4928 47.0714 16.8287 46.4556 16.8287H45.2016C44.5745 16.8287 44.2162 16.4816 44.2162 15.8658V15.8546Z" fill="white"/>
<path d="M59.1416 15.8546V3.68363C59.1416 3.05661 59.4999 2.7207 60.1269 2.7207H61.381C62.008 2.7207 62.3439 3.0678 62.3439 3.68363V15.8658C62.3439 16.4928 61.9968 16.8287 61.381 16.8287H60.1269C59.4999 16.8287 59.1416 16.4816 59.1416 15.8658V15.8546Z" fill="white"/>
<path d="M64.7064 14.0072C64.4489 13.4025 64.7624 12.977 65.3894 12.8203L66.2516 12.6187C66.8114 12.4732 67.1137 12.7195 67.4384 13.2458C67.8975 13.996 68.7932 14.4998 69.9801 14.4998C71.3461 14.4998 72.253 13.8952 72.253 12.9658C72.253 12.2605 71.7044 11.7006 70.6407 11.3311L68.8044 10.6705C67.1361 10.1219 65.0759 8.87901 65.0535 6.69563C65.0535 4.12036 67.2929 2.49683 70.0585 2.49683C72.2531 2.49683 73.8094 3.45975 74.5708 5.07209C74.8731 5.65433 74.5932 6.12459 73.9886 6.30374L73.1824 6.52768C72.6225 6.68444 72.2754 6.4717 71.9283 5.97904C71.57 5.37441 70.943 5.0497 70.0921 5.0497C69.0843 5.0497 68.2222 5.55356 68.2222 6.48289C68.2222 6.98675 68.4461 7.53539 69.689 7.99446L71.5253 8.65507C74.2909 9.58441 75.3098 11.0288 75.3546 12.8091C75.3546 15.5747 72.992 17.0415 69.9913 17.0415C67.3488 17.0415 65.4342 15.877 64.684 13.996L64.7064 14.0072Z" fill="white"/>
<path d="M76.2167 15.7202L80.9306 3.48209C81.1097 2.97823 81.4904 2.7207 82.0615 2.7207H83.4947C84.0545 2.7207 84.424 2.97823 84.6255 3.48209L89.4066 15.7202C89.6529 16.3808 89.3618 16.8287 88.6452 16.8287H87.3352C86.7865 16.8287 86.4058 16.5824 86.2043 16.0673L85.4989 14.2086H80.0572L79.3742 16.0449C79.1727 16.5712 78.8144 16.8287 78.2658 16.8287H77.0005C76.2727 16.8287 75.9928 16.3808 76.2391 15.7202H76.2167ZM84.8495 11.6894L82.7893 6.00137L80.6731 11.6894H84.8495Z" fill="white"/>
<path d="M90.0448 9.78592C90.0448 5.79985 93.2247 2.4856 97.6474 2.4856C99.327 2.4856 100.693 2.84389 101.925 3.57169C102.473 3.91879 102.529 4.42264 102.171 4.9265L101.667 5.57592C101.309 6.07977 100.883 6.12456 100.312 5.85584C99.2486 5.30719 98.4536 5.2736 97.6474 5.2736C95.1282 5.2736 93.2583 7.26664 93.2583 9.77472C93.2583 12.2828 94.893 14.2646 97.793 14.2646C98.6216 14.2646 99.5285 14.0855 100.256 13.7048V11.5326H97.8154C97.1884 11.5326 96.8301 11.1855 96.8301 10.5697V10.1218C96.8301 9.4948 97.1884 9.1589 97.8154 9.1589H102.272C102.899 9.1589 103.257 9.506 103.257 10.1218V14.1975C103.257 14.7013 103.1 15.082 102.63 15.4291C101.118 16.56 99.4053 17.0638 97.7258 17.0638C93.1687 17.0638 90.0448 13.7608 90.0448 9.80831V9.78592Z" fill="white"/>
<path d="M110.759 11.7901H108.889V15.8658C108.889 16.4928 108.542 16.8287 107.926 16.8287H106.672C106.045 16.8287 105.687 16.4816 105.687 15.8658V3.68363C105.687 3.05661 106.045 2.7207 106.672 2.7207H112.091C115.092 2.7207 116.772 4.85929 116.772 7.42337C116.772 9.49478 115.618 11.1295 113.648 11.6334C113.804 13.0666 114.611 14.4998 115.786 14.4998C116.212 14.4998 116.447 14.455 116.716 14.343C117.298 14.1415 117.544 14.2646 117.802 14.8021L117.981 15.2052C118.238 15.7538 118.182 16.2129 117.679 16.4928C116.973 16.8511 116.145 17.0526 115.26 17.0526C111.778 17.0526 110.927 13.3801 110.77 11.7901H110.759ZM111.655 9.48358C112.808 9.48358 113.525 8.59903 113.525 7.46815C113.525 6.33727 112.774 5.40794 111.655 5.40794H108.889V9.48358H111.655Z" fill="white"/>
<path d="M118.787 15.7202L123.501 3.48209C123.68 2.97823 124.061 2.7207 124.632 2.7207H126.065C126.625 2.7207 126.994 2.97823 127.196 3.48209L131.977 15.7202C132.223 16.3808 131.932 16.8287 131.216 16.8287H129.905C129.357 16.8287 128.976 16.5824 128.775 16.0673L128.069 14.2086H122.628L121.945 16.0449C121.743 16.5712 121.385 16.8287 120.836 16.8287H119.571C118.843 16.8287 118.563 16.3808 118.809 15.7202H118.787ZM127.409 11.6894L125.348 6.00137L123.232 11.6894H127.409Z" fill="white"/>
<path d="M141.461 5.41914V8.59903H146.018C146.645 8.59903 146.981 8.94613 146.981 9.57315V10.1218C146.981 10.7488 146.634 11.1071 146.018 11.1071H141.461V14.1303H146.846C147.473 14.1303 147.82 14.4774 147.82 15.0932V15.8546C147.82 16.4816 147.473 16.8175 146.846 16.8175H139.244C138.617 16.8175 138.258 16.4704 138.258 15.8546V3.68363C138.258 3.05661 138.617 2.7207 139.244 2.7207H146.846C147.473 2.7207 147.82 3.0678 147.82 3.68363V4.44501C147.82 5.07203 147.473 5.40794 146.846 5.40794H141.461V5.41914Z" fill="white"/>
<path d="M149.298 9.77476C149.298 5.84467 152.266 2.49683 157.035 2.49683C158.849 2.49683 160.182 3.02308 161.346 3.82925C161.85 4.17635 161.906 4.68021 161.548 5.18406L161.044 5.81108C160.686 6.31494 160.238 6.31494 159.689 5.99023C158.883 5.53116 157.92 5.28483 157.024 5.28483C154.203 5.28483 152.489 7.30026 152.489 9.78595C152.489 12.2716 154.203 14.2759 157.024 14.2759C157.909 14.2759 158.883 14.0295 159.689 13.5705C160.238 13.2458 160.674 13.2458 161.044 13.7496L161.548 14.3766C161.906 14.9029 161.895 15.3396 161.447 15.6643C160.26 16.5152 158.905 17.0527 157.035 17.0527C152.254 17.0527 149.298 13.7048 149.298 9.77476Z" fill="white"/>
<path d="M162.858 9.77476C162.858 5.79989 165.926 2.49683 170.337 2.49683C174.749 2.49683 177.817 5.79989 177.817 9.77476C177.817 13.7496 174.749 17.0527 170.337 17.0527C165.926 17.0527 162.858 13.7496 162.858 9.77476ZM174.614 9.77476C174.614 7.27787 172.845 5.27364 170.337 5.27364C167.829 5.27364 166.082 7.26667 166.082 9.77476C166.082 12.2828 167.84 14.2647 170.337 14.2647C172.834 14.2647 174.614 12.2716 174.614 9.77476Z" fill="white"/>
<path d="M43.3429 32.1683C43.3429 28.2382 46.3101 24.8904 51.0799 24.8904C52.8938 24.8904 54.2262 25.4166 55.3907 26.2228C55.8945 26.5699 55.9505 27.0738 55.5922 27.5776L55.0884 28.2046C54.7301 28.7085 54.2822 28.7085 53.7335 28.3838C52.9274 27.9247 51.9644 27.6784 51.0687 27.6784C48.2471 27.6784 46.534 29.6938 46.534 32.1795C46.534 34.6652 48.2471 36.6694 51.0687 36.6694C51.9532 36.6694 52.9274 36.4231 53.7335 35.964C54.2822 35.6393 54.7189 35.6393 55.0884 36.1432L55.5922 36.7702C55.9505 37.2965 55.9393 37.7331 55.4914 38.0578C54.3046 38.9088 52.9498 39.4462 51.0799 39.4462C46.2989 39.4462 43.3429 36.0984 43.3429 32.1683Z" fill="white"/>
<path d="M56.9135 32.1683C56.9135 28.1934 59.9814 24.8904 64.3929 24.8904C68.8045 24.8904 71.8724 28.1934 71.8724 32.1683C71.8724 36.1432 68.8045 39.4462 64.3929 39.4462C59.9814 39.4462 56.9135 36.1432 56.9135 32.1683ZM68.6589 32.1683C68.6589 29.6714 66.8898 27.6672 64.3817 27.6672C61.8736 27.6672 60.1269 29.6602 60.1269 32.1683C60.1269 34.6764 61.8848 36.6582 64.3817 36.6582C66.8786 36.6582 68.6589 34.6652 68.6589 32.1683Z" fill="white"/>
<path d="M74.1677 38.2483V26.0662C74.1677 25.4392 74.526 25.1033 75.153 25.1033H75.8808C76.4071 25.1033 76.7654 25.2824 77.0677 25.7079L82.7333 33.4897V26.0662C82.7333 25.4392 83.0916 25.1033 83.7186 25.1033H84.9727C85.5997 25.1033 85.9356 25.4504 85.9356 26.0662V38.2483C85.9356 38.8754 85.5885 39.2113 84.9727 39.2113H84.2449C83.741 39.2113 83.3603 39.0321 83.0804 38.6066L77.37 30.7465V38.2483C77.37 38.8754 77.0229 39.2113 76.4071 39.2113H75.153C74.526 39.2113 74.1677 38.8642 74.1677 38.2483Z" fill="white"/>
<path d="M88.3093 36.4007C88.0518 35.7961 88.3653 35.3706 88.9923 35.2138L89.8545 35.0123C90.4143 34.8667 90.7166 35.1131 91.0413 35.6393C91.5004 36.3895 92.3961 36.8934 93.583 36.8934C94.949 36.8934 95.8672 36.2887 95.8672 35.3594C95.8672 34.654 95.3185 34.0942 94.2548 33.7247L92.4185 33.0641C90.7502 32.5154 88.69 31.2726 88.6676 29.0892C88.6676 26.5139 90.907 24.8904 93.6726 24.8904C95.8672 24.8904 97.4235 25.8533 98.1849 27.4656C98.4872 28.0479 98.2073 28.5181 97.6027 28.6973L96.7965 28.9212C96.2366 29.078 95.8895 28.8653 95.5424 28.3726C95.1841 27.768 94.5571 27.4433 93.7062 27.4433C92.6985 27.4433 91.8363 27.9471 91.8363 28.8764C91.8363 29.3803 92.0602 29.9289 93.3031 30.388L95.1394 31.0486C97.905 31.978 98.9239 33.4224 98.9687 35.2026C98.9687 37.9683 96.6061 39.435 93.6054 39.435C90.9629 39.435 89.0483 38.2706 88.2981 36.3895L88.3093 36.4007Z" fill="white"/>
<path d="M101.062 33.8814V26.0772C101.062 25.4502 101.421 25.1143 102.048 25.1143H103.302C103.929 25.1143 104.265 25.4614 104.265 26.0772V33.8814C104.265 35.7176 105.474 36.6582 106.907 36.6582C108.34 36.6582 109.572 35.7064 109.572 33.8814V26.0772C109.572 25.4502 109.93 25.1143 110.557 25.1143H111.811C112.438 25.1143 112.774 25.4614 112.774 26.0772V33.8814C112.774 37.5091 110.098 39.4462 106.907 39.4462C103.716 39.4462 101.062 37.5091 101.062 33.8814Z" fill="white"/>
<path d="M115.742 38.2483V26.0662C115.742 25.4392 116.1 25.1033 116.727 25.1033H117.981C118.608 25.1033 118.944 25.4504 118.944 26.0662V36.5128H124.352C124.979 36.5128 125.337 36.8599 125.337 37.4758V38.2371C125.337 38.8642 124.979 39.2001 124.352 39.2001H116.727C116.1 39.2001 115.742 38.853 115.742 38.2371V38.2483Z" fill="white"/>
<path d="M135.493 26.0772V26.8386C135.493 27.4656 135.134 27.8015 134.507 27.8015H131.238V38.2481C131.238 38.8751 130.891 39.211 130.275 39.211H129.066C128.439 39.211 128.103 38.8639 128.103 38.2481V27.8015H124.878C124.251 27.8015 123.915 27.4544 123.915 26.8386V26.0772C123.915 25.4502 124.262 25.1143 124.878 25.1143H134.519C135.146 25.1143 135.504 25.4614 135.504 26.0772H135.493Z" fill="white"/>
<path d="M134.765 38.1138L139.479 25.8756C139.658 25.3718 140.039 25.1143 140.61 25.1143H142.043C142.603 25.1143 142.972 25.3718 143.174 25.8756L147.955 38.1138C148.201 38.7744 147.91 39.2222 147.193 39.2222H145.883C145.335 39.2222 144.954 38.9759 144.752 38.4609L144.047 36.6022H138.605L137.922 38.4385C137.721 38.9647 137.363 39.2222 136.814 39.2222H135.549C134.821 39.2222 134.541 38.7744 134.787 38.1138H134.765ZM143.398 34.0829L141.337 28.3949L139.221 34.0829H143.398Z" fill="white"/>
<path d="M150.004 38.2483V26.0662C150.004 25.4392 150.362 25.1033 150.989 25.1033H151.717C152.243 25.1033 152.601 25.2824 152.904 25.7079L158.569 33.4897V26.0662C158.569 25.4392 158.928 25.1033 159.555 25.1033H160.809C161.436 25.1033 161.772 25.4504 161.772 26.0662V38.2483C161.772 38.8754 161.425 39.2113 160.809 39.2113H160.081C159.577 39.2113 159.196 39.0321 158.916 38.6066L153.217 30.7465V38.2483C153.217 38.8754 152.87 39.2113 152.254 39.2113H151C150.373 39.2113 150.015 38.8642 150.015 38.2483H150.004Z" fill="white"/>
<path d="M175.342 26.0772V26.8386C175.342 27.4656 174.984 27.8015 174.357 27.8015H171.087V38.2481C171.087 38.8751 170.74 39.211 170.124 39.211H168.915C168.288 39.211 167.952 38.8639 167.952 38.2481V27.8015H164.728C164.101 27.8015 163.765 27.4544 163.765 26.8386V26.0772C163.765 25.4502 164.112 25.1143 164.728 25.1143H174.368C174.995 25.1143 175.353 25.4614 175.353 26.0772H175.342Z" fill="white"/>
<path d="M176.439 36.4007C176.182 35.7961 176.495 35.3706 177.122 35.2138L177.985 35.0123C178.544 34.8667 178.847 35.1131 179.171 35.6393C179.631 36.3895 180.526 36.8934 181.713 36.8934C183.079 36.8934 183.986 36.2887 183.986 35.3594C183.986 34.654 183.437 34.0942 182.374 33.7247L180.537 33.0641C178.869 32.5154 176.809 31.2726 176.787 29.0892C176.787 26.5139 179.026 24.8904 181.78 24.8904C183.975 24.8904 185.531 25.8533 186.293 27.4656C186.595 28.0479 186.315 28.5181 185.71 28.6973L184.904 28.9212C184.344 29.078 183.997 28.8653 183.65 28.3726C183.292 27.768 182.665 27.4433 181.814 27.4433C180.806 27.4433 179.944 27.9471 179.944 28.8764C179.944 29.3803 180.168 29.9289 181.411 30.388L183.247 31.0486C186.013 31.978 187.043 33.4224 187.076 35.2026C187.076 37.9683 184.714 39.435 181.713 39.435C179.071 39.435 177.156 38.2706 176.406 36.3895L176.439 36.4007Z" fill="white"/>
<path d="M24.5994 0C24.062 5.59841 22.8079 11.7119 21.2292 18.0717C14.0744 12.2941 8.48719 6.3486 7.06519 0H0.324707V43.9811H9.11421C9.65166 38.3827 10.9057 32.2692 12.4844 25.9094C19.6392 31.6982 25.2376 37.6325 26.6484 43.9811H33.3889V0H24.5994Z" fill="#028E48"/>
<path d="M3.43742 51.7965H4.42274V53.6887C3.90769 54.0694 3.20229 54.2822 2.54168 54.2822C1.07489 54.2822 0 53.2744 0 51.8748C0 50.4752 1.08609 49.4675 2.56407 49.4675C3.38144 49.4675 4.06444 49.7475 4.51232 50.2737L3.81811 50.9119C3.47101 50.5536 3.07912 50.3857 2.60886 50.3857C1.70192 50.3857 1.08609 50.9903 1.08609 51.8748C1.08609 52.7594 1.70192 53.364 2.59766 53.364C2.88878 53.364 3.1687 53.3192 3.43742 53.1625V51.7965Z" fill="white"/>
<path d="M8.83428 54.2037L7.93854 52.9049H6.94202V54.2037H5.86713V49.5347H7.88255C9.1366 49.5347 9.90918 50.1841 9.90918 51.2254C9.90918 51.9308 9.56208 52.4458 8.94625 52.7034L9.99875 54.2037H8.83428ZM7.81537 50.4192H6.93082V52.0428H7.81537C8.47598 52.0428 8.81189 51.7292 8.81189 51.2254C8.81189 50.7215 8.47598 50.4192 7.81537 50.4192Z" fill="white"/>
<path d="M14.8022 53.3416V54.2037H11.1968V49.5347H14.7238V50.3968H12.2717V51.4157H14.4439V52.2555H12.2717V53.3416H14.8134H14.8022Z" fill="white"/>
<path d="M19.7064 53.3416V54.2037H16.101V49.5347H19.628V50.3968H17.1759V51.4157H19.3481V52.2555H17.1759V53.3416H19.7176H19.7064Z" fill="white"/>
<path d="M25.2712 49.5347V54.2037H24.3867L22.0577 51.3709V54.2037H20.994V49.5347H21.8898L24.2075 52.3675V49.5347H25.2712Z" fill="white"/>
<path d="M26.8052 49.5347H27.8801V54.2037H26.8052V49.5347Z" fill="white"/>
<path d="M33.7024 49.5347V54.2037H32.8179L30.4889 51.3709V54.2037H29.4252V49.5347H30.321L32.6387 52.3675V49.5347H33.7024Z" fill="white"/>
<path d="M38.3939 51.7965H39.3792V53.6887C38.8642 54.0694 38.1588 54.2822 37.4982 54.2822C36.0314 54.2822 34.9565 53.2744 34.9565 51.8748C34.9565 50.4752 36.0426 49.4675 37.5206 49.4675C38.3379 49.4675 39.0209 49.7475 39.4688 50.2737L38.7746 50.9119C38.4275 50.5536 38.0356 50.3857 37.5653 50.3857C36.6584 50.3857 36.0426 50.9903 36.0426 51.8748C36.0426 52.7594 36.6584 53.364 37.5541 53.364C37.8453 53.364 38.1252 53.3192 38.3939 53.1625V51.7965Z" fill="white"/>
<path d="M44.0931 50.4192H42.6039V49.5347H46.6683V50.4192H45.1791V54.2037H44.1043V50.4192H44.0931Z" fill="white"/>
<path d="M51.9532 49.5347V54.2037H50.8783V52.3003H48.7621V54.2037H47.6873V49.5347H48.7621V51.3821H50.8783V49.5347H51.9532Z" fill="white"/>
<path d="M57.0926 53.3416V54.2037H53.4872V49.5347H57.0142V50.3968H54.5621V51.4157H56.7343V52.2555H54.5621V53.3416H57.1038H57.0926Z" fill="white"/>
<path d="M63.8555 51.7965H64.8408V53.6887C64.3257 54.0694 63.6203 54.2822 62.9597 54.2822C61.4929 54.2822 60.418 53.2744 60.418 51.8748C60.418 50.4752 61.5041 49.4675 62.9821 49.4675C63.7995 49.4675 64.4825 49.7475 64.9303 50.2737L64.2361 50.9119C63.889 50.5536 63.4972 50.3857 63.0269 50.3857C62.1199 50.3857 61.5041 50.9903 61.5041 51.8748C61.5041 52.7594 62.1199 53.364 63.0269 53.364C63.318 53.364 63.5979 53.3192 63.8667 53.1625V51.7965H63.8555Z" fill="white"/>
<path d="M66.2739 49.5347H67.3488V53.3192H69.689V54.2037H66.2739V49.5347Z" fill="white"/>
<path d="M70.3496 51.8748C70.3496 50.4864 71.4357 49.4675 72.9025 49.4675C74.3693 49.4675 75.4554 50.4864 75.4554 51.8748C75.4554 53.2633 74.3693 54.2822 72.9025 54.2822C71.4357 54.2822 70.3496 53.2521 70.3496 51.8748ZM74.3693 51.8748C74.3693 50.9903 73.7422 50.3857 72.9137 50.3857C72.0851 50.3857 71.4581 50.9903 71.4581 51.8748C71.4581 52.7594 72.0851 53.364 72.9137 53.364C73.7422 53.364 74.3693 52.7594 74.3693 51.8748Z" fill="white"/>
<path d="M80.9866 52.9273C80.9866 53.7335 80.3484 54.2037 79.1167 54.2037H76.7094V49.5347H78.9824C80.1468 49.5347 80.7515 50.0161 80.7515 50.7551C80.7515 51.2254 80.5051 51.5837 80.1356 51.7852C80.6507 51.9532 80.9866 52.3563 80.9866 52.9385V52.9273ZM77.7843 50.352V51.4493H78.8592C79.3854 51.4493 79.6766 51.2702 79.6766 50.9007C79.6766 50.5312 79.3966 50.352 78.8592 50.352H77.7843ZM79.9005 52.8265C79.9005 52.4346 79.5982 52.2443 79.0383 52.2443H77.7843V53.3976H79.0383C79.5982 53.3976 79.9005 53.2184 79.9005 52.8265Z" fill="white"/>
<path d="M85.846 53.3416V54.2037H82.2406V49.5347H85.7676V50.3968H83.3155V51.4157H85.4877V52.2555H83.3155V53.3416H85.8572H85.846Z" fill="white"/>
<path d="M88.1637 53.6104C88.1637 53.7895 88.1413 53.9127 87.9846 54.2822L87.6039 55.2451H86.9433L87.2344 54.1814C87.0217 54.103 86.8761 53.8903 86.8761 53.6104C86.8761 53.2297 87.156 52.9722 87.5255 52.9722C87.895 52.9722 88.1637 53.2297 88.1637 53.6104Z" fill="white"/>
<path d="M91.3884 51.8748C91.3884 50.464 92.4745 49.4675 93.9189 49.4675C94.725 49.4675 95.3968 49.7586 95.8335 50.2961L95.1393 50.9343C94.8258 50.576 94.4339 50.3857 93.9637 50.3857C93.0903 50.3857 92.4745 51.0015 92.4745 51.8748C92.4745 52.7482 93.0903 53.364 93.9637 53.364C94.4339 53.364 94.8258 53.1849 95.1393 52.8154L95.8335 53.4536C95.3968 53.991 94.7139 54.2822 93.9077 54.2822C92.4633 54.2822 91.3772 53.2744 91.3772 51.8748H91.3884Z" fill="white"/>
<path d="M96.6061 51.8748C96.6061 50.4864 97.6922 49.4675 99.159 49.4675C100.626 49.4675 101.712 50.4864 101.712 51.8748C101.712 53.2633 100.626 54.2822 99.159 54.2822C97.6922 54.2822 96.6061 53.2521 96.6061 51.8748ZM100.626 51.8748C100.626 50.9903 99.9988 50.3857 99.1702 50.3857C98.3416 50.3857 97.7146 50.9903 97.7146 51.8748C97.7146 52.7594 98.3416 53.364 99.1702 53.364C99.9988 53.364 100.626 52.7594 100.626 51.8748Z" fill="white"/>
<path d="M107.243 49.5347V54.2037H106.359L104.03 51.3709V54.2037H102.966V49.5347H103.862L106.179 52.3675V49.5347H107.243Z" fill="white"/>
<path d="M108.408 53.7446L108.777 52.9273C109.169 53.2072 109.751 53.4087 110.322 53.4087C110.96 53.4087 111.218 53.196 111.218 52.9049C111.218 52.0315 108.508 52.625 108.508 50.9007C108.508 50.1057 109.147 49.4451 110.479 49.4451C111.061 49.4451 111.666 49.5906 112.091 49.8593L111.755 50.6767C111.319 50.4304 110.882 50.3072 110.468 50.3072C109.83 50.3072 109.583 50.5536 109.583 50.8447C109.583 51.7068 112.293 51.1134 112.293 52.8265C112.293 53.6103 111.643 54.2709 110.322 54.2709C109.583 54.2709 108.833 54.0582 108.419 53.7335L108.408 53.7446Z" fill="white"/>
<path d="M113.413 52.1548V49.5459H114.499V52.1212C114.499 53.0057 114.879 53.3752 115.54 53.3752C116.201 53.3752 116.581 53.0057 116.581 52.1212V49.5459H117.645V52.1548C117.645 53.532 116.861 54.2934 115.54 54.2934C114.219 54.2934 113.424 53.532 113.424 52.1548H113.413Z" fill="white"/>
<path d="M119.134 49.5347H120.209V53.3192H122.549V54.2037H119.134V49.5347Z" fill="white"/>
<path d="M124.128 50.4192H122.639V49.5347H126.703V50.4192H125.214V54.2037H124.139V50.4192H124.128Z" fill="white"/>
<path d="M127.711 49.5347H128.786V54.2037H127.711V49.5347Z" fill="white"/>
<path d="M134.597 49.5347V54.2037H133.712L131.383 51.3709V54.2037H130.32V49.5347H131.216L133.533 52.3675V49.5347H134.597Z" fill="white"/>
<path d="M139.3 51.7965H140.285V53.6887C139.77 54.0694 139.064 54.2822 138.404 54.2822C136.937 54.2822 135.862 53.2744 135.862 51.8748C135.862 50.4752 136.948 49.4675 138.426 49.4675C139.244 49.4675 139.927 49.7475 140.374 50.2737L139.68 50.9119C139.333 50.5536 138.941 50.3857 138.471 50.3857C137.564 50.3857 136.948 50.9903 136.948 51.8748C136.948 52.7594 137.564 53.364 138.46 53.364C138.751 53.364 139.031 53.3192 139.3 53.1625V51.7965Z" fill="white"/>
<path d="M151.079 49.5347L149.556 54.2037H148.403L147.384 51.0462L146.32 54.2037H145.167L143.633 49.5347H144.752L145.805 52.8153L146.902 49.5347H147.899L148.962 52.8489L150.049 49.5347H151.079Z" fill="white"/>
<path d="M152.109 49.5347H153.184V54.2037H152.109V49.5347Z" fill="white"/>
<path d="M155.681 50.4192H154.191V49.5347H158.256V50.4192H156.767V54.2037H155.692V50.4192H155.681Z" fill="white"/>
<path d="M163.552 49.5347V54.2037H162.477V52.3003H160.361V54.2037H159.286V49.5347H160.361V51.3821H162.477V49.5347H163.552Z" fill="white"/>
<path d="M167.101 51.8748C167.101 50.464 168.187 49.4675 169.632 49.4675C170.438 49.4675 171.11 49.7586 171.546 50.2961L170.852 50.9343C170.539 50.576 170.147 50.3857 169.677 50.3857C168.803 50.3857 168.187 51.0015 168.187 51.8748C168.187 52.7482 168.803 53.364 169.677 53.364C170.147 53.364 170.539 53.1849 170.852 52.8154L171.546 53.4536C171.099 53.991 170.427 54.2822 169.621 54.2822C168.176 54.2822 167.09 53.2744 167.09 51.8748H167.101Z" fill="white"/>
<path d="M175.689 53.2072H173.517L173.103 54.2037H171.994L174.077 49.5347H175.141L177.223 54.2037H176.092L175.678 53.2072H175.689ZM175.353 52.3899L174.614 50.6096L173.875 52.3899H175.365H175.353Z" fill="white"/>
<path d="M181.131 54.2037L180.235 52.9049H179.239V54.2037H178.164V49.5347H180.179C181.433 49.5347 182.206 50.1841 182.206 51.2254C182.206 51.9308 181.859 52.4458 181.243 52.7034L182.295 54.2037H181.131ZM180.112 50.4192H179.227V52.0428H180.112C180.773 52.0428 181.108 51.7292 181.108 51.2254C181.108 50.7215 180.773 50.4192 180.112 50.4192Z" fill="white"/>
<path d="M187.099 53.3416V54.2037H183.493V49.5347H187.02V50.3968H184.568V51.4157H186.741V52.2555H184.568V53.3416H187.11H187.099Z" fill="white"/>
</g>
<defs>
<clipPath id="clip0_45_122">
<rect width="187.11" height="55.2339" fill="white"/>
</clipPath>
</defs>
</svg>
