<svg width="168" height="50" viewBox="0 0 168 50" fill="none" xmlns="http://www.w3.org/2000/svg">
<g clip-path="url(#clip0_55_424)">
<path d="M39.4901 14.16V3.28999C39.4901 2.72999 39.81 2.42999 40.37 2.42999H41.0201C41.4901 2.42999 41.8101 2.58999 42.0801 2.96999L47.14 9.91999V3.28999C47.14 2.72999 47.4601 2.42999 48.0201 2.42999H49.14C49.7 2.42999 50 2.73999 50 3.28999V14.17C50 14.73 49.69 15.03 49.14 15.03H48.4901C48.0401 15.03 47.7001 14.87 47.4501 14.49L42.35 7.46999V14.17C42.35 14.73 42.0401 15.03 41.4901 15.03H40.37C39.81 15.03 39.4901 14.72 39.4901 14.17V14.16Z" fill="black"/>
<path d="M52.82 14.16V3.28999C52.82 2.72999 53.14 2.42999 53.7 2.42999H54.82C55.38 2.42999 55.68 2.73999 55.68 3.28999V14.17C55.68 14.73 55.37 15.03 54.82 15.03H53.7C53.14 15.03 52.82 14.72 52.82 14.17V14.16Z" fill="black"/>
<path d="M57.79 12.51C57.56 11.97 57.84 11.59 58.4 11.45L59.17 11.27C59.67 11.14 59.94 11.36 60.23 11.83C60.64 12.5 61.44 12.95 62.5 12.95C63.72 12.95 64.53 12.41 64.53 11.58C64.53 10.95 64.04 10.45 63.09 10.12L61.45 9.53001C59.96 9.04001 58.12 7.93001 58.1 5.98001C58.1 3.68001 60.1 2.23001 62.57 2.23001C64.53 2.23001 65.92 3.09001 66.6 4.53001C66.87 5.05001 66.62 5.47001 66.08 5.63001L65.36 5.83001C64.86 5.97001 64.55 5.78001 64.24 5.34001C63.92 4.80001 63.36 4.51001 62.6 4.51001C61.7 4.51001 60.93 4.96001 60.93 5.79001C60.93 6.24001 61.13 6.73001 62.24 7.14001L63.88 7.73001C66.35 8.56001 67.26 9.85001 67.3 11.44C67.3 13.91 65.19 15.22 62.51 15.22C60.15 15.22 58.44 14.18 57.77 12.5L57.79 12.51Z" fill="black"/>
<path d="M68.07 14.04L72.28 3.10999C72.44 2.65999 72.78 2.42999 73.29 2.42999H74.57C75.07 2.42999 75.4 2.65999 75.58 3.10999L79.85 14.04C80.07 14.63 79.81 15.03 79.17 15.03H78C77.51 15.03 77.17 14.81 76.99 14.35L76.36 12.69H71.5L70.89 14.33C70.71 14.8 70.39 15.03 69.9 15.03H68.77C68.12 15.03 67.87 14.63 68.09 14.04H68.07ZM75.78 10.44L73.94 5.35999L72.05 10.44H75.78Z" fill="black"/>
<path d="M93.19 8.74C93.19 5.18 96.03 2.22 99.98 2.22C101.48 2.22 102.7 2.54 103.8 3.19C104.29 3.5 104.34 3.95 104.02 4.4L103.57 4.98C103.25 5.43 102.87 5.47 102.36 5.23C101.41 4.74 100.7 4.71 99.98 4.71C97.73 4.71 96.06 6.49 96.06 8.73C96.06 10.97 97.52 12.74 100.11 12.74C100.85 12.74 101.66 12.58 102.31 12.24V10.3H100.13C99.57 10.3 99.25 9.99 99.25 9.44V9.04C99.25 8.48 99.57 8.18 100.13 8.18H104.11C104.67 8.18 104.99 8.49 104.99 9.04V12.68C104.99 13.13 104.85 13.47 104.43 13.78C103.08 14.79 101.55 15.24 100.05 15.24C95.98 15.24 93.19 12.29 93.19 8.76V8.74Z" fill="black"/>
<path d="M86.24 10.53H84.57V14.17C84.57 14.73 84.26 15.03 83.71 15.03H82.59C82.03 15.03 81.71 14.72 81.71 14.17V3.28999C81.71 2.72999 82.03 2.42999 82.59 2.42999H87.43C90.11 2.42999 91.61 4.33999 91.61 6.62999C91.61 8.47999 90.58 9.93999 88.82 10.39C88.96 11.67 89.68 12.95 90.73 12.95C91.11 12.95 91.32 12.91 91.56 12.81C92.08 12.63 92.3 12.74 92.53 13.22L92.69 13.58C92.92 14.07 92.87 14.48 92.42 14.73C91.79 15.05 91.05 15.23 90.26 15.23C87.15 15.23 86.39 11.95 86.25 10.53H86.24ZM87.03 8.46999C88.06 8.46999 88.7 7.67999 88.7 6.66999C88.7 5.65999 88.03 4.82999 87.03 4.82999H84.56V8.46999H87.03Z" fill="black"/>
<path d="M106.09 14.04L110.3 3.10999C110.46 2.65999 110.8 2.42999 111.31 2.42999H112.59C113.09 2.42999 113.42 2.65999 113.6 3.10999L117.87 14.04C118.09 14.63 117.83 15.03 117.19 15.03H116.02C115.53 15.03 115.19 14.81 115.01 14.35L114.38 12.69H109.52L108.91 14.33C108.73 14.8 108.41 15.03 107.92 15.03H106.79C106.14 15.03 105.89 14.63 106.11 14.04H106.09ZM113.79 10.44L111.95 5.35999L110.06 10.44H113.79Z" fill="black"/>
<path d="M126.34 4.83999V7.67999H130.41C130.97 7.67999 131.27 7.98999 131.27 8.54999V9.03999C131.27 9.59999 130.96 9.91999 130.41 9.91999H126.34V12.62H131.15C131.71 12.62 132.02 12.93 132.02 13.48V14.16C132.02 14.72 131.71 15.02 131.15 15.02H124.36C123.8 15.02 123.48 14.71 123.48 14.16V3.28999C123.48 2.72999 123.8 2.42999 124.36 2.42999H131.15C131.71 2.42999 132.02 2.73999 132.02 3.28999V3.96999C132.02 4.52999 131.71 4.82999 131.15 4.82999H126.34V4.83999Z" fill="black"/>
<path d="M133.34 8.73001C133.34 5.22001 135.99 2.23001 140.25 2.23001C141.87 2.23001 143.06 2.70001 144.1 3.42001C144.55 3.73001 144.6 4.18001 144.28 4.63001L143.83 5.19001C143.51 5.64001 143.11 5.64001 142.62 5.35001C141.9 4.94001 141.04 4.72001 140.24 4.72001C137.72 4.72001 136.19 6.52001 136.19 8.74001C136.19 10.96 137.72 12.75 140.24 12.75C141.03 12.75 141.9 12.53 142.62 12.12C143.11 11.83 143.5 11.83 143.83 12.28L144.28 12.84C144.6 13.31 144.59 13.7 144.19 13.99C143.13 14.75 141.92 15.23 140.25 15.23C135.98 15.23 133.34 12.24 133.34 8.73001Z" fill="black"/>
<path d="M145.45 8.73001C145.45 5.18001 148.19 2.23001 152.13 2.23001C156.07 2.23001 158.81 5.18001 158.81 8.73001C158.81 12.28 156.07 15.23 152.13 15.23C148.19 15.23 145.45 12.28 145.45 8.73001ZM155.95 8.73001C155.95 6.50001 154.37 4.71001 152.13 4.71001C149.89 4.71001 148.33 6.49001 148.33 8.73001C148.33 10.97 149.9 12.74 152.13 12.74C154.36 12.74 155.95 10.96 155.95 8.73001Z" fill="black"/>
<path d="M38.71 28.73C38.71 25.22 41.36 22.23 45.62 22.23C47.24 22.23 48.43 22.7 49.47 23.42C49.92 23.73 49.97 24.18 49.65 24.63L49.2 25.19C48.88 25.64 48.48 25.64 47.99 25.35C47.27 24.94 46.41 24.72 45.61 24.72C43.09 24.72 41.56 26.52 41.56 28.74C41.56 30.96 43.09 32.75 45.61 32.75C46.4 32.75 47.27 32.53 47.99 32.12C48.48 31.83 48.87 31.83 49.2 32.28L49.65 32.84C49.97 33.31 49.96 33.7 49.56 33.99C48.5 34.75 47.29 35.23 45.62 35.23C41.35 35.23 38.71 32.24 38.71 28.73Z" fill="black"/>
<path d="M50.83 28.73C50.83 25.18 53.57 22.23 57.51 22.23C61.45 22.23 64.19 25.18 64.19 28.73C64.19 32.28 61.45 35.23 57.51 35.23C53.57 35.23 50.83 32.28 50.83 28.73ZM61.32 28.73C61.32 26.5 59.74 24.71 57.5 24.71C55.26 24.71 53.7 26.49 53.7 28.73C53.7 30.97 55.27 32.74 57.5 32.74C59.73 32.74 61.32 30.96 61.32 28.73Z" fill="black"/>
<path d="M66.24 34.16V23.28C66.24 22.72 66.56 22.42 67.12 22.42H67.77C68.24 22.42 68.56 22.58 68.83 22.96L73.89 29.91V23.28C73.89 22.72 74.21 22.42 74.77 22.42H75.89C76.45 22.42 76.75 22.73 76.75 23.28V34.16C76.75 34.72 76.44 35.02 75.89 35.02H75.24C74.79 35.02 74.45 34.86 74.2 34.48L69.1 27.46V34.16C69.1 34.72 68.79 35.02 68.24 35.02H67.12C66.56 35.02 66.24 34.71 66.24 34.16Z" fill="black"/>
<path d="M78.87 32.51C78.64 31.97 78.92 31.59 79.48 31.45L80.25 31.27C80.75 31.14 81.02 31.36 81.31 31.83C81.72 32.5 82.52 32.95 83.58 32.95C84.8 32.95 85.62 32.41 85.62 31.58C85.62 30.95 85.13 30.45 84.18 30.12L82.54 29.53C81.05 29.04 79.21 27.93 79.19 25.98C79.19 23.68 81.19 22.23 83.66 22.23C85.62 22.23 87.01 23.09 87.69 24.53C87.96 25.05 87.71 25.47 87.17 25.63L86.45 25.83C85.95 25.97 85.64 25.78 85.33 25.34C85.01 24.8 84.45 24.51 83.69 24.51C82.79 24.51 82.02 24.96 82.02 25.79C82.02 26.24 82.22 26.73 83.33 27.14L84.97 27.73C87.44 28.56 88.35 29.85 88.39 31.44C88.39 33.91 86.28 35.22 83.6 35.22C81.24 35.22 79.53 34.18 78.86 32.5L78.87 32.51Z" fill="black"/>
<path d="M90.26 30.26V23.29C90.26 22.73 90.58 22.43 91.14 22.43H92.26C92.82 22.43 93.12 22.74 93.12 23.29V30.26C93.12 31.9 94.2 32.74 95.48 32.74C96.76 32.74 97.86 31.89 97.86 30.26V23.29C97.86 22.73 98.18 22.43 98.74 22.43H99.86C100.42 22.43 100.72 22.74 100.72 23.29V30.26C100.72 33.5 98.33 35.23 95.48 35.23C92.63 35.23 90.26 33.5 90.26 30.26Z" fill="black"/>
<path d="M103.37 34.16V23.28C103.37 22.72 103.69 22.42 104.25 22.42H105.37C105.93 22.42 106.23 22.73 106.23 23.28V32.61H111.06C111.62 32.61 111.94 32.92 111.94 33.47V34.15C111.94 34.71 111.62 35.01 111.06 35.01H104.25C103.69 35.01 103.37 34.7 103.37 34.15V34.16Z" fill="black"/>
<path d="M121.01 23.29V23.97C121.01 24.53 120.69 24.83 120.13 24.83H117.21V34.16C117.21 34.72 116.9 35.02 116.35 35.02H115.27C114.71 35.02 114.41 34.71 114.41 34.16V24.83H111.53C110.97 24.83 110.67 24.52 110.67 23.97V23.29C110.67 22.73 110.98 22.43 111.53 22.43H120.14C120.7 22.43 121.02 22.74 121.02 23.29H121.01Z" fill="black"/>
<path d="M120.36 34.04L124.57 23.11C124.73 22.66 125.07 22.43 125.58 22.43H126.86C127.36 22.43 127.69 22.66 127.87 23.11L132.14 34.04C132.36 34.63 132.1 35.03 131.46 35.03H130.29C129.8 35.03 129.46 34.81 129.28 34.35L128.65 32.69H123.79L123.18 34.33C123 34.8 122.68 35.03 122.19 35.03H121.06C120.41 35.03 120.16 34.63 120.38 34.04H120.36ZM128.07 30.44L126.23 25.36L124.34 30.44H128.07Z" fill="black"/>
<path d="M133.97 34.16V23.28C133.97 22.72 134.29 22.42 134.85 22.42H135.5C135.97 22.42 136.29 22.58 136.56 22.96L141.62 29.91V23.28C141.62 22.72 141.94 22.42 142.5 22.42H143.62C144.18 22.42 144.48 22.73 144.48 23.28V34.16C144.48 34.72 144.17 35.02 143.62 35.02H142.97C142.52 35.02 142.18 34.86 141.93 34.48L136.84 27.46V34.16C136.84 34.72 136.53 35.02 135.98 35.02H134.86C134.3 35.02 133.98 34.71 133.98 34.16H133.97Z" fill="black"/>
<path d="M156.6 23.29V23.97C156.6 24.53 156.28 24.83 155.72 24.83H152.8V34.16C152.8 34.72 152.49 35.02 151.94 35.02H150.86C150.3 35.02 150 34.71 150 34.16V24.83H147.12C146.56 24.83 146.26 24.52 146.26 23.97V23.29C146.26 22.73 146.57 22.43 147.12 22.43H155.73C156.29 22.43 156.61 22.74 156.61 23.29H156.6Z" fill="black"/>
<path d="M157.58 32.51C157.35 31.97 157.63 31.59 158.19 31.45L158.96 31.27C159.46 31.14 159.73 31.36 160.02 31.83C160.43 32.5 161.23 32.95 162.29 32.95C163.51 32.95 164.32 32.41 164.32 31.58C164.32 30.95 163.83 30.45 162.88 30.12L161.24 29.53C159.75 29.04 157.91 27.93 157.89 25.98C157.89 23.68 159.89 22.23 162.35 22.23C164.31 22.23 165.7 23.09 166.38 24.53C166.65 25.05 166.4 25.47 165.86 25.63L165.14 25.83C164.64 25.97 164.33 25.78 164.02 25.34C163.7 24.8 163.14 24.51 162.38 24.51C161.48 24.51 160.71 24.96 160.71 25.79C160.71 26.24 160.91 26.73 162.02 27.14L163.66 27.73C166.13 28.56 167.05 29.85 167.08 31.44C167.08 33.91 164.97 35.22 162.29 35.22C159.93 35.22 158.22 34.18 157.55 32.5L157.58 32.51Z" fill="black"/>
<path d="M21.97 0C21.49 5 20.37 10.46 18.96 16.14C12.57 10.98 7.57998 5.67 6.30998 0H0.289978V39.28H8.13998C8.61998 34.28 9.73998 28.82 11.15 23.14C17.54 28.31 22.54 33.61 23.8 39.28H29.82V0H21.97Z" fill="#028E48"/>
<path d="M3.07 46.26H3.95V47.95C3.49 48.29 2.86 48.48 2.27 48.48C0.96 48.48 0 47.58 0 46.33C0 45.08 0.97 44.18 2.29 44.18C3.02 44.18 3.63 44.43 4.03 44.9L3.41 45.47C3.1 45.15 2.75 45 2.33 45C1.52 45 0.97 45.54 0.97 46.33C0.97 47.12 1.52 47.66 2.32 47.66C2.58 47.66 2.83 47.62 3.07 47.48V46.26Z" fill="#262827"/>
<path d="M7.88999 48.41L7.08999 47.25H6.19999V48.41H5.23999V44.24H7.03999C8.15999 44.24 8.84999 44.82 8.84999 45.75C8.84999 46.38 8.53999 46.84 7.98999 47.07L8.92999 48.41H7.88999ZM6.97999 45.03H6.18999V46.48H6.97999C7.56999 46.48 7.86999 46.2 7.86999 45.75C7.86999 45.3 7.56999 45.03 6.97999 45.03Z" fill="#262827"/>
<path d="M13.22 47.64V48.41H10V44.24H13.15V45.01H10.96V45.92H12.9V46.67H10.96V47.64H13.23H13.22Z" fill="#262827"/>
<path d="M17.6 47.64V48.41H14.38V44.24H17.53V45.01H15.34V45.92H17.28V46.67H15.34V47.64H17.61H17.6Z" fill="#262827"/>
<path d="M22.57 44.24V48.41H21.78L19.7 45.88V48.41H18.75V44.24H19.55L21.62 46.77V44.24H22.57Z" fill="#262827"/>
<path d="M23.94 44.24H24.9V48.41H23.94V44.24Z" fill="#262827"/>
<path d="M30.1 44.24V48.41H29.31L27.23 45.88V48.41H26.28V44.24H27.08L29.15 46.77V44.24H30.1Z" fill="#262827"/>
<path d="M34.29 46.26H35.17V47.95C34.71 48.29 34.08 48.48 33.49 48.48C32.18 48.48 31.22 47.58 31.22 46.33C31.22 45.08 32.19 44.18 33.51 44.18C34.24 44.18 34.85 44.43 35.25 44.9L34.63 45.47C34.32 45.15 33.97 45 33.55 45C32.74 45 32.19 45.54 32.19 46.33C32.19 47.12 32.74 47.66 33.54 47.66C33.8 47.66 34.05 47.62 34.29 47.48V46.26Z" fill="#262827"/>
<path d="M39.38 45.03H38.05V44.24H41.68V45.03H40.35V48.41H39.39V45.03H39.38Z" fill="#262827"/>
<path d="M46.4 44.24V48.41H45.44V46.71H43.55V48.41H42.59V44.24H43.55V45.89H45.44V44.24H46.4Z" fill="#262827"/>
<path d="M50.99 47.64V48.41H47.77V44.24H50.92V45.01H48.73V45.92H50.67V46.67H48.73V47.64H51H50.99Z" fill="#262827"/>
<path d="M57.03 46.26H57.91V47.95C57.45 48.29 56.82 48.48 56.23 48.48C54.92 48.48 53.96 47.58 53.96 46.33C53.96 45.08 54.93 44.18 56.25 44.18C56.98 44.18 57.59 44.43 57.99 44.9L57.37 45.47C57.06 45.15 56.71 45 56.29 45C55.48 45 54.93 45.54 54.93 46.33C54.93 47.12 55.48 47.66 56.29 47.66C56.55 47.66 56.8 47.62 57.04 47.48V46.26H57.03Z" fill="#262827"/>
<path d="M59.19 44.24H60.15V47.62H62.24V48.41H59.19V44.24Z" fill="#262827"/>
<path d="M62.83 46.33C62.83 45.09 63.8 44.18 65.11 44.18C66.42 44.18 67.39 45.09 67.39 46.33C67.39 47.57 66.42 48.48 65.11 48.48C63.8 48.48 62.83 47.56 62.83 46.33ZM66.42 46.33C66.42 45.54 65.86 45 65.12 45C64.38 45 63.82 45.54 63.82 46.33C63.82 47.12 64.38 47.66 65.12 47.66C65.86 47.66 66.42 47.12 66.42 46.33Z" fill="#262827"/>
<path d="M72.33 47.27C72.33 47.99 71.76 48.41 70.66 48.41H68.51V44.24H70.54C71.58 44.24 72.12 44.67 72.12 45.33C72.12 45.75 71.9 46.07 71.57 46.25C72.03 46.4 72.33 46.76 72.33 47.28V47.27ZM69.47 44.97V45.95H70.43C70.9 45.95 71.16 45.79 71.16 45.46C71.16 45.13 70.91 44.97 70.43 44.97H69.47ZM71.36 47.18C71.36 46.83 71.09 46.66 70.59 46.66H69.47V47.69H70.59C71.09 47.69 71.36 47.53 71.36 47.18Z" fill="#262827"/>
<path d="M76.67 47.64V48.41H73.45V44.24H76.6V45.01H74.41V45.92H76.35V46.67H74.41V47.64H76.68H76.67Z" fill="#262827"/>
<path d="M78.74 47.88C78.74 48.04 78.72 48.15 78.58 48.48L78.24 49.34H77.65L77.91 48.39C77.72 48.32 77.59 48.13 77.59 47.88C77.59 47.54 77.84 47.31 78.17 47.31C78.5 47.31 78.74 47.54 78.74 47.88Z" fill="#262827"/>
<path d="M81.62 46.33C81.62 45.07 82.59 44.18 83.88 44.18C84.6 44.18 85.2 44.44 85.59 44.92L84.97 45.49C84.69 45.17 84.34 45 83.92 45C83.14 45 82.59 45.55 82.59 46.33C82.59 47.11 83.14 47.66 83.92 47.66C84.34 47.66 84.69 47.5 84.97 47.17L85.59 47.74C85.2 48.22 84.59 48.48 83.87 48.48C82.58 48.48 81.61 47.58 81.61 46.33H81.62Z" fill="#262827"/>
<path d="M86.28 46.33C86.28 45.09 87.25 44.18 88.56 44.18C89.87 44.18 90.84 45.09 90.84 46.33C90.84 47.57 89.87 48.48 88.56 48.48C87.25 48.48 86.28 47.56 86.28 46.33ZM89.87 46.33C89.87 45.54 89.31 45 88.57 45C87.83 45 87.27 45.54 87.27 46.33C87.27 47.12 87.83 47.66 88.57 47.66C89.31 47.66 89.87 47.12 89.87 46.33Z" fill="#262827"/>
<path d="M95.78 44.24V48.41H94.99L92.91 45.88V48.41H91.96V44.24H92.76L94.83 46.77V44.24H95.78Z" fill="#262827"/>
<path d="M96.82 48L97.15 47.27C97.5 47.52 98.02 47.7 98.53 47.7C99.1 47.7 99.33 47.51 99.33 47.25C99.33 46.47 96.91 47 96.91 45.46C96.91 44.75 97.48 44.16 98.67 44.16C99.19 44.16 99.73 44.29 100.11 44.53L99.81 45.26C99.42 45.04 99.03 44.93 98.66 44.93C98.09 44.93 97.87 45.15 97.87 45.41C97.87 46.18 100.29 45.65 100.29 47.18C100.29 47.88 99.71 48.47 98.53 48.47C97.87 48.47 97.2 48.28 96.83 47.99L96.82 48Z" fill="#262827"/>
<path d="M101.29 46.58V44.25H102.26V46.55C102.26 47.34 102.6 47.67 103.19 47.67C103.78 47.67 104.12 47.34 104.12 46.55V44.25H105.07V46.58C105.07 47.81 104.37 48.49 103.19 48.49C102.01 48.49 101.3 47.81 101.3 46.58H101.29Z" fill="#262827"/>
<path d="M106.4 44.24H107.36V47.62H109.45V48.41H106.4V44.24Z" fill="#262827"/>
<path d="M110.86 45.03H109.53V44.24H113.16V45.03H111.83V48.41H110.87V45.03H110.86Z" fill="#262827"/>
<path d="M114.06 44.24H115.02V48.41H114.06V44.24Z" fill="#262827"/>
<path d="M120.21 44.24V48.41H119.42L117.34 45.88V48.41H116.39V44.24H117.19L119.26 46.77V44.24H120.21Z" fill="#262827"/>
<path d="M124.41 46.26H125.29V47.95C124.83 48.29 124.2 48.48 123.61 48.48C122.3 48.48 121.34 47.58 121.34 46.33C121.34 45.08 122.31 44.18 123.63 44.18C124.36 44.18 124.97 44.43 125.37 44.9L124.75 45.47C124.44 45.15 124.09 45 123.67 45C122.86 45 122.31 45.54 122.31 46.33C122.31 47.12 122.86 47.66 123.66 47.66C123.92 47.66 124.17 47.62 124.41 47.48V46.26Z" fill="#262827"/>
<path d="M134.93 44.24L133.57 48.41H132.54L131.63 45.59L130.68 48.41H129.65L128.28 44.24H129.28L130.22 47.17L131.2 44.24H132.09L133.04 47.2L134.01 44.24H134.93Z" fill="#262827"/>
<path d="M135.85 44.24H136.81V48.41H135.85V44.24Z" fill="#262827"/>
<path d="M139.04 45.03H137.71V44.24H141.34V45.03H140.01V48.41H139.05V45.03H139.04Z" fill="#262827"/>
<path d="M146.07 44.24V48.41H145.11V46.71H143.22V48.41H142.26V44.24H143.22V45.89H145.11V44.24H146.07Z" fill="#262827"/>
<path d="M149.24 46.33C149.24 45.07 150.21 44.18 151.5 44.18C152.22 44.18 152.82 44.44 153.21 44.92L152.59 45.49C152.31 45.17 151.96 45 151.54 45C150.76 45 150.21 45.55 150.21 46.33C150.21 47.11 150.76 47.66 151.54 47.66C151.96 47.66 152.31 47.5 152.59 47.17L153.21 47.74C152.81 48.22 152.21 48.48 151.49 48.48C150.2 48.48 149.23 47.58 149.23 46.33H149.24Z" fill="#262827"/>
<path d="M156.91 47.52H154.97L154.6 48.41H153.61L155.47 44.24H156.42L158.28 48.41H157.27L156.9 47.52H156.91ZM156.61 46.79L155.95 45.2L155.29 46.79H156.62H156.61Z" fill="#262827"/>
<path d="M161.77 48.41L160.97 47.25H160.08V48.41H159.12V44.24H160.92C162.04 44.24 162.73 44.82 162.73 45.75C162.73 46.38 162.42 46.84 161.87 47.07L162.81 48.41H161.77ZM160.86 45.03H160.07V46.48H160.86C161.45 46.48 161.75 46.2 161.75 45.75C161.75 45.3 161.45 45.03 160.86 45.03Z" fill="#262827"/>
<path d="M167.1 47.64V48.41H163.88V44.24H167.03V45.01H164.84V45.92H166.78V46.67H164.84V47.64H167.11H167.1Z" fill="#262827"/>
</g>
<defs>
<clipPath id="clip0_55_424">
<rect width="167.11" height="49.33" fill="white"/>
</clipPath>
</defs>
</svg>
