<svg width="44" height="44" viewBox="0 0 44 44" fill="none" xmlns="http://www.w3.org/2000/svg">
<g clip-path="url(#clip0_55_958)">
<path d="M36.6666 20.1667C36.2181 16.9407 34.7215 13.9516 32.4072 11.6598C30.0928 9.36799 27.0892 7.90063 23.859 7.48371C20.9742 7.10832 18.0427 7.58904 15.4289 8.86612C12.8151 10.1432 10.6342 12.1603 9.15747 14.6667" stroke="black" stroke-width="2.75" stroke-linecap="round" stroke-linejoin="round"/>
<path d="M7.33337 23.8334C7.75751 26.8861 9.12095 29.7312 11.2347 31.9742C13.3484 34.2172 16.1076 35.747 19.1298 36.3514C22.1519 36.9559 25.2873 36.605 28.1011 35.3475C30.9149 34.09 33.2678 31.9881 34.8334 29.3334" stroke="black" stroke-width="2.75" stroke-linecap="round" stroke-linejoin="round"/>
<path d="M33 29.3333C33 29.8196 33.1932 30.2859 33.537 30.6297C33.8808 30.9735 34.3471 31.1667 34.8333 31.1667C35.3196 31.1667 35.7859 30.9735 36.1297 30.6297C36.4735 30.2859 36.6667 29.8196 36.6667 29.3333C36.6667 28.8471 36.4735 28.3808 36.1297 28.037C35.7859 27.6932 35.3196 27.5 34.8333 27.5C34.3471 27.5 33.8808 27.6932 33.537 28.037C33.1932 28.3808 33 28.8471 33 29.3333Z" stroke="black" stroke-width="2.75" stroke-linecap="round" stroke-linejoin="round"/>
<path d="M7.33337 14.6667C7.33337 15.1529 7.52653 15.6193 7.87035 15.9631C8.21416 16.3069 8.68048 16.5 9.16671 16.5C9.65294 16.5 10.1193 16.3069 10.4631 15.9631C10.8069 15.6193 11 15.1529 11 14.6667C11 14.1805 10.8069 13.7142 10.4631 13.3703C10.1193 13.0265 9.65294 12.8334 9.16671 12.8334C8.68048 12.8334 8.21416 13.0265 7.87035 13.3703C7.52653 13.7142 7.33337 14.1805 7.33337 14.6667Z" stroke="black" stroke-width="2.75" stroke-linecap="round" stroke-linejoin="round"/>
<path d="M16.5 22C16.5 23.4587 17.0795 24.8576 18.1109 25.8891C19.1424 26.9205 20.5413 27.5 22 27.5C23.4587 27.5 24.8576 26.9205 25.8891 25.8891C26.9205 24.8576 27.5 23.4587 27.5 22C27.5 20.5413 26.9205 19.1424 25.8891 18.1109C24.8576 17.0795 23.4587 16.5 22 16.5C20.5413 16.5 19.1424 17.0795 18.1109 18.1109C17.0795 19.1424 16.5 20.5413 16.5 22Z" stroke="black" stroke-width="2.75" stroke-linecap="round" stroke-linejoin="round"/>
</g>
<defs>
<clipPath id="clip0_55_958">
<rect width="44" height="44" fill="white"/>
</clipPath>
</defs>
</svg>
