<svg width="44" height="44" viewBox="0 0 44 44" fill="none" xmlns="http://www.w3.org/2000/svg">
<g clip-path="url(#clip0_55_815)">
<path d="M12.8334 33C10.5459 33 8.35208 32.1308 6.73458 30.5836C5.11708 29.0365 4.20837 26.938 4.20837 24.75C4.20837 22.562 5.11708 20.4636 6.73458 18.9164C8.35208 17.3692 10.5459 16.5 12.8334 16.5C13.3736 14.0932 14.9541 11.9781 17.2271 10.62C18.3526 9.94754 19.6142 9.48118 20.94 9.24755C22.2657 9.01392 23.6296 9.01759 24.9537 9.25835C26.2779 9.4991 27.5364 9.97223 28.6574 10.6507C29.7784 11.3292 30.7399 12.1998 31.4871 13.2127C32.2343 14.2256 32.7524 15.3611 33.012 16.5543C33.2716 17.7474 33.2675 18.9749 33 20.1667H34.8334C36.5352 20.1667 38.1673 20.8427 39.3706 22.0461C40.574 23.2494 41.25 24.8815 41.25 26.5833C41.25 28.2852 40.574 29.9173 39.3706 31.1206C38.1673 32.324 36.5352 33 34.8334 33" stroke="black" stroke-width="2.75" stroke-linecap="round" stroke-linejoin="round"/>
<path d="M20.1666 23.8333V27.5M20.1666 33V36.6667M27.5 27.5V31.1667M27.5 36.6667V40.3333" stroke="black" stroke-width="2.75" stroke-linecap="round" stroke-linejoin="round"/>
</g>
<defs>
<clipPath id="clip0_55_815">
<rect width="44" height="44" fill="white"/>
</clipPath>
</defs>
</svg>
