<svg width="44" height="44" viewBox="0 0 44 44" fill="none" xmlns="http://www.w3.org/2000/svg">
<g clip-path="url(#clip0_55_830)">
<path d="M22 31.1667L18.3334 34.8334L22 38.5" stroke="black" stroke-width="2.75" stroke-linecap="round" stroke-linejoin="round"/>
<path d="M18.3334 34.8333H34.8334C35.4175 34.8032 35.9859 34.6338 36.4912 34.3392C36.9965 34.0447 37.424 33.6335 37.738 33.1401C38.052 32.6466 38.2434 32.0852 38.2963 31.5027C38.3491 30.9202 38.2618 30.3335 38.0417 29.7916L37.0334 27.9583" stroke="black" stroke-width="2.75" stroke-linecap="round" stroke-linejoin="round"/>
<path d="M15.6494 20.1667L14.3074 15.158L9.29871 16.5" stroke="black" stroke-width="2.75" stroke-linecap="round" stroke-linejoin="round"/>
<path d="M14.3074 15.158L6.05739 29.447C5.79163 29.9678 5.65427 30.5446 5.65677 31.1293C5.65927 31.714 5.80155 32.2896 6.07175 32.8081C6.34195 33.3266 6.73223 33.773 7.21002 34.11C7.68782 34.447 8.23928 34.6648 8.81839 34.7454L10.9102 34.7894" stroke="black" stroke-width="2.75" stroke-linecap="round" stroke-linejoin="round"/>
<path d="M28.3507 20.1667L33.3594 21.5087L34.7014 16.5" stroke="black" stroke-width="2.75" stroke-linecap="round" stroke-linejoin="round"/>
<path d="M33.3594 21.5086L25.1094 7.21964C24.7911 6.72911 24.3601 6.3218 23.8525 6.03171C23.3448 5.74162 22.7751 5.57715 22.1909 5.55203C21.6067 5.52691 21.025 5.64187 20.4942 5.88731C19.9635 6.13276 19.4992 6.50157 19.14 6.96297L18.0565 8.75231" stroke="black" stroke-width="2.75" stroke-linecap="round" stroke-linejoin="round"/>
</g>
<defs>
<clipPath id="clip0_55_830">
<rect width="44" height="44" fill="white"/>
</clipPath>
</defs>
</svg>
