<svg width="44" height="44" viewBox="0 0 44 44" fill="none" xmlns="http://www.w3.org/2000/svg">
<g clip-path="url(#clip0_55_967)">
<path d="M7.33337 38.5C9.43621 31.13 10.9689 23.7838 11 16.5H22C22.0312 23.7838 23.5639 31.13 25.6667 38.5" stroke="black" stroke-width="2.75" stroke-linecap="round" stroke-linejoin="round"/>
<path d="M22.9166 23.8334H31.1666C31.2125 28.622 32.8056 33.5427 34.8333 38.5" stroke="black" stroke-width="2.75" stroke-linecap="round" stroke-linejoin="round"/>
<path d="M16.5 9.1667C16.9165 8.58646 17.4679 8.11633 18.1068 7.79692C18.7456 7.4775 19.4526 7.3184 20.1667 7.33336C20.8807 7.3184 21.5877 7.4775 22.2266 7.79692C22.8654 8.11633 23.4169 8.58646 23.8333 9.1667C24.2498 9.74693 24.8013 10.2171 25.4401 10.5365C26.0789 10.8559 26.7859 11.015 27.5 11C28.2141 11.015 28.9211 10.8559 29.5599 10.5365C30.1987 10.2171 30.7502 9.74693 31.1667 9.1667C31.5831 8.58646 32.1346 8.11633 32.7734 7.79692C33.4123 7.4775 34.1193 7.3184 34.8333 7.33336C35.5474 7.3184 36.2544 7.4775 36.8932 7.79692C37.5321 8.11633 38.0835 8.58646 38.5 9.1667" stroke="black" stroke-width="2.75" stroke-linecap="round" stroke-linejoin="round"/>
<path d="M5.5 38.5H40.3333" stroke="black" stroke-width="2.75" stroke-linecap="round" stroke-linejoin="round"/>
</g>
<defs>
<clipPath id="clip0_55_967">
<rect width="44" height="44" fill="white"/>
</clipPath>
</defs>
</svg>
