<?xml version="1.0" encoding="utf-8" ?>
<svg xmlns="http://www.w3.org/2000/svg" xmlns:xlink="http://www.w3.org/1999/xlink" width="1024" height="1024">
	<path fill="#42B6C1" d="M0 -0L1024 0L1024 1024L-0 1024L0 -0Z"/>
	<path fill="#D0E732" d="M762.991 103.434L763.9 103.568L782.217 133.292L771.896 139.341C769.742 138.089 767.306 132.747 765.927 130.5L752.688 109.118L762.991 103.434Z"/>
	<path fill="#D0E732" d="M720.614 140.149L752.368 158.181L746.468 168.88L714.837 152.168C715.366 148.27 718.673 143.539 720.614 140.149Z"/>
	<path fill="#D0E732" d="M883.857 197.789L884.324 195.75C887.402 194.856 891.663 195.414 894.945 195.409L921.153 195.34C921.132 198.424 921.963 205.155 920.571 207.661L917.906 207.9L884.076 207.952L883.905 198.374L883.857 197.789Z"/>
	<path fill="#D0E732" d="M860.782 101.513L872.012 107.948L854.722 138.798C854.398 138.869 854.078 139.064 853.75 139.013C853.287 138.941 851.45 137.465 850.943 137.14C848.659 135.678 846.226 134.435 843.832 133.165L860.782 101.513Z"/>
	<path fill="#D0E732" d="M814.601 91.25L818 91.1426L818.638 91.75L818.589 127.297L808.875 127.334L806.173 127.25C804.995 125.619 805.606 120.752 805.6 118.708L805.742 91.4002L814.601 91.25Z"/>
	<path fill="#D0E732" d="M902.229 138.442L903.158 138.652C905.539 141.153 908.6 145.444 909.988 148.6L879.472 168.272L871.819 157.27L902.229 138.442Z"/>
	<path fill="#0DC4C2" d="M497.874 902.873L497.96 939.595L416.521 939.909L255.676 939.494L145.015 939.537L110.587 939.495C105.028 939.486 99.1832 939.832 93.6549 939.411C90.2644 939.153 88.8908 938.624 86.4452 936.312C83.4178 933.45 82.9935 930.149 82.9297 926.197L82.9808 904.076L243.596 904.056L243.802 904.614C241.956 908.545 243.634 916.9 243.646 921.396L243.213 938.772C246.264 939.224 251.184 938.98 254.318 938.715L256.625 938.625C263.357 939.083 270.324 938.747 277.09 938.743L299.955 939.03C304.502 939.022 309.216 938.321 313.75 938.755C315.566 938.929 317.217 938.766 319 938.878C326.592 939.35 334.484 938.291 342 938.878C349.465 939.46 358.05 939.357 365.5 938.878C372.075 938.454 378.915 938.683 385.5 938.878L386.75 939C389.905 938.832 393.067 938.574 396.25 938.755C397.809 938.844 399.466 938.622 400.982 938.87C404.009 939.364 406.992 938.77 409.988 938.739L426.249 938.725L491.25 938.871L495.782 938.939L496.25 939C497.417 938.5 497 938.917 497.5 937.75C497.319 936.399 497.37 934.869 497.377 933.5L497.5 931.75L497.255 930.25C497.253 928.493 497.502 926.824 497.377 925L497.255 923.25L497.377 907.5C497.354 906.01 497.459 904.846 497.765 903.378L497.874 902.873Z"/>
	<path fill="#D7E6E8" d="M498.118 305.804L498.12 138.457L466.008 138.496L511.88 81.8605L558.091 138.581L525.48 138.655L525.977 305.908L526.375 939.395C517.498 938.248 507.446 939.143 498.449 939.182L498.095 378.829L498.118 305.804Z"/>
	<path fill="#0CA0A5" d="M154.968 282.73L197.966 282.639L211.819 282.646C215.008 282.648 218.139 282.495 221.25 283.306L223.339 283.859C225.445 284.21 227.509 284.602 229.65 284.623L226.248 285.252L226.733 285.959C227.893 287.676 228.598 289.659 229.75 291.361C230.664 292.712 232.654 294.65 233.005 296.187C233.398 297.915 233.01 300.794 233.001 302.615L232.49 321.527L231.627 372.095L231.906 393.03C232.018 395.663 231.879 398.537 232.264 401.121L234 401.25L234.5 400.755C236.56 400.755 239.5 400.296 241.25 401.255L242.5 401.75L242.75 400.405L243.403 403.283C244.295 405.083 245.21 406.683 246.421 408.287L246.287 432.055L261.231 432.043C262.738 432.043 265.553 431.686 266.857 432.328L335.485 432.47L335.447 441.737L246.42 441.58L139.834 442.007L139.563 669.738C136.751 669.422 133.675 669.7 130.836 669.755L117.186 669.965C112.951 669.973 109.498 669.629 105.635 671.608C105.164 667.908 105.521 663.74 105.524 659.994L105.548 637.069L105.842 555.978L104.961 304.008L121.461 304.086C121.446 299.246 120.09 289.114 123.525 285.501C124.444 284.534 125.413 283.832 126.698 283.451C129.805 282.531 133.644 282.907 136.878 282.893L154.968 282.73Z"/>
	<path fill="#42B6C1" d="M335.485 432.47L335.447 441.737L246.42 441.58L139.834 442.007L139.563 669.738C136.751 669.422 133.675 669.7 130.836 669.755L130.873 432.534L266.857 432.328L335.485 432.47Z"/>
	<path fill="#F58C28" d="M154.968 282.73L197.966 282.639L211.819 282.646C215.008 282.648 218.139 282.495 221.25 283.306L223.339 283.859C225.445 284.21 227.509 284.602 229.65 284.623L226.248 285.252L226.733 285.959C227.893 287.676 228.598 289.659 229.75 291.361C230.664 292.712 232.654 294.65 233.005 296.187C233.398 297.915 233.01 300.794 233.001 302.615L232.49 321.527L231.627 372.095L231.906 393.03C232.018 395.663 231.879 398.537 232.264 401.121C231.678 403.288 230.865 404.902 229.288 406.526C227.121 408.758 225.124 409.47 222.032 409.556L162.555 409.698C151.691 409.725 140.263 410.698 129.478 409.874C127.977 409.759 126.634 409.355 125.568 408.25C120.982 403.493 122.113 396.141 122.444 390.119C120.988 386.099 121.425 381.672 121.404 377.438L121.378 357.256L121.461 304.086C121.446 299.246 120.09 289.114 123.525 285.501C124.444 284.534 125.413 283.832 126.698 283.451C129.805 282.531 133.644 282.907 136.878 282.893L154.968 282.73Z"/>
	<path fill="#C82C2A" d="M156.377 367.838L161.127 368.004C166.121 368.576 171.965 368.569 176.969 368.108L181.949 368.058L197.52 368.027C198.408 369.282 198.227 371.94 198.355 373.516L155.913 373.775C153.006 373.794 144.489 374.742 142.191 373.339L142.046 369C143.882 367.394 152.16 368.775 155.138 368.268L155.966 368.115L156.377 367.838Z"/>
	<path fill="#F6F3F3" d="M155.966 368.115L141.039 368.07L140.983 335.644L156.283 335.708L156.377 367.838L155.966 368.115Z"/>
	<path fill="#F6F3F3" d="M161.127 368.004L161.416 315.224L176.987 315.276L176.969 368.108C171.965 368.569 166.121 368.576 161.127 368.004Z"/>
	<path fill="#F6F3F3" d="M181.949 368.058L181.964 303.136L197.06 303.122L197.112 347.951L197.121 360.511C197.127 362.957 196.869 365.663 197.52 368.027L181.949 368.058Z"/>
	<defs>
		<linearGradient id="gradient_0" gradientUnits="userSpaceOnUse" x1="184.17906" y1="412.68634" x2="171.82362" y2="298.11185">
			<stop offset="0" stop-color="#10555E"/>
			<stop offset="1" stop-color="#076B7D"/>
		</linearGradient>
	</defs>
	<path fill="url(#gradient_0)" d="M223.339 283.859C225.445 284.21 227.509 284.602 229.65 284.623L226.248 285.252L226.733 285.959C227.893 287.676 228.598 289.659 229.75 291.361C230.664 292.712 232.654 294.65 233.005 296.187C233.398 297.915 233.01 300.794 233.001 302.615L232.49 321.527L231.627 372.095L231.906 393.03C232.018 395.663 231.879 398.537 232.264 401.121C231.678 403.288 230.865 404.902 229.288 406.526C227.121 408.758 225.124 409.47 222.032 409.556L162.555 409.698C151.691 409.725 140.263 410.698 129.478 409.874C127.977 409.759 126.634 409.355 125.568 408.25C120.982 403.493 122.113 396.141 122.444 390.119C124.593 392.092 126.677 393.747 129.693 393.996C135.287 394.456 141.278 394.066 146.916 394.075L182.803 394.106L207.627 394.11C211.598 394.114 216.062 394.522 219.985 393.992C221.496 393.788 223.196 392.994 224.302 391.96C226.129 390.25 226.871 388.367 227.28 385.936C227.789 382.912 227.422 379.202 227.424 376.107L227.403 356.797L227.432 291.534C227.412 288.212 225.605 286.076 223.339 283.859Z"/>
	<path fill="#0CA0A5" d="M154.968 282.73L155.917 252.491L156.64 244.433C156.726 243.773 157.196 241.962 157.075 241.392C156.512 238.727 152.324 234.277 150.858 231.597C143.639 218.403 139.023 202.339 138.495 187.276C137.516 159.294 147.824 132.721 167.065 112.442C181.812 96.9002 201.59 85.8737 222.75 82.1429C229.569 80.9406 236.541 80.6764 243.449 80.4756C249.821 80.9422 256.216 81.3651 262.486 82.67C282.502 86.8358 302.38 97.9426 315.896 113.357C335.14 135.305 344.678 163.778 342.592 192.889C341.665 205.824 338.508 218.644 332.407 230.138C329.765 235.118 325.99 240.039 324.668 245.582C323.596 250.075 323.995 255.117 323.991 259.716L324.014 282.92L290.526 282.836L266.834 282.754C261.427 282.749 252.876 281.725 248.124 284.411L243.823 284.494C242.466 289.43 243.39 296.528 243.404 301.689L243.934 348.236L243.403 403.283L242.75 400.405L242.5 401.75L241.25 401.255C239.5 400.296 236.56 400.755 234.5 400.755L234 401.25L232.264 401.121C231.879 398.537 232.018 395.663 231.906 393.03L231.627 372.095L232.49 321.527L233.001 302.615C233.01 300.794 233.398 297.915 233.005 296.187C232.654 294.65 230.664 292.712 229.75 291.361C228.598 289.659 227.893 287.676 226.733 285.959L226.248 285.252L229.65 284.623C227.509 284.602 225.445 284.21 223.339 283.859L221.25 283.306C218.139 282.495 215.008 282.648 211.819 282.646L197.966 282.639L154.968 282.73Z"/>
	<path fill="#F6F3F3" d="M243.589 252.09L236.379 252.013C219.119 251.563 200.673 242.602 188.947 230.053C176.029 216.231 168.64 196.441 169.55 177.52C170.446 158.892 178.686 141.643 192.567 129.161C205.981 117.099 225.544 109.88 243.556 110.918L243.49 128.516C243.49 131.18 243.148 134.389 243.538 137C243.675 137.915 244.238 138.625 244.842 139.296L245.253 139.704L247.046 137.591L247.691 138L244.624 164.412C244.352 167.196 243.52 171.204 244.137 173.818L280.197 173.84L254.929 209.631C251.02 215.499 246.767 221.298 243.38 227.484C243.918 231.439 243.654 235.538 243.631 239.526L243.589 252.09Z"/>
	<path fill="#F9BF06" d="M245.253 139.704L247.046 137.591L247.691 138L244.624 164.412C244.352 167.196 243.52 171.204 244.137 173.818L280.197 173.84L254.929 209.631C251.02 215.499 246.767 221.298 243.38 227.484L234.839 241.205L237.168 204.784C237.327 201.272 238.241 195.469 237.364 192.167L204.881 191.451L232.361 157.169C236.603 151.738 241.342 146.353 244.845 140.408L245.253 139.704Z"/>
	<path fill="#0C8F91" d="M243.449 80.4756C249.821 80.9422 256.216 81.3651 262.486 82.67C282.502 86.8358 302.38 97.9426 315.896 113.357C335.14 135.305 344.678 163.778 342.592 192.889C341.665 205.824 338.508 218.644 332.407 230.138C329.765 235.118 325.99 240.039 324.668 245.582C323.596 250.075 323.995 255.117 323.991 259.716L324.014 282.92L290.526 282.836L266.834 282.754C261.427 282.749 252.876 281.725 248.124 284.411L243.823 284.494C242.466 289.43 243.39 296.528 243.404 301.689L243.934 348.236L243.403 403.283L242.75 400.405L242.5 401.75L241.25 401.255C239.5 400.296 236.56 400.755 234.5 400.755L234 401.25L232.264 401.121C231.879 398.537 232.018 395.663 231.906 393.03L231.627 372.095L232.49 321.527L233.001 302.615C233.01 300.794 233.398 297.915 233.005 296.187C232.654 294.65 230.664 292.712 229.75 291.361C228.598 289.659 227.893 287.676 226.733 285.959L226.248 285.252L229.65 284.623L243.559 284.376L243.589 252.09L243.631 239.526C243.654 235.538 243.918 231.439 243.38 227.484C246.767 221.298 251.02 215.499 254.929 209.631L280.197 173.84L244.137 173.818C243.52 171.204 244.352 167.196 244.624 164.412L247.691 138L247.046 137.591L245.253 139.704L244.842 139.296C244.238 138.625 243.675 137.915 243.538 137C243.148 134.389 243.49 131.18 243.49 128.516L243.556 110.918L243.449 80.4756Z"/>
	<path fill="#D7E6E8" d="M243.556 110.918C264.858 113.243 282.653 121.162 296.33 138.213C308.112 152.9 313.431 171.795 311.3 190.5C309.082 209.973 298.911 226.729 283.637 238.734C272.592 247.414 257.525 251.895 243.589 252.09L243.631 239.526C243.654 235.538 243.918 231.439 243.38 227.484C246.767 221.298 251.02 215.499 254.929 209.631L280.197 173.84L244.137 173.818C243.52 171.204 244.352 167.196 244.624 164.412L247.691 138L247.046 137.591L245.253 139.704L244.842 139.296C244.238 138.625 243.675 137.915 243.538 137C243.148 134.389 243.49 131.18 243.49 128.516L243.556 110.918Z"/>
	<path fill="#0C8F91" d="M346.692 306.063L382.598 306.046L382.538 198.912L462.173 198.532L462.352 306.014L498.118 305.804L498.095 378.829L497.874 902.873L497.765 903.378C497.459 904.846 497.354 906.01 497.377 907.5L497.255 923.25L497.377 925C497.502 926.824 497.253 928.493 497.255 930.25L497.5 931.75L497.377 933.5C497.37 934.869 497.319 936.399 497.5 937.75C497 938.917 497.417 938.5 496.25 939L495.782 938.939L491.25 938.871L426.249 938.725L409.988 938.739C406.992 938.77 404.009 939.364 400.982 938.87C399.466 938.622 397.809 938.844 396.25 938.755C393.067 938.574 389.905 938.832 386.75 939L385.5 938.878C378.915 938.683 372.075 938.454 365.5 938.878C358.05 939.357 349.465 939.46 342 938.878C334.484 938.291 326.592 939.35 319 938.878C317.217 938.766 315.566 938.929 313.75 938.755C309.216 938.321 304.502 939.022 299.955 939.03L277.09 938.743C270.324 938.747 263.357 939.083 256.625 938.625L254.318 938.715C251.184 938.98 246.264 939.224 243.213 938.772L243.646 921.396C243.634 916.9 241.956 908.545 243.802 904.614L243.596 904.056L82.9808 904.076L82.9967 890.181C82.9851 887.791 82.6742 884.7 83.2313 882.389C83.4679 881.408 84.122 880.46 84.8195 879.748C87.8812 876.622 97.9069 877.959 102.124 878.014L102.127 819.698L102.249 725.325L102.158 691.162C102.152 686.989 101.298 680.067 102.531 676.151C102.966 674.766 104.723 672.808 105.635 671.608C109.498 669.629 112.951 669.973 117.186 669.965L130.836 669.755C133.675 669.7 136.751 669.422 139.563 669.738L139.834 442.007L246.42 441.58L335.447 441.737L335.485 432.47L266.857 432.328C265.553 431.686 262.738 432.043 261.231 432.043L246.287 432.055L246.421 408.287C245.21 406.683 244.295 405.083 243.403 403.283L243.934 348.236L243.404 301.689C243.39 296.528 242.466 289.43 243.823 284.494L248.124 284.411C252.876 281.725 261.427 282.749 266.834 282.754L290.526 282.836L324.014 282.92L334.396 282.969C335.852 282.98 337.897 282.732 339.303 283.05C340.364 283.29 341.83 284.665 342.579 285.417C347.25 290.105 345.982 299.702 346.09 305.91L346.692 306.063Z"/>
	<path fill="#F6F3F3" d="M335.485 432.47C335.478 429.793 334.956 426.269 336.475 423.98L337.75 423.283C340.953 424.559 343.935 426.792 346.838 428.643C350.479 430.965 354.6 433.212 357.695 436.235C353.859 440.33 348.533 443.147 343.776 446.074C341.936 447.206 339.819 448.822 337.75 449.409C336.691 448.743 335.882 448.027 335.644 446.75L335.447 441.737L335.485 432.47Z"/>
	<path fill="#F9BF06" d="M240.091 517.837L259.608 517.722C263.025 517.655 267.246 517.104 270.593 517.694C271.734 517.895 272.939 518.588 273.785 519.363C277.885 523.119 276.466 531.104 276.469 536.18L276.446 551.102L239.912 551.094L240.091 517.837Z"/>
	<path fill="#1E4B51" d="M243.823 284.494L248.124 284.411C246.531 286.599 245.093 288.398 244.717 291.164C244.186 295.07 244.648 299.596 244.687 303.553L244.888 329.214L244.971 367.393C244.981 373.003 244.317 379.451 245.164 384.955C245.595 387.757 246.905 391.175 249.266 392.912C253.495 396.023 263.828 394.716 269.048 394.715C274.422 394.715 279.93 394.96 285.289 394.678L319.435 394.922C324.746 394.921 331.63 395.691 336.75 394.527C338.902 394.038 340.804 392.912 342.383 391.382C343.863 389.948 345.199 387.767 345.51 385.71C345.92 383.006 345.761 379.998 345.812 377.264L345.974 360.098L346.09 305.91L346.692 306.063C346.944 306.376 347.329 306.617 347.447 307C347.67 307.73 347.462 309.5 347.467 310.313L347.506 317.851L347.605 359.75L347.989 387.624C348.022 391.937 348.308 396.455 347.954 400.75C347.871 401.757 347.627 402.567 347.25 403.491L347.021 404.062C346.079 406.207 343.65 408.576 341.415 409.319C336.474 410.962 328.522 409.983 323.243 409.985L289.492 409.957L264.725 409.995C260.46 409.994 255.989 410.251 251.755 409.905C249.848 409.749 248.101 409.181 246.421 408.287C245.21 406.683 244.295 405.083 243.403 403.283L243.934 348.236L243.404 301.689C243.39 296.528 242.466 289.43 243.823 284.494Z"/>
	<path fill="#D84D42" d="M248.124 284.411C252.876 281.725 261.427 282.749 266.834 282.754L290.526 282.836L290.533 306.16C280.482 307.704 272.585 311.43 266.461 319.769C261.527 326.487 258.447 335.538 259.678 343.887C260.757 351.205 264.541 357.875 269.045 363.609C272.794 370.148 278.328 374.269 285.196 377.222C287.099 378.04 289.168 378.474 290.949 379.539L290.747 389.156C290.738 390.858 290.954 392.775 290.417 394.394L285.289 394.678C279.93 394.96 274.422 394.715 269.048 394.715C263.828 394.716 253.495 396.023 249.266 392.912C246.905 391.175 245.595 387.757 245.164 384.955C244.317 379.451 244.981 373.003 244.971 367.393L244.888 329.214L244.687 303.553C244.648 299.596 244.186 295.07 244.717 291.164C245.093 288.398 246.531 286.599 248.124 284.411Z"/>
	<path fill="#FAD922" d="M239.912 551.094L276.446 551.102L276.375 557.768L276.113 616.377L276.043 616.882L276.122 623.914L239.947 623.895L204.535 623.956L204.511 616.943L204.544 557.632L204.529 551.068L239.912 551.094Z"/>
	<path fill="#F6F3F3" d="M239.912 551.094L276.446 551.102L276.375 557.768L241.962 557.769L204.544 557.632L204.529 551.068L239.912 551.094Z"/>
	<path fill="#F6F3F3" d="M204.511 616.943L276.043 616.882L276.122 623.914L239.947 623.895L204.535 623.956L204.511 616.943Z"/>
	<path fill="#F9BF06" d="M241.962 557.769L276.375 557.768L276.113 616.377L239.896 616.617L239.956 558.25L241.962 557.769Z"/>
	<path fill="#C82C2A" d="M324.014 282.92L334.396 282.969C335.852 282.98 337.897 282.732 339.303 283.05C340.364 283.29 341.83 284.665 342.579 285.417C347.25 290.105 345.982 299.702 346.09 305.91L345.974 360.098L345.812 377.264C345.761 379.998 345.92 383.006 345.51 385.71C345.199 387.767 343.863 389.948 342.383 391.382C340.804 392.912 338.902 394.038 336.75 394.527C331.63 395.691 324.746 394.921 319.435 394.922L285.289 394.678L290.417 394.394C290.954 392.775 290.738 390.858 290.747 389.156L290.949 379.539C289.168 378.474 287.099 378.04 285.196 377.222C278.328 374.269 272.794 370.148 269.045 363.609C264.541 357.875 260.757 351.205 259.678 343.887C258.447 335.538 261.527 326.487 266.461 319.769C272.585 311.43 280.482 307.704 290.533 306.16L290.526 282.836L324.014 282.92Z"/>
	<path fill="#90C238" d="M292.529 306.167C302.692 306.504 311.646 308.624 318.956 316.25C321.007 318.389 322.878 320.844 324.122 323.544L323.689 324.75L322 324.553C320.771 325.733 319.867 327.046 318.898 328.442C316.37 325.404 313.355 322.632 310.566 319.816C307.111 316.327 303.538 312.43 299.373 309.787L298.75 309.405C296.421 307.952 294.434 307.385 291.769 306.808L292.529 306.167Z"/>
	<path fill="#990F02" d="M324.122 323.544L324.413 323.465C329.802 328.406 331.952 337.841 332.211 344.835C332.56 354.242 328.282 363.792 322.004 370.67C316.346 376.87 305.779 380.265 297.624 380.4C295.503 380.435 292.967 380.198 290.949 379.539C289.168 378.474 287.099 378.04 285.196 377.222C278.328 374.269 272.794 370.148 269.045 363.609C275.693 368.749 281.581 372.294 290.012 373.701C293.357 373.984 296.67 373.882 300 373.44C308.833 372.268 316.828 366.87 322.142 359.846C328.173 351.875 328.694 342.929 327.404 333.431L326.695 333.428C323.228 333.285 321.048 330.985 318.898 328.442C319.867 327.046 320.771 325.733 322 324.553L323.689 324.75L324.122 323.544Z"/>
	<path fill="#39A833" d="M324.122 323.544L324.413 323.465L327.404 333.431L326.695 333.428C323.228 333.285 321.048 330.985 318.898 328.442C319.867 327.046 320.771 325.733 322 324.553L323.689 324.75L324.122 323.544Z"/>
	<path fill="#3E8511" d="M290.533 306.16L292.529 306.167L291.769 306.808C294.434 307.385 296.421 307.952 298.75 309.405L299.373 309.787C303.538 312.43 307.111 316.327 310.566 319.816C313.355 322.632 316.37 325.404 318.898 328.442C321.048 330.985 323.228 333.285 326.695 333.428L327.404 333.431C328.694 342.929 328.173 351.875 322.142 359.846C316.828 366.87 308.833 372.268 300 373.44C296.67 373.882 293.357 373.984 290.012 373.701C281.581 372.294 275.693 368.749 269.045 363.609C264.541 357.875 260.757 351.205 259.678 343.887C258.447 335.538 261.527 326.487 266.461 319.769C272.585 311.43 280.482 307.704 290.533 306.16Z"/>
	<path fill="#90C238" d="M290.533 306.16L292.529 306.167L291.769 306.808L291.05 307.5C290.914 316.267 291.518 325.433 290.458 334.127L291.461 338.998L291.874 338.754C293.541 337.747 294.853 336.57 296.25 335.223C297.444 335.549 297.369 335.684 298.041 336.75C297.51 339.037 295.604 339.783 294.315 341.6C294.019 344.898 292.249 346.482 290.024 348.858L290.012 373.701C281.581 372.294 275.693 368.749 269.045 363.609C264.541 357.875 260.757 351.205 259.678 343.887C258.447 335.538 261.527 326.487 266.461 319.769C272.585 311.43 280.482 307.704 290.533 306.16Z"/>
	<path fill="#F6F3F3" d="M294.315 341.6L285.828 351.15C281.024 344.226 273.937 338.744 268.832 331.867C269.145 330.787 271.185 329.419 272.095 328.635C274.494 330.617 276.611 333.237 278.748 335.515C281.202 332.946 284.294 329.609 287.5 328.082C288.442 328.666 288.588 328.773 289.095 329.75L288.358 330.991L281.787 337.543L286.332 341.435L286.853 341.038C288.416 339.866 289.454 339.029 291.461 338.998L291.874 338.754C293.541 337.747 294.853 336.57 296.25 335.223C297.444 335.549 297.369 335.684 298.041 336.75C297.51 339.037 295.604 339.783 294.315 341.6Z"/>
	<path fill="#FAD922" d="M239.947 623.895L276.122 623.914L276.06 682.87L275.99 683.367L276.051 690.008L276.052 749.381L239.884 749.199L204.772 749.097L204.736 690.016L204.686 683.461L204.535 623.956L239.947 623.895Z"/>
	<path fill="#F6F3F3" d="M204.686 683.461L275.99 683.367L276.051 690.008L239.968 690.011L204.736 690.016L204.686 683.461Z"/>
	<path fill="#F9BF06" d="M239.947 623.895L276.122 623.914L276.06 682.87L239.907 682.954L239.947 623.895Z"/>
	<path fill="#F9BF06" d="M239.968 690.011L276.051 690.008L276.052 749.381L239.884 749.199L204.772 749.097L204.736 690.016L239.968 690.011Z"/>
	<path fill="#FAD922" d="M204.736 690.016L239.968 690.011L239.884 749.199L204.772 749.097L204.736 690.016Z"/>
	<path fill="#90C238" d="M239.884 749.199L276.052 749.381L276.038 755.853L276.036 814.669L276.045 821.093L275.992 877.909L299.592 877.753C307.049 878.65 315.103 878.035 322.625 878.038L374.494 877.908C375.582 877.914 375.147 877.999 375.905 877.762L401.067 877.703L480.14 877.867C483.156 878.133 485.179 878.768 487.585 880.676C488.716 881.573 489.492 882.623 490.366 883.75L490.725 884.184C492.496 886.483 491.812 894.513 491.311 897.434C490.984 899.339 489.576 900.986 488.021 902.071C486.568 903.085 484.776 903.818 483 903.936C475.601 904.426 467.874 903.992 460.443 903.998L415.015 904.037L303.921 904.064L243.596 904.056L82.9808 904.076L82.9967 890.181C82.9851 887.791 82.6742 884.7 83.2313 882.389C83.4679 881.408 84.122 880.46 84.8195 879.748C87.8812 876.622 97.9069 877.959 102.124 878.014L180.96 877.721L204.463 877.815L204.634 820.911L204.635 814.458L204.781 755.941L204.772 749.097L239.884 749.199Z"/>
	<path fill="#FAD922" d="M204.635 814.458L239.837 814.574L276.036 814.669L276.045 821.093L275.992 877.909L239.854 878.034L213.544 878.09C211.238 878.095 206.694 878.71 204.827 877.812L204.964 821.037L204.634 820.911L204.635 814.458Z"/>
	<path fill="#F6F3F3" d="M204.635 814.458L239.837 814.574L276.036 814.669L276.045 821.093L262.268 821.103L204.964 821.037L204.634 820.911L204.635 814.458Z"/>
	<path fill="#F9BF06" d="M262.268 821.103L276.045 821.093L275.992 877.909L239.854 878.034L239.747 821.409C246.865 821.446 254.765 822.16 261.784 821.178L262.268 821.103Z"/>
	<path fill="#F9BF06" d="M239.884 749.199L276.052 749.381L276.038 755.853L276.036 814.669L239.837 814.574L204.635 814.458L204.781 755.941L204.772 749.097L239.884 749.199Z"/>
	<path fill="#F6F3F3" d="M239.884 749.199L276.052 749.381L276.038 755.853L239.843 755.94L204.781 755.941L204.772 749.097L239.884 749.199Z"/>
	<path fill="#FAD922" d="M204.781 755.941L239.843 755.94L239.837 814.574L204.635 814.458L204.781 755.941Z"/>
	<path fill="#89D55B" d="M299.592 877.753L300.441 877L300.089 594.507L300.035 518.977L300.047 498.62C300.053 494.484 299.731 490.08 300.435 486L300.533 485.4C301.004 482.879 302.867 480.593 305.008 479.25C306.345 478.411 307.989 478.198 309.546 478.108C321.682 477.402 334.151 478.007 346.331 477.982L359.513 477.986C361.75 477.994 364.328 477.748 366.51 478.297C368.976 478.917 371.191 480.731 372.467 482.915C373.549 484.765 373.803 486.952 373.884 489.06L373.914 527.575L373.979 598.471L373.98 807.73L373.88 856.167L373.824 869.809C373.813 872.298 373.534 875.033 374.038 877.464C374.658 877.58 375.276 877.73 375.905 877.762C375.147 877.999 375.582 877.914 374.494 877.908L322.625 878.038C315.103 878.035 307.049 878.65 299.592 877.753Z"/>
	<path fill="#39A833" d="M401.067 877.703L400.742 538.328L400.915 442.1L400.921 410.678C400.923 405.833 400.532 400.596 401.01 395.788C401.26 393.275 402.798 390.886 404.562 389.145C406.177 387.553 408.382 385.954 410.681 385.585C415.884 384.75 421.975 385.301 427.276 385.26L459.25 385.128C462.828 385.215 465.869 386.624 468.298 389.25C470.148 391.251 471.771 394.256 471.99 397C472.544 403.937 472.037 411.338 472.044 418.312L472.114 462.326L472.209 608.209L472.258 785.22L472.338 842.511L472.155 877.692L480.14 877.867L401.067 877.703Z"/>
	<path fill="#0CA0A5" d="M139.563 669.738L139.834 442.007L246.42 441.58L246.489 517.081C245.063 517.919 241.8 517.381 240.035 517.537L240.091 517.837L239.912 551.094L204.529 551.068L204.544 557.632L204.511 616.943L204.535 623.956L204.686 683.461L204.736 690.016L204.772 749.097L204.781 755.941L204.635 814.458L204.634 820.911L204.463 877.815L180.96 877.721L102.124 878.014L102.127 819.698L102.249 725.325L102.158 691.162C102.152 686.989 101.298 680.067 102.531 676.151C102.966 674.766 104.723 672.808 105.635 671.608C109.498 669.629 112.951 669.973 117.186 669.965L130.836 669.755C133.675 669.7 136.751 669.422 139.563 669.738Z"/>
	<path fill="#FAD922" d="M204.529 551.068L204.623 532.351C204.626 529.535 204.265 526.023 204.829 523.295C205.058 522.184 205.793 521.046 206.536 520.211C207.52 519.104 208.716 518.201 210.176 517.849C212.771 517.224 216.285 517.608 218.982 517.609L240.035 517.537L240.091 517.837L239.912 551.094L204.529 551.068Z"/>
	<path fill="#89D55B" d="M130.836 669.755C133.675 669.7 136.751 669.422 139.563 669.738L140.073 669.78C148.157 670.377 156.51 669.931 164.635 669.939C167.727 669.942 171.567 669.515 174.573 670.25C176.197 670.647 177.333 671.453 178.463 672.679C179.257 673.541 179.701 674.401 180.145 675.471L180.38 676.027C181.172 678.104 181.005 680.543 181.022 682.735L181.03 695.686L181.027 737.778L180.96 877.721L102.124 878.014L102.127 819.698L102.249 725.325L102.158 691.162C102.152 686.989 101.298 680.067 102.531 676.151C102.966 674.766 104.723 672.808 105.635 671.608C109.498 669.629 112.951 669.973 117.186 669.965L130.836 669.755Z"/>
	<path fill="#0CA0A5" d="M802.154 141.779C818.385 139.999 831.909 143.3 845.959 151.307C858.472 158.438 868.566 172.82 872.318 186.619C872.876 188.671 873.408 190.772 873.649 192.887L874.289 197.75C877.457 198.101 880.677 197.877 883.857 197.789L883.905 198.374L884.076 207.952L917.906 207.9L917.191 494.456C919.945 496.56 921.888 498.555 923.399 501.696L923.024 877.465C926.655 877.439 935.646 876.315 938.204 878.936C938.688 879.431 939.012 879.967 939.376 880.548L939.715 881.076C941.631 884.416 940.467 899.775 940.442 904.196L930.242 904.197L930.837 904.25L940.45 904.419L940.421 919.484C940.402 925.65 941.263 931.854 936.75 936.795L934.468 938.75L933.993 939.161C931.159 940.969 874.212 939.926 866.356 939.908L631.321 939.838L562.81 939.614C550.847 939.598 538.269 940.375 526.375 939.395L525.977 305.908L620.09 305.959L620.289 221.289L620.224 205.324C620.197 203.707 619.759 200.781 620.44 199.359L704.661 198.875L704.726 208.011L704.929 195.505L740.964 195.165C744.114 197.66 747.643 198.469 751.637 198.459C751.201 186.49 756.336 173.944 763.271 164.387C773.258 150.624 785.64 144.366 802.154 141.779Z"/>
	<path fill="#D0E732" d="M877.68 236.805L907.66 253.778L902.198 264.218L872.112 247.116L877.68 236.805Z"/>
	<path fill="#D0E732" d="M704.726 208.011L704.929 195.505L740.964 195.165L741.026 208.024L704.726 208.011Z"/>
	<path fill="#D0E732" d="M746.075 236.955C748.499 238.045 752.316 245.252 753.942 247.657L721.169 263.918L720.787 264.006C718.945 263.472 714.974 255.364 713.695 253.175L746.075 236.955Z"/>
	<path fill="#D0E732" d="M856.17 261.47C863.095 271.108 868.389 283.31 873.66 293.995L862.45 299.543C859.363 295.232 856.916 290.293 854.396 285.629L844.02 266.547L856.17 261.47Z"/>
	<path fill="#D0E732" d="M768.223 258.211L778.646 266.719L758.12 298.727L746.251 290.781L768.223 258.211Z"/>
	<path fill="#1E4B51" d="M782.66 304.519C782.583 302.85 782.128 300.795 783 299.375L804.412 299.311L840.434 299.509C840.331 301.702 840.279 303.876 839.879 306.039C836.142 311.924 831.78 317.611 826.082 321.75C820.87 325.536 814.823 327.317 808.43 326.236L807.75 326.113C802.383 325.172 797.537 322.912 793.487 319.243C791.22 317.189 785.272 307.981 785.25 307.977C784.171 307.757 783.88 308.507 782.51 308L782.119 305L782.66 304.519Z"/>
	<path fill="#F6F3F3" d="M782.66 304.519C782.583 302.85 782.128 300.795 783 299.375L804.412 299.311L840.434 299.509C840.331 301.702 840.279 303.876 839.879 306.039L798.641 306.066C794.193 306.075 787.425 307.082 783.25 305.909L782.66 304.519Z"/>
	<path fill="#0DC4C2" d="M879.182 344.215C879.591 344.452 879.745 344.511 880.111 344.9C881.146 345.995 885.245 351.709 885.489 352.933C885.894 354.959 885.481 358.027 885.477 360.143L885.448 378.141L907.312 378.002L881.942 419.847C881.37 420.342 881.714 420.205 880.879 420.173L854.325 378.585L876.576 378.649L876.541 358.741C876.541 355.365 876.086 351.208 877.033 347.953C877.409 346.66 878.45 345.335 879.182 344.215Z"/>
	<path fill="#F6F3F3" d="M785.722 274.944L786.934 275.267L806.932 275.521L815.596 275.557L834.115 275.543L835.972 275.407C837.469 275.524 839.258 275.493 840.686 275.906C841.41 276.748 842.357 277.616 842.281 278.819C842.096 281.739 840.376 283.786 840.156 286.75C839.28 287.386 839.167 287.23 838.132 287.239L840 287.509C840.926 289.172 840.472 292.546 840.47 294.472L840.434 299.509L804.412 299.311C802.235 298.872 799.395 299.198 797.151 299.183L782.25 299.031C782.16 297.708 781.818 296.994 781.164 295.884C780.678 295.059 781.133 292.318 781.201 291.25L782.442 290.46L781.533 289.75L781.46 287.383C781.186 284.294 780.85 281.089 781.288 277.997C781.492 276.555 781.64 275.915 782.821 275.063L785.722 274.944Z"/>
	<path fill="#372F29" d="M804.412 299.311C802.235 298.872 799.395 299.198 797.151 299.183L782.25 299.031C782.16 297.708 781.818 296.994 781.164 295.884C780.678 295.059 781.133 292.318 781.201 291.25L782.442 290.46L783.068 294.25C788.123 295.367 795.021 294.538 800.263 294.532L840.47 294.472L840.434 299.509L804.412 299.311Z"/>
	<path fill="#F6F3F3" d="M785.722 274.944L786.934 275.267L806.932 275.521L815.596 275.557L834.115 275.543L835.972 275.407C837.469 275.524 839.258 275.493 840.686 275.906C841.41 276.748 842.357 277.616 842.281 278.819C842.096 281.739 840.376 283.786 840.156 286.75C839.28 287.386 839.167 287.23 838.132 287.239L800.744 287.098C794.507 287.095 787.6 286.532 781.46 287.383C781.186 284.294 780.85 281.089 781.288 277.997C781.492 276.555 781.64 275.915 782.821 275.063L785.722 274.944Z"/>
	<path fill="#372F29" d="M781.46 287.383C781.186 284.294 780.85 281.089 781.288 277.997C781.492 276.555 781.64 275.915 782.821 275.063L782.981 282.361L827.328 282.39C830.742 282.377 837.39 283.18 840.442 282.106L840.686 275.906C841.41 276.748 842.357 277.616 842.281 278.819C842.096 281.739 840.376 283.786 840.156 286.75C839.28 287.386 839.167 287.23 838.132 287.239L800.744 287.098C794.507 287.095 787.6 286.532 781.46 287.383Z"/>
	<path fill="#0DC4C2" d="M584.123 600.82C584.2 603.41 583.587 612.514 585 613.93C586.308 613.909 587.854 614.082 589.074 613.612L622.051 613.42L587.36 667.333L554.288 613.528L583.986 613.816L584.123 600.82Z"/>
	<path fill="#F6F3F3" d="M584.123 600.82L584.424 453.013L676.527 452.983L731.984 374.609L810.705 374.179L810.926 373.517C812.183 369.887 814.118 367.355 817.687 365.773C820.326 364.604 823.433 364.659 826.076 365.802C828.818 366.989 831.124 369.699 832.123 372.487C833.107 375.231 832.849 378.809 831.41 381.355C829.887 384.049 827.074 385.761 824.113 386.441L823.5 386.572L822.895 386.714C820.659 387.191 818.069 386.659 816.193 385.331C814.123 383.864 812.456 381.6 811.041 379.521L734.937 379.498L679.099 458.059L589.195 457.979L589.074 613.612C587.854 614.082 586.308 613.909 585 613.93C583.587 612.514 584.2 603.41 584.123 600.82Z"/>
	<path fill="#F58C28" d="M552.57 877.013L627.564 876.992L650.493 877.116L721.872 877.358L751.75 877.433L825.606 877.494L848.098 877.433L923.024 877.465C926.655 877.439 935.646 876.315 938.204 878.936C938.688 879.431 939.012 879.967 939.376 880.548L939.715 881.076C941.631 884.416 940.467 899.775 940.442 904.196L930.242 904.197L847.198 904.404L659.451 904.453L583.193 904.436L558.853 904.417C554.602 904.41 550.124 904.682 545.895 904.329C543.794 904.153 542.217 903.705 540.534 902.401C538.349 900.706 536.9 898.276 536.679 895.5C536.301 890.748 535.733 884.172 539.215 880.509C543.036 876.489 547.458 876.992 552.57 877.013Z"/>
	<path fill="#F9BF06" d="M802.154 141.779C818.385 139.999 831.909 143.3 845.959 151.307C858.472 158.438 868.566 172.82 872.318 186.619C872.876 188.671 873.408 190.772 873.649 192.887C873.235 207.426 870.826 221.128 861.802 233.037C857.346 238.918 851.865 243.978 847.36 249.824C844.43 253.627 842.422 257.599 840.064 261.737C838.285 266.312 837.274 270.717 835.972 275.407L834.115 275.543L815.596 275.557L806.932 275.521L786.934 275.267L785.722 274.944C785.789 273.286 785.985 271.465 785.72 269.83L785.568 268.998C784.607 263.431 782.019 256.721 778.794 252.061C774.834 246.337 769.429 241.63 764.825 236.429C760.291 231.307 756.278 225.037 754.127 218.498C753.104 215.386 752.251 211.773 752.047 208.5C751.858 205.468 752.172 202.316 751.762 199.316L751.637 198.459C751.201 186.49 756.336 173.944 763.271 164.387C773.258 150.624 785.64 144.366 802.154 141.779Z"/>
	<path fill="#016C73" d="M751.637 198.459C751.201 186.49 756.336 173.944 763.271 164.387C773.258 150.624 785.64 144.366 802.154 141.779L805.816 143.887C788.62 145.787 776.106 151.823 765.136 165.604C755.417 177.814 751.875 191.883 753.789 207.296C754.939 216.557 758.453 224.575 764.128 231.936C768.665 237.821 774.292 242.762 778.88 248.572C784.839 256.118 787.547 265.719 786.934 275.267L785.722 274.944C785.789 273.286 785.985 271.465 785.72 269.83L785.568 268.998C784.607 263.431 782.019 256.721 778.794 252.061C774.834 246.337 769.429 241.63 764.825 236.429C760.291 231.307 756.278 225.037 754.127 218.498C753.104 215.386 752.251 211.773 752.047 208.5C751.858 205.468 752.172 202.316 751.762 199.316L751.637 198.459Z"/>
	<path fill="#F58C28" d="M799.604 209.904C800.695 209.191 801.087 208.626 802.435 208.75C803.918 210.567 804.519 212.948 805.323 215.124C806.58 218.524 807.809 221.926 809.411 225.181L818.978 207.316C820.226 204.971 821.933 200.34 824.5 199.528L825.913 200.25C826.348 202.767 824.486 205.927 823.555 208.283L814.537 230.077C813.819 231.734 811.992 234.679 811.759 236.367C811.659 237.097 812.051 238.6 812.153 239.381L813.173 247.403C814.242 256.56 815.512 266.364 815.596 275.557L806.932 275.521L806.943 256.565C806.924 251.586 807.057 246.287 805.911 241.42L799.604 209.904Z"/>
	<path fill="#F6F3F3" d="M786.824 160.547C789.409 160.486 792.068 160.291 794.535 161.205C798.306 162.603 801.616 165.466 803.2 169.211C804.721 172.808 804.784 176.901 803.097 180.472C801.012 184.884 797.684 186.733 793.345 188.413C790.294 188.676 786.794 188.846 784 187.464C780.27 185.618 777.814 182.224 776.567 178.319C775.431 174.763 775.473 171.083 777.27 167.743C779.449 163.69 782.633 161.897 786.824 160.547Z"/>
	<path fill="#0C8F91" d="M802.154 141.779C818.385 139.999 831.909 143.3 845.959 151.307C858.472 158.438 868.566 172.82 872.318 186.619C872.876 188.671 873.408 190.772 873.649 192.887C873.235 207.426 870.826 221.128 861.802 233.037C857.346 238.918 851.865 243.978 847.36 249.824C844.43 253.627 842.422 257.599 840.064 261.737C838.285 266.312 837.274 270.717 835.972 275.407L834.115 275.543C835.063 268.71 836.744 260.828 840.612 254.979C841.811 251.087 846.247 246.587 848.935 243.575C857.355 234.142 865.494 223.587 867.547 210.705L867.694 209.75C868.245 206.385 868.579 203.068 868.45 199.65C867.828 183.281 860.419 168.925 848.37 157.998C836.595 147.318 821.462 143.03 805.816 143.887L802.154 141.779Z"/>
	<path fill="#FAD922" d="M805.911 241.42C804.749 243.531 804.245 246.2 803.534 248.5C802.503 251.835 801.309 255.063 799.89 258.251C793.867 252.779 788.634 246.749 783.267 240.659C774.141 230.305 763.308 219.377 761.614 204.877C760.243 193.134 764.358 184.156 771.517 175.2C773.124 178.873 774.422 182.729 776.964 185.886C781.443 191.448 786.548 196.326 791.618 201.336C794.262 203.949 797.722 206.698 799.604 209.904L805.911 241.42Z"/>
	<path fill="#FAD922" d="M552.57 877.013L552.559 756.573L552.509 720.793C552.504 715.536 551.98 709.616 552.594 704.443C552.849 702.292 554.344 700.349 555.838 698.875L557.75 697.162L558.226 696.732C560.204 695.094 567.2 695.814 569.882 695.813L602.892 695.846C608.03 695.859 613.668 695.421 618.756 696.03C621.326 696.338 623.469 697.545 625.05 699.597C626.228 701.126 627.214 703.054 627.374 705C627.87 711.049 627.485 717.383 627.497 723.462L627.56 760.134L627.564 876.992L552.57 877.013Z"/>
	<path fill="#42B6C1" d="M650.493 877.116L650.488 633.36L650.449 562.501L650.441 541.025C650.444 537.642 650.115 533.839 650.529 530.494C650.823 528.112 652.481 525.761 654.092 524.07C654.822 523.304 656.287 521.722 657.199 521.265C658.047 520.841 660.01 521.015 660.955 521.011L669.277 520.987L714.059 520.999C718.089 521.039 721.093 521.334 724.092 524.315C725.995 526.206 727.265 529.086 727.496 531.75C728.38 541.959 727.746 552.711 727.741 562.981L727.736 621.022L727.745 780.912L727.564 842.167L727.783 877.033L721.872 877.358L650.493 877.116Z"/>
	<path fill="#C82C2A" d="M848.098 877.433L848.513 600.114L848.509 528.407L848.507 510.5C848.509 507.795 848.13 504.358 848.664 501.745C849.215 499.05 850.957 496.623 853.304 495.19C854.59 494.405 856.108 493.953 857.601 493.808C868.297 492.766 879.741 493.64 890.543 493.703L906.847 493.819C910.293 493.857 913.814 493.683 917.191 494.456C919.945 496.56 921.888 498.555 923.399 501.696L923.024 877.465L848.098 877.433Z"/>
	<path fill="#F37131" d="M751.75 877.433L751.72 875.115L751.446 599.546L751.493 497.198C751.509 480.62 750.707 463.591 751.606 447.055C751.695 445.417 752.064 444.267 753.004 442.923C753.429 442.315 753.905 441.765 754.438 441.25C757.189 438.591 760.145 438.083 763.846 438.07L799.207 438.143C805.036 438.169 811.74 437.585 817.467 438.549C819.302 438.857 821.268 440.181 822.524 441.508C823.994 443.062 825.216 445.338 825.355 447.5C825.664 452.31 825.387 457.292 825.375 462.124L825.339 491.06L825.461 586.61L825.606 877.494L751.75 877.433Z"/>
</svg>
