<?xml version="1.0" encoding="utf-8" ?>
<svg xmlns="http://www.w3.org/2000/svg" xmlns:xlink="http://www.w3.org/1999/xlink" width="1024" height="1024">
	<path fill="#FEFEFE" d="M0 -0L1024 0L1024 1024L-0 1024L0 -0Z"/>
	<path fill="#0CA782" d="M334.337 914.373C336.839 913.74 339.659 913.912 342.224 913.905L356 913.899L402.253 913.921L604.504 913.986L660.527 913.82L680.831 913.574C684.743 913.535 688.865 913.196 692.712 913.937C663.455 925.959 633.492 936.415 602.527 943.101C550.661 954.299 497.025 955.205 444.672 947.243C412.041 942.279 379.949 933.939 349.456 921.152C344.55 919.094 338.862 917.135 334.337 914.373Z"/>
	<path fill="#0CA782" d="M113.324 706.743C115.954 702.836 117.861 698.588 120.751 694.808C128.553 684.606 140.89 678.489 153.304 676.106C167.028 673.471 180.975 676.919 192.392 684.805C202.183 691.566 210.332 702.4 212.335 714.344C213.556 721.63 211.302 727.638 211.521 734.68C211.551 735.665 211.462 735.744 212.294 736.358C213.333 737.123 214.51 737.253 215.75 737.448C217.726 736.265 218.767 734.394 220.092 732.567C224.516 726.465 229.548 721.279 237.05 719.258L237.387 861.183C231.178 856.442 225.405 850.912 219.598 845.688C184.858 814.435 154.394 778.106 130.374 738.007C124.287 727.845 118.235 717.533 113.324 706.743Z"/>
	<path fill="#0CA782" d="M786.426 668.175C790.825 665.003 796.151 662.801 800.75 659.837C810.463 653.578 818.646 645.308 826.487 636.903L827.139 637.159C829.187 637.924 831.786 637.918 833.954 638.25C837.882 638.852 841.938 639.833 845.663 641.221C870.369 650.423 888.403 666.55 903.786 687.633C906.691 691.616 910.025 695.71 912.487 699.96C903.889 717.631 895.058 735.164 884.584 751.816C865.648 781.919 841.635 809.155 815.884 833.551L796.479 850.919C793.092 853.755 789.689 856.907 785.967 859.295L786.426 668.175Z"/>
	<path fill="#057A32" d="M121.968 304.324C118.045 300.961 114.562 296.998 111.151 293.125C93.1342 272.668 81.5171 247.128 75.2557 220.75C69.7515 197.562 68.0236 172.379 71.8768 148.782C72.5356 144.748 73.2673 139.33 75.4099 135.847L76.6031 135.71C88.7193 137.312 100.611 138.46 112.621 140.965C148.085 148.361 185.624 164.69 212.738 189.003C222.814 198.317 232.29 207.694 239.506 219.498C238.35 222.39 237.491 224.955 237.201 228.092C236.817 232.254 237.076 236.643 237.078 240.829L237.107 263.001L237.005 325.542L237.09 360.058C202.149 353.61 169.003 340.998 140.228 319.839C133.748 315.074 127.893 309.744 121.968 304.324Z"/>
	<path fill="#3FAC46" d="M76.6031 135.71C88.7193 137.312 100.611 138.46 112.621 140.965C148.085 148.361 185.624 164.69 212.738 189.003C222.814 198.317 232.29 207.694 239.506 219.498C238.35 222.39 237.491 224.955 237.201 228.092C236.817 232.254 237.076 236.643 237.078 240.829L237.107 263.001L237.005 325.542C222.301 314.642 208.481 301.627 195.488 288.75C164.456 257.995 137.372 224.903 112.346 189.098L88.8335 153.692C84.9615 147.748 81.2939 141.02 76.6031 135.71Z"/>
	<path fill="#9ACEA9" d="M121.968 304.324C127.893 309.744 133.748 315.074 140.228 319.839C169.003 340.998 202.149 353.61 237.09 360.058L237.034 409.23L237.011 418.794L237.136 433.605L237.109 481.34L237.05 719.258C229.548 721.279 224.516 726.465 220.092 732.567C218.767 734.394 217.726 736.265 215.75 737.448C214.51 737.253 213.333 737.123 212.294 736.358C211.462 735.744 211.551 735.665 211.521 734.68C211.302 727.638 213.556 721.63 212.335 714.344C210.332 702.4 202.183 691.566 192.392 684.805C180.975 676.919 167.028 673.471 153.304 676.106C140.89 678.489 128.553 684.606 120.751 694.808C117.861 698.588 115.954 702.836 113.324 706.743L111.554 702.586L111.117 701.91C108.687 698.055 107.083 693.33 105.329 689.124L94.3527 660.445C66.9372 581.58 61.7428 496.373 79.3521 414.744C71.9994 402.978 64.4075 391.793 59.8347 378.519L59.6159 377.86C62.9451 374.833 87.3535 372.709 92.8128 372.46C93.3411 367.85 95.9525 362.746 97.596 358.421C104.697 339.735 112.057 321.761 121.968 304.324Z"/>
	<path fill="#46B5A4" d="M237.109 481.34L237.05 719.258C229.548 721.279 224.516 726.465 220.092 732.567C218.767 734.394 217.726 736.265 215.75 737.448C214.51 737.253 213.333 737.123 212.294 736.358C211.462 735.744 211.551 735.665 211.521 734.68C211.302 727.638 213.556 721.63 212.335 714.344C210.332 702.4 202.183 691.566 192.392 684.805C180.975 676.919 167.028 673.471 153.304 676.106C140.89 678.489 128.553 684.606 120.751 694.808C117.861 698.588 115.954 702.836 113.324 706.743L111.554 702.586C111.332 699.123 110.46 695.945 109.925 692.543C108.591 684.065 108.126 676.44 109.211 667.891C111.817 647.36 123.543 626.999 139.979 614.311C150.475 606.209 164.144 599.248 177.368 597.36C183.812 596.44 190.659 596.839 197.085 597.688C186.982 585.094 179.167 569.801 178.55 553.355C177.872 535.307 183.549 516.737 195.945 503.351C206.193 492.285 221.631 481.992 237.109 481.34Z"/>
	<path fill="#3FAC46" d="M121.968 304.324C127.893 309.744 133.748 315.074 140.228 319.839C169.003 340.998 202.149 353.61 237.09 360.058L237.034 409.23L237.011 418.794L237.136 433.605C229.966 438.259 222.186 441.759 214.297 444.989C193.23 453.615 173.598 457.477 150.839 455.373C122.043 452.71 97.4993 436.569 79.3521 414.744C71.9994 402.978 64.4075 391.793 59.8347 378.519L59.6159 377.86C62.9451 374.833 87.3535 372.709 92.8128 372.46C93.3411 367.85 95.9525 362.746 97.596 358.421C104.697 339.735 112.057 321.761 121.968 304.324Z"/>
	<path fill="#057A32" d="M59.8347 378.519L60.4725 378.689C62.0944 379.185 63.5755 380.584 64.9436 381.561L75.7002 389.419L91.4062 399.476C124.393 418.864 162.121 428.64 200.486 425.067C212.948 423.906 224.767 421.07 237.011 418.794L237.136 433.605C229.966 438.259 222.186 441.759 214.297 444.989C193.23 453.615 173.598 457.477 150.839 455.373C122.043 452.71 97.4993 436.569 79.3521 414.744C71.9994 402.978 64.4075 391.793 59.8347 378.519Z"/>
	<path fill="#9ACEA9" d="M121.968 304.324C127.893 309.744 133.748 315.074 140.228 319.839C169.003 340.998 202.149 353.61 237.09 360.058L237.034 409.23L209.283 397.182C194.783 390.989 180.292 384.846 165.162 380.321C142.511 373.546 116.403 370.44 92.8128 372.46C93.3411 367.85 95.9525 362.746 97.596 358.421C104.697 339.735 112.057 321.761 121.968 304.324Z"/>
	<defs>
		<linearGradient id="gradient_0" gradientUnits="userSpaceOnUse" x1="190.66928" y1="613.90173" x2="758.09308" y2="515.245">
			<stop offset="0" stop-color="#033D55"/>
			<stop offset="1" stop-color="#176E8C"/>
		</linearGradient>
	</defs>
	<path fill="url(#gradient_0)" d="M239.506 219.498C241.236 216.244 243.271 213.308 245.893 210.709C249.213 207.417 253.077 204.877 257.775 204.099C262.348 203.342 267.599 203.86 272.267 203.89L297.144 203.931L397.476 203.918L397.42 234.355C397.414 239.127 396.939 244.46 397.547 249.17L320.145 249.314L299.04 249.369C295.401 249.374 291.342 249.016 287.768 249.569C284.815 250.026 282.094 251.802 280.043 253.917C277.518 256.52 276.146 259.626 275.996 263.25L275.935 297.857L275.934 365.433L275.846 581.74L275.712 766.239L275.636 827.615C275.631 837.625 275.115 847.963 275.686 857.939C275.894 861.573 277.515 864.236 280.25 866.56C282.241 868.252 285.143 869.359 287.75 869.523C302.609 870.454 318.016 869.671 332.922 869.677L422.678 869.666L695.25 869.627C696.257 868.81 695.937 869.321 696.256 868.127L697.729 845.959C700.02 844.307 707.305 845.033 710.376 844.956L710.479 844.655L710.954 844.308C713.359 842.246 715.301 838.468 716.81 835.696C723.085 824.168 726.956 811.832 728.25 798.767C730.91 771.921 723.867 741.185 706.485 720.077L699.404 712.232C697.891 710.664 695.898 709.162 695.264 707.024C699.087 694.728 702.289 681.761 708.627 670.452L708.933 670.638C712.346 673.778 716.607 675.787 720.651 677.992C725.917 679.275 731.257 681.094 736.706 681.357C740.316 681.532 743.916 680.964 747.516 680.909C761.021 679.777 774.572 674.576 786.426 668.175L785.967 859.295L785.967 877.217C785.949 887.432 786.028 897.157 778.263 905.024C774.169 909.172 769.371 911.885 763.662 913.138C758.914 914.18 753.084 913.661 748.213 913.662L721.831 913.642C712.437 913.632 701.991 912.692 692.712 913.937C688.865 913.196 684.743 913.535 680.831 913.574L660.527 913.82L604.504 913.986L402.253 913.921L356 913.899L342.224 913.905C339.659 913.912 336.839 913.74 334.337 914.373L334.107 914.338C328.008 913.14 320.656 913.894 314.399 913.905L277.615 913.883C271.961 913.865 265.458 914.367 260.015 912.787L259.25 912.55C254.373 911.114 250.086 908.882 246.444 905.298C234.548 893.594 237.411 876.406 237.387 861.183L237.05 719.258L237.109 481.34L237.136 433.605L237.011 418.794L237.034 409.23L237.09 360.058L237.005 325.542L237.107 263.001L237.078 240.829C237.076 236.643 236.817 232.254 237.201 228.092C237.491 224.955 238.35 222.39 239.506 219.498Z"/>
	<path fill="#FEFEFE" d="M708.627 670.452L708.933 670.638C712.346 673.778 716.607 675.787 720.651 677.992C725.917 679.275 731.257 681.094 736.706 681.357C740.316 681.532 743.916 680.964 747.516 680.909L747.605 807.575L747.718 842.015C747.751 848.051 748.24 854.633 747.491 860.622C747.228 862.722 745.542 864.83 744.084 866.26C742.587 867.727 740.859 868.956 738.821 869.545C735.823 870.412 731.949 870.001 728.839 869.975L712.539 869.793L712.007 869.75L696.75 869.446L696.256 868.127L697.729 845.959C700.02 844.307 707.305 845.033 710.376 844.956L710.479 844.655L710.954 844.308C713.359 842.246 715.301 838.468 716.81 835.696C723.085 824.168 726.956 811.832 728.25 798.767C730.91 771.921 723.867 741.185 706.485 720.077L699.404 712.232C697.891 710.664 695.898 709.162 695.264 707.024C699.087 694.728 702.289 681.761 708.627 670.452Z"/>
	<path fill="#093B52" d="M697.729 845.959C700.02 844.307 707.305 845.033 710.376 844.956C712.049 853.298 712.04 861.292 712.007 869.75L696.75 869.446L696.256 868.127L697.729 845.959Z"/>
	<path fill="#093B52" d="M708.627 670.452L708.933 670.638C712.346 673.778 716.607 675.787 720.651 677.992C713.837 691.366 709.082 705.312 706.485 720.077L699.404 712.232C697.891 710.664 695.898 709.162 695.264 707.024C699.087 694.728 702.289 681.761 708.627 670.452Z"/>
	<path fill="#9ACEA9" d="M212.738 189.003L234.54 170.567L267.969 145.98C337.53 99.5109 421.257 72.1517 505 70.5158C524.077 70.1432 542.94 71.4776 561.889 73.5462C639.3 81.997 715.931 112.71 778.078 159.637C808.592 182.678 835.888 209.653 859.77 239.454C878.325 262.609 893.401 286.836 906.887 313.242C914.223 327.607 921.224 342.456 926.843 357.581C937.893 387.324 945.265 418.338 949.771 449.712C954.228 480.742 955.703 512.456 953.041 543.731C951.423 562.435 949.232 581.153 945.591 599.58C941.558 619.991 935.732 640.132 928.944 659.787C924.241 673.405 919.117 687.151 912.487 699.96C910.025 695.71 906.691 691.616 903.786 687.633C888.403 666.55 870.369 650.423 845.663 641.221C841.938 639.833 837.882 638.852 833.954 638.25C831.786 637.918 829.187 637.924 827.139 637.159L826.487 636.903C818.646 645.308 810.463 653.578 800.75 659.837C796.151 662.801 790.825 665.003 786.426 668.175C774.572 674.576 761.021 679.777 747.516 680.909C743.916 680.964 740.316 681.532 736.706 681.357C731.257 681.094 725.917 679.275 720.651 677.992C716.607 675.787 712.346 673.778 708.933 670.638L708.627 670.452C706.715 666.22 703.573 662.322 701.481 658.076C694.622 644.148 692.963 629.116 692.54 613.827C692.487 609.192 693.101 604.508 693.768 599.93C695.569 594.004 696.553 587.951 698.601 582.055C707.651 555.987 724.643 534.401 747.649 519.179L747.787 509.705L747.824 332.835L747.795 281.639C747.803 273.231 748.497 264.1 747.628 255.763C747.401 253.587 746.4 251.857 744.75 250.402C743.93 249.679 743.022 249.2 741.925 249.054C738.748 248.629 735.165 248.967 731.928 248.965L711.965 248.982L645.627 249.021L624.564 248.949L624.557 264.026L397.782 263.929C398.113 259.757 398.607 253.148 397.547 249.17C396.939 244.46 397.414 239.127 397.42 234.355L397.476 203.918L297.144 203.931L272.267 203.89C267.599 203.86 262.348 203.342 257.775 204.099C253.077 204.877 249.213 207.417 245.893 210.709C243.271 213.308 241.236 216.244 239.506 219.498C232.29 207.694 222.814 198.317 212.738 189.003Z"/>
	<path fill="#147391" d="M646.606 203.427L729.224 203.423L751.971 203.453C755.846 203.46 760.119 203.071 763.924 203.705C769.587 204.648 774.907 207.288 778.989 211.337C782.982 215.3 785.601 221.345 786.283 226.888C787.067 233.253 786.477 240.32 786.486 246.754L786.509 288.194L786.501 398.61L786.545 455.048L786.515 500.417C772.936 505.332 759.653 511.017 747.649 519.179L747.787 509.705L747.824 332.835L747.795 281.639C747.803 273.231 748.497 264.1 747.628 255.763C747.401 253.587 746.4 251.857 744.75 250.402C743.93 249.679 743.022 249.2 741.925 249.054C738.748 248.629 735.165 248.967 731.928 248.965L711.965 248.982L645.627 249.021L624.564 248.949L624.803 203.45L646.606 203.427Z"/>
	<path fill="#0E5771" d="M624.803 203.45L646.606 203.427L646.448 231.913C646.424 237.102 647.299 244.229 645.627 249.021L624.564 248.949L624.803 203.45Z"/>
	<path fill="#46B5A4" d="M786.545 455.048L786.925 454.479C788.828 451.573 789.966 448.083 791.834 445.072C799.252 433.118 810.696 424.679 824.47 421.551C834.025 419.381 844.319 419.554 853.585 422.833C866.33 427.342 877.776 437.153 883.787 449.391C885.796 453.482 887.371 457.595 888.528 462L888.776 462.926C890.38 469.031 890.213 476.295 889.019 482.453C888.478 485.239 886.23 490.933 886.722 493.537C887.073 495.396 888.968 498.295 889.858 500.086C896.647 513.745 905.853 524.678 919.141 532.472C929.886 538.775 941.115 540.953 953.041 543.731C951.423 562.435 949.232 581.153 945.591 599.58C941.558 619.991 935.732 640.132 928.944 659.787C924.241 673.405 919.117 687.151 912.487 699.96C910.025 695.71 906.691 691.616 903.786 687.633C888.403 666.55 870.369 650.423 845.663 641.221C841.938 639.833 837.882 638.852 833.954 638.25C831.786 637.918 829.187 637.924 827.139 637.159L826.487 636.903C848.283 611.158 854.303 580.426 854.885 547.649C855.167 531.832 854.703 516.27 856.826 500.536L859.104 488.724C834.456 490.118 810.044 492.579 786.515 500.417L786.545 455.048Z"/>
	<path fill="#02923A" d="M786.515 500.417C810.044 492.579 834.456 490.118 859.104 488.724L856.826 500.536C854.703 516.27 855.167 531.832 854.885 547.649C854.303 580.426 848.283 611.158 826.487 636.903C818.646 645.308 810.463 653.578 800.75 659.837C796.151 662.801 790.825 665.003 786.426 668.175C774.572 674.576 761.021 679.777 747.516 680.909C743.916 680.964 740.316 681.532 736.706 681.357C731.257 681.094 725.917 679.275 720.651 677.992C716.607 675.787 712.346 673.778 708.933 670.638L708.627 670.452C706.715 666.22 703.573 662.322 701.481 658.076C694.622 644.148 692.963 629.116 692.54 613.827C692.487 609.192 693.101 604.508 693.768 599.93C695.569 594.004 696.553 587.951 698.601 582.055C707.651 555.987 724.643 534.401 747.649 519.179C759.653 511.017 772.936 505.332 786.515 500.417Z"/>
	<path fill="#3FAC46" d="M786.515 500.417C810.044 492.579 834.456 490.118 859.104 488.724L856.826 500.536C847.971 504.387 839.221 508.473 831.082 513.707C791.461 539.189 757.969 578.824 734.037 619C727.272 630.355 720.744 642.184 715.895 654.499C714.036 659.22 712.267 666.928 708.933 670.638L708.627 670.452C706.715 666.22 703.573 662.322 701.481 658.076C694.622 644.148 692.963 629.116 692.54 613.827C692.487 609.192 693.101 604.508 693.768 599.93C695.569 594.004 696.553 587.951 698.601 582.055C707.651 555.987 724.643 534.401 747.649 519.179C759.653 511.017 772.936 505.332 786.515 500.417Z"/>
	<path fill="#147391" d="M397.476 203.918L397.474 168.921L454.732 168.852C455.748 154.108 459.503 142.102 469.591 130.898C479.467 119.93 493.341 113.531 508.056 112.888C523.43 112.217 538.038 117.044 549.348 127.603C561.535 138.979 566.973 152.309 567.543 168.922L625.009 168.86L624.803 203.45L624.564 248.949L624.557 264.026L397.782 263.929C398.113 259.757 398.607 253.148 397.547 249.17C396.939 244.46 397.414 239.127 397.42 234.355L397.476 203.918Z"/>
	<path fill="#0E5771" d="M508.345 140.155C515.208 139.802 520.912 140.334 526.943 144.089L527.5 144.441C533.115 147.885 537.916 154.351 539.513 160.723L539.682 161.423L540.185 163.633C541.495 171.498 539 179.918 534.362 186.269C529.765 192.564 522.954 196.157 515.354 197.348C512.961 197.462 510.711 197.529 508.327 197.16L507.5 197.027L504.25 196.437C496.638 194.218 489.674 188.834 486.132 181.69C483.036 175.443 481.908 167.128 484.219 160.412L484.457 159.75C485.546 156.597 486.917 153.79 488.975 151.146C493.931 144.775 500.375 141.201 508.345 140.155Z"/>
	<path fill="#FEFEFE" d="M508.594 147.582C513.397 147.398 517.441 147.786 521.818 150.029C526.928 152.647 530.316 157.058 532.055 162.5C533.851 168.121 533.034 173.704 530.221 178.872C526.998 184.792 521.987 187.854 515.716 189.666C510.526 190.541 505.409 189.754 500.912 186.925C495.882 183.76 492.666 178.897 491.298 173.126C490.025 167.756 491.084 161.609 494.074 156.945C497.631 151.398 502.353 148.951 508.594 147.582Z"/>
	<path fill="#FEFEFE" d="M624.564 248.949L645.627 249.021L711.965 248.982L731.928 248.965C735.165 248.967 738.748 248.629 741.925 249.054C743.022 249.2 743.93 249.679 744.75 250.402C746.4 251.857 747.401 253.587 747.628 255.763C748.497 264.1 747.803 273.231 747.795 281.639L747.824 332.835L747.787 509.705L747.649 519.179C724.643 534.401 707.651 555.987 698.601 582.055C696.553 587.951 695.569 594.004 693.768 599.93C693.101 604.508 692.487 609.192 692.54 613.827C692.963 629.116 694.622 644.148 701.481 658.076C703.573 662.322 706.715 666.22 708.627 670.452C702.289 681.761 699.087 694.728 695.264 707.024C695.898 709.162 697.891 710.664 699.404 712.232L706.485 720.077C723.867 741.185 730.91 771.921 728.25 798.767C726.956 811.832 723.085 824.168 716.81 835.696C715.301 838.468 713.359 842.246 710.954 844.308L710.479 844.655L710.376 844.956C707.305 845.033 700.02 844.307 697.729 845.959L696.256 868.127C695.937 869.321 696.257 868.81 695.25 869.627L422.678 869.666L332.922 869.677C318.016 869.671 302.609 870.454 287.75 869.523C285.143 869.359 282.241 868.252 280.25 866.56C277.515 864.236 275.894 861.573 275.686 857.939C275.115 847.963 275.631 837.625 275.636 827.615L275.712 766.239L275.846 581.74L275.934 365.433L275.935 297.857L275.996 263.25C276.146 259.626 277.518 256.52 280.043 253.917C282.094 251.802 284.815 250.026 287.768 249.569C291.342 249.016 295.401 249.374 299.04 249.369L320.145 249.314L397.547 249.17C398.607 253.148 398.113 259.757 397.782 263.929L624.557 264.026L624.564 248.949Z"/>
	<path fill="#6ECC50" d="M410.276 475.848L410.703 475.658C415.888 472.761 421.433 460.774 427.877 461.923C429.797 462.266 431.402 463.624 432.363 465.296C433.159 466.679 433.14 468.202 433.119 469.75C430.984 474.274 424.367 479.603 420.572 482.964L418.609 484.631L409.481 476.662L410.276 475.848Z"/>
	<path fill="#6ECC50" d="M410.516 599.762L419.167 591.029C421.888 588.367 424.461 584.917 428.559 584.811C430.251 584.768 431.07 585.235 432.24 586.398C433.672 587.821 434.53 589.332 434.548 591.387C434.596 597.046 425.244 602.103 422.429 606.716L420.019 608.668L410.152 600.558L410.516 599.762Z"/>
	<path fill="#6ECC50" d="M409.421 352.487C411.171 352.125 412.174 350.695 413.434 349.46C417.562 345.413 424.284 335.851 430.826 339.816C432.351 340.739 433.036 342.152 433.376 343.859C433.699 345.478 433.328 346.778 432.39 348.093L421.33 360.043C419.4 361.022 417.947 362.622 416.397 364.105C414.311 360.955 409.636 357.959 406.468 355.775L409.421 352.487Z"/>
	<path fill="#6ECC50" d="M410.659 718.466L411.236 718.008C415.032 714.955 418.362 711.343 421.81 707.912C423.156 706.574 424.939 704.359 426.75 703.676C427.384 703.436 429.058 703.427 429.75 703.469C431.536 703.579 433.165 704.68 434.201 706.1C435.12 707.36 435.737 709.497 435.409 711.059C434.854 713.713 432.892 715.342 431.119 717.243L422.768 725.855L415.222 732.556C412.155 729.504 408.486 726.861 404.976 724.342L410.659 718.466Z"/>
	<path fill="#147391" d="M564.006 720.495L564.958 734.947L502.765 735.013L484.379 735.015C481.502 735.011 478.222 735.305 475.387 734.904C473.769 734.675 472.456 734.247 471.25 733.114C469.777 731.729 469.023 729.868 469.062 727.839C469.103 725.681 469.792 723.746 471.38 722.26C472.476 721.234 473.737 720.602 475.252 720.475C484.743 719.681 494.987 720.439 504.546 720.46L564.006 720.495Z"/>
	<path fill="#29A5C0" d="M573.221 770.887L509.913 770.756C498.86 770.785 487.263 771.558 476.265 770.766C474.89 770.667 473.665 770.577 472.512 769.74C470.732 768.45 469.491 766.66 469.25 764.443C469.043 762.541 469.518 760.678 470.823 759.259C471.957 758.026 473.142 757.155 474.828 756.898C477.829 756.44 481.195 756.747 484.248 756.746L503.113 756.768L568.759 756.689L573.221 770.887Z"/>
	<path fill="#057A32" d="M422.429 606.716C427.711 617.244 428.916 628.823 425.08 640.065C421.213 651.403 411.835 661.656 401.025 666.747C395.604 669.3 389.399 670.93 383.418 671.283L382 670.984C380.682 669.014 381.463 651.89 381.348 647.9C381.767 646.779 382.983 645.409 383.688 644.4L420.019 608.668L422.429 606.716Z"/>
	<path fill="#057A32" d="M415.222 732.556L422.768 725.855C428.447 737.282 430.386 748.315 426.214 760.659C421.994 773.146 412.913 783.508 401.087 789.303C394.949 792.311 388.803 794.126 381.972 794.669L381.477 766.806L384.104 763.907L415.222 732.556Z"/>
	<path fill="#057A32" d="M416.397 364.105C417.947 362.622 419.4 361.022 421.33 360.043C427.626 371.311 430.298 384.332 426.652 396.965C423.107 409.248 413.831 419.296 402.736 425.334C396.923 428.498 389.651 430.32 383.046 430.553L382.815 397.974L416.397 364.105Z"/>
	<path fill="#29A5C0" d="M473.472 392.584L584.66 392.427L610.328 392.509C613.243 392.519 617.932 391.901 620.574 392.966C622.194 393.619 623.401 394.986 624.078 396.571C624.837 398.346 624.585 400.567 623.791 402.29C622.811 404.414 621.282 405.128 619.192 405.91L473.632 405.818C471.792 404.896 470.176 403.52 469.114 401.749C468.314 400.414 468.165 398.266 468.702 396.786C469.486 394.627 471.612 393.638 473.472 392.584Z"/>
	<path fill="#29A5C0" d="M477.336 514.238L574.202 514.06L603.398 514.024C608.343 514.02 613.588 513.664 618.503 514.058C619.683 514.153 620.791 514.489 621.75 515.195C623.327 516.357 624.261 518.643 624.402 520.543C624.525 522.209 623.974 523.751 622.868 524.998C621 527.104 619.072 527.598 616.352 527.788L520.74 527.879L490.192 527.934C485.242 527.939 479.98 528.328 475.064 527.875C473.518 527.733 472.154 527.29 471.002 526.208C469.524 524.82 468.678 522.815 468.64 520.784C468.611 519.216 469.63 517.83 470.658 516.735C472.675 514.588 474.485 514.331 477.336 514.238Z"/>
	<path fill="#29A5C0" d="M477.635 636.739L574.422 636.761L603.048 636.805C607.893 636.811 612.911 636.536 617.735 636.899C619.014 636.996 619.966 637.154 621 637.935C622.799 639.296 623.769 641.247 623.976 643.483C624.15 645.366 623.627 646.544 622.374 647.936C620.197 650.357 618.623 650.649 615.419 650.771L516.126 650.542L487.219 650.527C483.053 650.529 478.354 651.042 474.25 650.484C473.559 650.39 473.01 650.148 472.438 649.767L472 649.443L471.068 648.758C469.666 647.555 468.539 645.362 468.515 643.5C468.492 641.737 469.282 639.853 470.644 638.713C472.728 636.968 475.057 636.943 477.635 636.739Z"/>
	<path fill="#057A32" d="M409.481 476.662L418.609 484.631L420.572 482.964C426.428 492.88 428.848 504.094 425.843 515.465C422.709 527.329 414.722 538.178 404.027 544.263C397.853 547.776 389.588 550.573 382.474 550.661L381.577 521.6L380.969 521.639L376 511.117L383.641 502.956L409.481 476.662Z"/>
	<path fill="#D6F6A2" d="M409.481 476.662L418.609 484.631L393.979 509.155C389.925 513.141 385.118 517.192 381.577 521.6L380.969 521.639L376 511.117L383.641 502.956L409.481 476.662Z"/>
	<path fill="#29A5C0" d="M473.578 357.204L691.982 357.498C694.074 357.701 696.562 358.976 697.825 360.671C698.688 361.829 699.11 363.623 698.848 365.049C698.323 367.905 695.947 369.467 693.661 370.901C688.023 371.53 681.911 370.894 676.206 370.869L639.301 370.744L515.504 370.615C509.454 370.623 475.472 371.695 472.385 370.25C470.729 369.474 469.086 367.531 468.559 365.781C468.067 364.145 468.224 361.704 469.178 360.25C470.339 358.478 471.548 357.679 473.578 357.204Z"/>
	<path fill="#29A5C0" d="M692.54 613.827L548.988 613.794L501.047 613.862C493.267 613.87 485.212 614.297 477.468 613.828C474.992 613.677 472.956 613.453 471.034 611.743C469.783 610.628 468.868 609.009 468.817 607.31C468.759 605.342 469.783 603.201 471.18 601.847C472.393 600.672 473.841 600.181 475.5 600.063C483.191 599.514 491.237 600.024 498.962 600.034L546.514 600.069L693.768 599.93C693.101 604.508 692.487 609.192 692.54 613.827Z"/>
	<path fill="#29A5C0" d="M473.488 478.568L692.25 478.457C694.132 478.71 695.846 479.823 696.969 481.352C698.013 482.773 698.556 484.311 698.225 486.076C697.701 488.862 696.016 490.35 693.816 491.936L474.414 492.035C472.767 491.8 471.418 490.763 470.45 489.446C469.226 487.781 468.761 485.505 469.133 483.487C469.562 481.159 471.657 479.752 473.488 478.568Z"/>
	<path fill="#3FAC46" d="M382.474 550.661L377.749 550.7C365.692 550.294 354.795 545.231 346.626 536.352C337.859 526.823 333.009 514.497 333.571 501.506C334.102 489.225 338.662 477.778 347.875 469.449C357.925 460.363 369.605 457.113 382.976 457.846C395.971 460.152 402.503 465.495 410.276 475.848L409.481 476.662L383.641 502.956L376 511.117L380.969 521.639L381.577 521.6L382.474 550.661Z"/>
	<path fill="#FEFEFE" d="M380.969 521.639C379.29 523.618 377.292 525.318 375.383 527.071C371.615 524.491 368.187 520.405 364.908 517.182C361.566 513.896 357.093 510.371 354.665 506.387C354.301 504.231 354.298 502.793 355.59 500.945C357.02 498.901 358.854 498.03 361.25 497.637C363.958 498.628 365.616 500.909 367.616 502.89L376 511.117L380.969 521.639Z"/>
	<path fill="#02923A" d="M382.976 457.846C395.971 460.152 402.503 465.495 410.276 475.848L409.481 476.662L383.641 502.956C382.143 499.658 383.004 492.805 382.997 489.081L382.976 457.846Z"/>
	<path fill="#3FAC46" d="M383.046 430.553C373.557 430.572 364.842 428.893 356.576 424.082C346.055 417.959 338.067 406.907 335.036 395.157C332.029 383.496 334.211 370.693 340.349 360.383C346.535 349.992 355.937 342.376 367.768 339.524L368.75 339.295C373.145 338.246 377.587 338.368 382.079 338.34C393.338 340.09 401.249 344.594 409.421 352.487L406.468 355.775C409.636 357.959 414.311 360.955 416.397 364.105L382.815 397.974L383.046 430.553Z"/>
	<path fill="#FEFEFE" d="M372 399.893L370.238 398.681C366.858 396.236 354.192 386.123 353.756 382.127C353.602 380.722 354.09 379.302 354.968 378.217C356.137 376.772 357.843 375.607 359.75 375.566C363.882 375.479 366.341 379.453 368.909 382.081L374.348 387.336C372.596 391.391 373.372 395.813 372 399.893Z"/>
	<path fill="#057A32" d="M382.079 338.34C393.338 340.09 401.249 344.594 409.421 352.487L406.468 355.775L382.607 378.859C381.163 375.535 381.962 369.391 381.966 365.709L382.079 338.34Z"/>
	<path fill="#D6F6A2" d="M406.468 355.775C409.636 357.959 414.311 360.955 416.397 364.105L382.815 397.974C380.981 399.574 379.199 401.29 377.1 402.537C375.287 401.756 373.642 400.995 372 399.893C373.372 395.813 372.596 391.391 374.348 387.336L382.607 378.859L406.468 355.775Z"/>
	<path fill="#3FAC46" d="M383.418 671.283L379.75 671.427C367.604 671.177 355.824 666.407 347.355 657.644C337.721 647.676 333.094 634.533 333.439 620.809C333.747 608.519 339.447 596.611 348.315 588.214C356.146 580.799 366.918 576.092 377.811 576.575C394.27 577.304 400.634 588.874 410.516 599.762L410.152 600.558L420.019 608.668L383.688 644.4C382.983 645.409 381.767 646.779 381.348 647.9C381.463 651.89 380.682 669.014 382 670.984L383.418 671.283Z"/>
	<path fill="#FEFEFE" d="M381.348 647.9C379.685 649.5 378.146 650.931 375.75 651.022C372.855 649.575 369.833 645.554 367.498 643.241C363.09 638.875 357.709 634.759 354.055 629.75C353.914 628.375 353.788 627.306 354.382 626.021C355.599 623.385 358.092 621.541 360.75 620.557C363.979 620.507 373.872 631.377 376.766 633.908C379.863 637.195 383.02 639.729 383.688 644.4C382.983 645.409 381.767 646.779 381.348 647.9Z"/>
	<path fill="#D6F6A2" d="M410.152 600.558L420.019 608.668L383.688 644.4C383.02 639.729 379.863 637.195 376.766 633.908C380.9 630.537 384.538 626.305 388.313 622.526L410.152 600.558Z"/>
	<path fill="#3FAC46" d="M381.972 794.669C376.663 795.247 370.715 794.19 365.68 792.479C353.153 788.222 343.465 778.908 337.75 767.05C331.701 754.5 331.046 741.789 335.758 728.632C340.038 716.682 348.456 707.327 359.984 701.981C369.547 697.546 380.95 696.381 390.895 700.113C399.922 703.501 406.662 709.746 410.659 718.466L404.976 724.342C408.486 726.861 412.155 729.504 415.222 732.556L384.104 763.907L381.477 766.806L381.972 794.669Z"/>
	<path fill="#FEFEFE" d="M381.477 766.806L379.49 768.497C377.815 769.832 376.981 770.027 374.87 769.75C371.744 767.799 369.338 764.667 366.707 762.106L357.986 753.644C356.213 751.917 354.064 750.121 352.878 747.925C352.182 746.637 352.002 745.649 352.527 744.25C353.527 741.587 356.589 739.22 359 737.899C359.5 737.911 360.025 737.778 360.5 737.936C362.09 738.465 363.872 740.662 365.029 741.83C368.67 745.508 372.193 749.489 376.192 752.766L376.672 753.15C380.374 756.413 382.683 759.058 384.104 763.907L381.477 766.806Z"/>
	<path fill="#D6F6A2" d="M404.976 724.342C408.486 726.861 412.155 729.504 415.222 732.556L384.104 763.907C382.683 759.058 380.374 756.413 376.672 753.15L404.976 724.342Z"/>
	<path fill="#E1E6E3" d="M624.564 248.949L645.627 249.021L645.44 249.6C644.843 252.124 645.333 255.371 645.374 258.004L645.599 282.102C645.638 287.146 646.431 293.746 644.821 298.557C643.795 301.621 641.676 303.979 639.002 305.725C637.831 306.491 636.861 306.814 635.5 307.051L634.829 307.172C628.794 308.143 621.676 307.445 615.531 307.396L576.259 307.215L467.772 307.542L434.57 307.49C429.373 307.481 423.918 307.851 418.75 307.419C416.852 307.26 414.667 306.504 413.134 305.356C411.382 304.044 410.134 302.59 409.499 300.5L409.337 299.983C408.404 296.652 408.753 291.402 408.908 287.948L554.371 288.007L602.827 288.019L616.736 287.994C619.516 287.985 622.753 288.323 625.372 287.27C627.861 286.269 629.386 284.371 630.406 281.952C631.743 278.782 631.399 271.593 629.959 268.5C628.83 266.074 627.022 264.847 624.557 264.026L624.564 248.949Z"/>
	<path fill="#0E5771" d="M624.557 264.026C627.022 264.847 628.83 266.074 629.959 268.5C631.399 271.593 631.743 278.782 630.406 281.952C629.386 284.371 627.861 286.269 625.372 287.27C622.753 288.323 619.516 287.985 616.736 287.994L602.827 288.019L554.371 288.007L408.908 287.948C404.881 287.991 399.078 288.703 395.424 287.016C393.278 286.026 391.351 283.982 390.565 281.75C389.388 278.405 389.41 271.396 391.25 268.269C392.757 265.707 395.037 264.694 397.782 263.929L624.557 264.026Z"/>
	<path fill="#02923A" d="M560.335 669.781C602.634 663.105 645.725 670.348 680.894 695.713C684.243 698.129 687.367 700.788 690.512 703.457C691.829 704.575 693.651 706.472 695.264 707.024C695.898 709.162 697.891 710.664 699.404 712.232L706.485 720.077C723.867 741.185 730.91 771.921 728.25 798.767C726.956 811.832 723.085 824.168 716.81 835.696C715.301 838.468 713.359 842.246 710.954 844.308L710.479 844.655L710.376 844.956C707.305 845.033 700.02 844.307 697.729 845.959C696.37 845.165 694.806 845.524 693.246 845.551L680.39 845.447C667.819 844.739 655.048 841.719 643.307 837.237C610.779 824.819 587.424 802.628 573.221 770.887L568.759 756.689L564.958 734.947L564.006 720.495L560.335 669.781Z"/>
	<path fill="#3FAC46" d="M560.335 669.781C602.634 663.105 645.725 670.348 680.894 695.713C684.243 698.129 687.367 700.788 690.512 703.457C691.829 704.575 693.651 706.472 695.264 707.024C695.898 709.162 697.891 710.664 699.404 712.232L706.485 720.077C723.867 741.185 730.91 771.921 728.25 798.767C726.956 811.832 723.085 824.168 716.81 835.696C715.301 838.468 713.359 842.246 710.954 844.308L710.479 844.655L705.998 828C701.284 812.507 694.23 797.907 686.114 783.932C664.107 746.034 632.327 712.699 595.657 688.75C588.69 684.2 581.337 679.961 573.891 676.25C569.707 674.165 565.225 672.473 561.138 670.232L560.335 669.781Z"/>
</svg>
