<?xml version="1.0" encoding="utf-8" ?>
<svg xmlns="http://www.w3.org/2000/svg" xmlns:xlink="http://www.w3.org/1999/xlink" width="1024" height="1024">
	<path fill="#FEFEFE" d="M0 -0L1024 0L1024 1024L-0 1024L0 -0Z"/>
	<path fill="#3DA9C0" d="M492.863 322.308L499.798 322.285L499.618 332.97L492.958 333.013L492.863 322.308Z"/>
	<path fill="#3DA9C0" d="M348.497 386.84L355.426 387.023L355.399 397.875L348.567 397.948L348.497 386.84Z"/>
	<path fill="#3DA9C0" d="M348.997 486.53L355.325 486.55L355.228 499.046L348.998 499.107L348.997 486.53Z"/>
	<path fill="#3DA9C0" d="M416.852 451.509L423.374 451.514L423.297 463.885L416.929 463.967L416.852 451.509Z"/>
	<path fill="#3DA9C0" d="M267.448 379.064L273.5 379.051L273.479 392.358L267.443 392.388L267.448 379.064Z"/>
	<path fill="#3DA9C0" d="M492.825 484.965L499.355 484.943L499.341 498.974L492.829 499.005L492.825 484.965Z"/>
	<path fill="#3DA9C0" d="M416.496 357.631L423.065 357.552L423.063 372.166L416.553 372.164L416.496 357.631Z"/>
	<path fill="#3DA9C0" d="M354.29 519.513L365.496 519.414L365.451 537.725L353.393 537.879C353.406 532.694 352.438 524.223 354.29 519.513Z"/>
	<path fill="#3DA9C0" d="M492.962 279.537L499.25 280.074C499.551 280.674 499.96 281.35 500.174 281.983C499.555 284.923 499.994 288.649 499.995 291.668L500.014 312.848L492.786 312.914L492.962 279.537Z"/>
	<path fill="#3DA9C0" d="M416.641 386.888L423.47 386.796L423.373 438.079L416.722 438.078L416.641 386.888Z"/>
	<path fill="#3DA9C0" d="M348.781 412.045L355.425 412.011L355.378 473.339L348.71 473.296L348.781 412.045Z"/>
	<path fill="#3DA9C0" d="M416.507 540.349L416.644 539.658C417.007 537.684 416.791 535.373 416.793 533.357L416.795 520.752L416.717 477.245L423.449 477.271L423.483 539.973C421.623 540.009 418.713 539.671 417.14 540.692L416.507 540.349Z"/>
	<path fill="#3DA9C0" d="M416.836 279.536L423.181 279.495L423.087 344.635L416.547 344.782L416.836 279.536Z"/>
	<path fill="#3DA9C0" d="M267.488 475.697L267.427 404.453L273.633 404.46L273.706 475.632L267.488 475.697Z"/>
	<path fill="#3DA9C0" d="M492.642 514.499L499.572 514.506L499.399 582.008L492.609 582.053L492.642 514.499Z"/>
	<path fill="#58788D" d="M119.279 575.019L119.207 552.201C119.196 548.324 118.879 543.88 119.806 540.101C120.976 535.332 123.304 530.898 126.403 527.103C131.562 520.784 138.713 518.046 146.649 517.272L147.993 517.75C146.891 519.264 143.978 520.422 142.337 521.468C138.625 523.835 134.781 527.222 132.47 531L132.106 531.577C130.145 534.723 129.183 537.778 128.147 541.301C126.905 545.53 127.128 550.46 127.102 554.85L127.096 575.025L119.279 575.019Z"/>
	<path fill="#298FA7" d="M183.569 516.976L183.468 510.527C186.86 510.539 197.609 509.609 199.954 511.25L199.93 515.119L199.988 517.508C199.031 523.974 199.413 531.517 199.672 538.07L199.989 539.034C199.955 540.519 200.286 541.603 199.25 542.731L183.48 542.842L183.663 534.388C184.405 529.021 184.283 522.348 183.569 516.976Z"/>
	<path fill="#AAD6DA" d="M186.813 514.724C187.834 514.957 188.567 515.099 189.404 515.75L189.338 537.875C188.346 537.838 187.828 537.826 187.002 537.25L186.813 514.724Z"/>
	<path fill="#AAD6DA" d="M195.581 537.517C194.587 537.492 194.346 537.47 193.421 537C192.607 533.747 192.996 529.623 192.962 526.241C192.928 522.9 192.493 518.894 193.138 515.647L195.679 515.005C196.108 520.237 195.968 525.563 195.972 530.814C195.974 532.907 196.342 535.592 195.581 537.517Z"/>
	<path fill="#3DA9C0" d="M199.93 515.119L199.988 517.508C199.031 523.974 199.413 531.517 199.672 538.07C197.975 537.17 197.492 537.126 195.581 537.517C196.342 535.592 195.974 532.907 195.972 530.814C195.968 525.563 196.108 520.237 195.679 515.005C197.013 515.236 198.567 515.111 199.93 515.119Z"/>
	<path fill="#256A7A" d="M199.988 517.508L223.67 517.559L223.638 538.961L199.989 539.034L199.672 538.07C199.413 531.517 199.031 523.974 199.988 517.508Z"/>
	<path fill="#3DA9C0" d="M493.004 343.181L499.52 343.144L499.505 472.527L492.886 472.577L493.004 343.181Z"/>
	<path fill="#58788D" d="M273.706 475.632C278.798 475.602 290.039 474.152 293.597 477.905C296.266 480.72 297.938 484.99 299.372 488.557L259.435 488.573L259.092 488.443L225.682 488.471L228.259 481.632C229.562 478.849 231.052 477.051 233.958 475.948C237.286 475.027 241.753 475.541 245.226 475.542L267.488 475.697L273.706 475.632Z"/>
	<path fill="#195871" d="M225.682 488.471L228.259 481.632C229.562 478.849 231.052 477.051 233.958 475.948L259.402 476.191C259.367 480.15 259.716 484.549 259.092 488.443L225.682 488.471Z"/>
	<path fill="#37733E" d="M943.925 795.824L956.908 824.365C958.965 828.834 962.391 833.738 963.48 838.499C964.318 842.161 963.893 846.307 962.752 849.875C961.092 855.069 957.808 859.452 953.134 862.274C952.597 860.786 952.087 859.563 951.043 858.359C948.854 855.832 946.559 853.469 944.655 850.705C941.553 846.202 939.163 841.242 936.106 836.685L944.446 831.706C946.045 830.674 947.589 829.911 947.99 828C947.17 826.626 947.258 826.341 945.75 825.899C941.48 826.822 936.553 830.649 932.823 832.949C932.873 830.453 932.964 828.05 933.556 825.614C934.678 820.997 936.79 816.741 938.315 812.265C940.134 806.926 941.222 800.746 943.925 795.824Z"/>
	<path fill="#298FA7" d="M139.994 574.881C142.152 575.009 143.549 574.783 145.348 576.122C146.098 580.512 146.344 586.69 145.596 591.083L145.535 591.517C145.564 595.398 145.189 599.831 146.25 603.568C144.873 605.318 144.211 606.606 141.861 606.936L140.153 607.098L119.327 607.073C116.964 607.199 112.919 607.851 110.942 606.518C110.131 604.771 110.062 603.094 109.906 601.193L109.958 590.968L109.921 587.008C109.923 583.706 109.426 579.366 110.413 576.25C112.161 574.794 113.265 575.065 115.425 574.964L119.279 575.019L127.096 575.025L139.994 574.881Z"/>
	<path fill="#195871" d="M116.63 590.955L145.596 591.083L145.535 591.517L116.933 591.331L116.902 601.391L109.906 601.193L109.958 590.968L116.63 590.955Z"/>
	<path fill="#0E364C" d="M116.902 601.391L145.09 601.323L146.25 603.568C144.873 605.318 144.211 606.606 141.861 606.936L140.153 607.098L119.327 607.073C116.964 607.199 112.919 607.851 110.942 606.518C110.131 604.771 110.062 603.094 109.906 601.193L116.902 601.391Z"/>
	<path fill="#2F778D" d="M139.994 574.881C142.152 575.009 143.549 574.783 145.348 576.122C146.098 580.512 146.344 586.69 145.596 591.083L116.63 590.955L109.958 590.968L109.921 587.008C109.923 583.706 109.426 579.366 110.413 576.25C112.161 574.794 113.265 575.065 115.425 574.964L119.279 575.019L127.096 575.025L139.994 574.881Z"/>
	<path fill="#0E364C" d="M109.921 587.008C109.923 583.706 109.426 579.366 110.413 576.25C112.161 574.794 113.265 575.065 115.425 574.964C117.614 577.932 115.804 582.835 116.877 586.365L144.98 586.25C145.716 587.565 145.544 589.58 145.596 591.083L116.63 590.955L109.958 590.968L109.921 587.008Z"/>
	<path fill="#11244C" d="M109.921 587.008C112.125 586.652 114.347 586.639 116.573 586.566C116.635 588.028 116.743 589.494 116.63 590.955L109.958 590.968L109.921 587.008Z"/>
	<path fill="#298FA7" d="M350.157 514.301C351.598 514.169 353.273 513.604 354.435 514.5C354.436 516.173 354.499 517.852 354.29 519.513C352.438 524.223 353.406 532.694 353.393 537.879L353.332 542.936L352.5 543.432C351.391 543.061 349.922 542.944 349.447 541.75L349.174 538.436L306.324 538.51L303.515 538.487C304.331 532.027 304.013 525.474 303.916 518.978L303.842 515.601L332.743 515.058C338.375 515.014 344.649 515.532 350.157 514.301Z"/>
	<path fill="#3DA9C0" d="M303.916 518.978L304.77 519.058C305.668 519.116 305.974 519.113 306.75 518.755C308.167 520.887 306.169 525.616 307.72 527.25C306.445 529.071 307.904 530.045 306.31 531.75C306.613 532.628 306.359 532.174 307.245 533C307.245 534.268 307.522 536.278 306.887 537.325C306.424 538.089 306.575 537.764 306.324 538.51L303.515 538.487C304.331 532.027 304.013 525.474 303.916 518.978Z"/>
	<path fill="#3DA9C0" d="M151.837 279.583L257.685 279.42L355.62 279.581L355.505 373.885L348.647 373.979L348.997 279.757L294.201 279.853L280.777 279.868C278.47 279.87 275.855 279.594 273.619 280.092L273.734 366.701L267.397 366.898L267.447 279.862L189.542 279.793L166.069 279.832C161.377 279.838 156.493 280.124 151.837 279.583Z"/>
	<path fill="#9EA9AE" d="M183.569 516.976C184.283 522.348 184.405 529.021 183.663 534.388L183.25 533.142C177.274 532.588 171.007 532.921 164.996 532.921C161.06 532.921 156.611 532.499 152.756 533.132C150.304 533.535 147.563 534.977 145.698 536.585C142.445 539.391 140.623 543.258 140.414 547.519L139.994 574.881L127.096 575.025L127.102 554.85C127.128 550.46 126.905 545.53 128.147 541.301C129.183 537.778 130.145 534.723 132.106 531.577L132.47 531C134.781 527.222 138.625 523.835 142.337 521.468C143.978 520.422 146.891 519.264 147.993 517.75L146.649 517.272C150.842 516.664 155.405 516.991 159.659 516.986L183.569 516.976Z"/>
	<path fill="#4C9053" d="M892.131 786.809L915.031 731.42L943.925 795.824C941.222 800.746 940.134 806.926 938.315 812.265C936.79 816.741 934.678 820.997 933.556 825.614C932.964 828.05 932.873 830.453 932.823 832.949L914.746 844.03C914.349 837.708 914.581 831.221 914.577 824.88C914.577 823.999 914.329 819.92 914.703 819.261C914.939 818.844 916.393 818.042 916.897 817.678C919.566 815.748 924.605 812.977 926.203 810.25C925.562 808.728 925.034 808.186 923.75 807.145C920.255 807.651 917.116 810.895 914.523 813.114L914.608 793.706C914.617 791.296 915.04 787.969 914.303 785.699C912.905 785.368 911.644 784.884 910.25 785.449C909.41 788.032 909.545 790.84 909.469 793.535C906.937 791.36 903.318 787.662 900.25 786.552C897.689 787.484 894.894 786.576 892.131 786.809Z"/>
	<path fill="#195871" d="M541.175 401.183L521.897 416.829L518.046 411.025L600.942 345.484L620.671 329.675C624.753 326.437 628.855 322.935 633.423 320.403L713.41 381.55L764.665 341.735L781.878 328.547C785.307 325.953 788.792 322.991 792.61 321.008L907.755 409.279L892.083 408.932C889.638 408.528 886.971 408.642 884.49 408.561C884.475 406.014 884.317 403.339 884.662 400.815L884.812 399.807L794.196 329.52L792.75 328.764L699.465 400.531L699.459 425.408C699.037 427.929 698.551 430.194 699 432.75L696.745 432.75L695.912 429.904L695.839 403.286L675.364 417.125C677.609 413.695 680.456 410.788 683.184 407.75C690.93 399.124 699.208 392.257 708.545 385.411C694.761 376.495 682.203 365.332 669.123 355.402L649.228 340.632C644.89 337.423 640.125 334.134 636.278 330.342L635.573 329.634L633.75 328.869C629.548 331.169 625.642 334.674 621.827 337.589L596.283 357.62L541.175 401.183Z"/>
	<path fill="#531C02" d="M892.131 786.809C894.894 786.576 897.689 787.484 900.25 786.552C903.318 787.662 906.937 791.36 909.469 793.535C909.545 790.84 909.41 788.032 910.25 785.449C911.644 784.884 912.905 785.368 914.303 785.699C915.04 787.969 914.617 791.296 914.608 793.706L914.523 813.114C917.116 810.895 920.255 807.651 923.75 807.145C925.034 808.186 925.562 808.728 926.203 810.25C924.605 812.977 919.566 815.748 916.897 817.678C916.393 818.042 914.939 818.844 914.703 819.261C914.329 819.92 914.577 823.999 914.577 824.88C914.581 831.221 914.349 837.708 914.746 844.03L932.823 832.949C936.553 830.649 941.48 826.822 945.75 825.899C947.258 826.341 947.17 826.626 947.99 828C947.589 829.911 946.045 830.674 944.446 831.706L936.106 836.685C939.163 841.242 941.553 846.202 944.655 850.705C946.559 853.469 948.854 855.832 951.043 858.359C952.087 859.563 952.597 860.786 953.134 862.274C944.735 868.787 932.201 867.453 922.166 867.463C919.865 867.465 916.992 867.129 914.824 867.83L914.491 867.926L914.495 867.595C912.737 867.147 911.451 867.198 909.657 867.406L909.497 867.786C907.324 867.207 904.51 867.51 902.247 867.502L887.589 867.473L871.717 867.487C869.73 867.492 866.95 867.151 865.104 867.834L865.068 867.488C865.563 864.157 864.491 859.341 865.385 856.313C865.643 855.44 868.57 852.883 869.342 852.052C870.431 850.744 871.889 849.313 872.545 847.75C871.963 846.533 871.308 846.193 870.25 845.428C868.363 845.669 867.33 847.343 866.034 848.695L866.069 838.697L866.344 806.806C872.712 805.056 878.556 804.182 885.116 805.276L887.01 806.478C889.518 800.862 892.2 792.976 892.131 786.809Z"/>
	<path fill="#4C9053" d="M896.139 833.71C899.701 832.128 905.718 834.239 909.524 834.69L909.486 843.209L896.139 833.71Z"/>
	<path fill="#4C9053" d="M936.106 836.685C939.163 841.242 941.553 846.202 944.655 850.705C946.559 853.469 948.854 855.832 951.043 858.359C952.087 859.563 952.597 860.786 953.134 862.274C944.735 868.787 932.201 867.453 922.166 867.463C919.865 867.465 916.992 867.129 914.824 867.83L914.491 867.926L914.495 867.595L914.605 850.707C916.358 848.682 919.264 847.033 921.51 845.592L936.106 836.685Z"/>
	<path fill="#4C9053" d="M878.952 829.083C885.146 832.175 891.088 836.223 896.756 840.181C901.222 843.299 905.761 846.276 909.517 850.26C909.522 855.788 908.999 861.954 909.657 867.406L909.497 867.786C907.324 867.207 904.51 867.51 902.247 867.502L887.589 867.473L871.717 867.487C869.73 867.492 866.95 867.151 865.104 867.834L865.068 867.488C865.563 864.157 864.491 859.341 865.385 856.313C865.643 855.44 868.57 852.883 869.342 852.052C870.431 850.744 871.889 849.313 872.545 847.75C871.963 846.533 871.308 846.193 870.25 845.428C868.363 845.669 867.33 847.343 866.034 848.695L866.069 838.697L873.233 833.41C875.286 832.029 877.374 831.04 878.952 829.083Z"/>
	<path fill="#37733E" d="M869.342 852.052C870.628 855.323 873.183 857.927 876.058 859.885L876.727 860.352C879.051 861.941 881.564 863.168 884.11 864.358C885.391 864.957 886.973 865.371 887.872 866.5L887.589 867.473L871.717 867.487C869.73 867.492 866.95 867.151 865.104 867.834L865.068 867.488C865.563 864.157 864.491 859.341 865.385 856.313C865.643 855.44 868.57 852.883 869.342 852.052Z"/>
	<path fill="#37733E" d="M892.131 786.809C893.189 788.13 894.488 788.553 896 789.182L896.478 788.734C897.179 788.109 896.876 788.32 897.75 787.955C897.75 790.039 897.913 790.156 899.362 791.634C902.264 794.595 905.796 797.086 909.145 799.51L909.524 834.69C905.718 834.239 899.701 832.128 896.139 833.71C894.455 833.11 892.758 831.722 891.212 830.793C889.147 829.552 886.975 828.496 884.817 827.428C883.476 826.764 882.032 825.806 880.5 826.007C879.495 827.228 879.089 827.469 878.952 829.083C877.374 831.04 875.286 832.029 873.233 833.41L866.069 838.697L866.344 806.806C872.712 805.056 878.556 804.182 885.116 805.276L887.01 806.478C889.518 800.862 892.2 792.976 892.131 786.809Z"/>
	<path fill="#4C9053" d="M892.131 786.809C893.189 788.13 894.488 788.553 896 789.182L896.478 788.734C897.179 788.109 896.876 788.32 897.75 787.955C897.75 790.039 897.913 790.156 899.362 791.634C902.264 794.595 905.796 797.086 909.145 799.51L909.1 800.065L909.161 823.586L890.362 817.321C890.788 814.505 891.627 810.711 889.833 808.165C889.089 807.109 888.206 806.75 887.01 806.478C889.518 800.862 892.2 792.976 892.131 786.809Z"/>
	<path fill="#195871" d="M299.372 488.557L315.515 488.449L315.394 497.684C312.883 497.707 305.348 497.034 303.579 498.25L303.426 502.659C303.423 506.113 302.556 512.576 303.842 515.601L303.916 518.978C304.013 525.474 304.331 532.027 303.515 538.487L303.442 562.492L302.816 563.155C297.926 562.564 292.414 563.035 287.455 563.043L258.548 563.238L223.559 563.243L223.638 538.961L223.67 517.559L223.611 498.043L213.986 498.016L213.979 488.998C217.172 489.005 222.195 489.669 225.154 488.704L225.682 488.471L259.092 488.443L259.435 488.573L299.372 488.557Z"/>
	<path fill="#67C2D8" d="M223.67 517.559L223.611 498.043L213.986 498.016L213.979 488.998C217.172 489.005 222.195 489.669 225.154 488.704L225.682 488.471L259.092 488.443L259.435 488.573C258.47 491.305 258.938 495.269 258.951 498.185L287.736 497.993C292.694 497.956 298.211 497.436 303.105 498.143L302.608 498.217C294.667 499.3 285.709 498.536 277.663 498.543L224.047 498.418L224.024 511.809C224.017 513.609 224.305 515.892 223.67 517.559Z"/>
	<path fill="#AAD6DA" d="M299.372 488.557L315.515 488.449L315.394 497.684C312.883 497.707 305.348 497.034 303.579 498.25L303.426 502.659L302.969 502.538L303.105 498.143C298.211 497.436 292.694 497.956 287.736 497.993L258.951 498.185C258.938 495.269 258.47 491.305 259.435 488.573L299.372 488.557Z"/>
	<path fill="#58788D" d="M302.969 502.538L303.426 502.659C303.423 506.113 302.556 512.576 303.842 515.601L303.916 518.978C304.013 525.474 304.331 532.027 303.515 538.487L303.442 562.492L302.816 563.155C297.926 562.564 292.414 563.035 287.455 563.043L258.548 563.238L258.511 506.964L288.704 506.676C293.182 506.619 298.369 507.151 302.75 506.333L302.969 502.538Z"/>
	<defs>
		<linearGradient id="gradient_0" gradientUnits="userSpaceOnUse" x1="150.69925" y1="808.15155" x2="68.455261" y2="795.67004">
			<stop offset="0" stop-color="#396F3A"/>
			<stop offset="1" stop-color="#4E935E"/>
		</linearGradient>
	</defs>
	<path fill="url(#gradient_0)" d="M70.516 862.681C66.4891 860.125 63.3051 855.998 61.7914 851.501C60.6803 848.201 60.0956 844.716 60.9486 841.281C62.333 835.707 65.019 830.117 67.3646 824.871L77.7532 801.786L96.7896 758.72C100.431 750.532 103.859 742.159 107.986 734.202L119.641 759.191C120.972 764.79 123.936 771.735 126.962 776.623C128.934 782.384 131.566 787.859 134.009 793.428C135.74 797.376 137.238 801.483 139.43 805.209L141.299 810.536L141.365 811.087C141.892 815.262 143.132 819.371 143.964 823.5C145.879 833.011 147.247 844.514 144.25 853.898C143.278 856.943 140.955 859.229 139.886 862.077C131.775 868.447 119.74 866.983 109.971 866.989L110.077 885.35C109.551 890.673 109.964 896.331 109.972 901.692C109.975 903.37 110.383 906.101 109.5 907.489L105 907.459C103.845 905.725 104.542 900.056 104.547 897.833L104.484 867.009L104.093 867.041C92.2696 865.72 81.4368 869.32 70.516 862.681Z"/>
	<path fill="#37733E" d="M101.147 848.349L104.095 850.932L104.484 867.009L104.093 867.041C92.2696 865.72 81.4368 869.32 70.516 862.681C71.0654 862.134 71.6688 861.761 72.3103 861.331L77.2411 860.777C82.9276 859.583 87.657 856.997 92.7533 854.337C95.9628 852.662 99.1066 851.507 101.147 848.349Z"/>
	<path fill="#531C02" d="M104.751 804.969C102.424 801.606 98.7759 799.011 95.8609 796.141C94.6308 794.93 93.3638 794.022 93.0167 792.25C93.7214 790.919 93.8578 790.102 95.25 789.457C96.8093 790.361 98.1462 791.479 99.4842 792.677L104.34 797.584L104.918 791C106.407 789.771 107.356 790.051 109.25 789.972C110.845 791.7 109.984 800.753 109.989 803.543L117.788 797.555C118.358 797.09 120.159 795.199 120.75 795.018C121.298 794.851 121.893 795.094 122.464 795.132C123.548 795.93 123.909 795.969 124.245 797.25C120.756 801.164 116.481 804.361 112.722 808.022C112.124 808.604 110.396 809.934 110.069 810.64C109.52 811.826 109.924 816.009 109.924 817.416L109.956 842.242L121.033 832.715C122.781 831.257 123.958 829.694 126.25 829.463L127.393 830.5C127.179 834.666 115.962 843.087 112.846 846.207C112.181 846.872 110.203 848.616 109.877 849.443C109.621 850.094 109.893 852.425 109.898 853.281L109.971 866.989L110.077 885.35C109.551 890.673 109.964 896.331 109.972 901.692C109.975 903.37 110.383 906.101 109.5 907.489L105 907.459C103.845 905.725 104.542 900.056 104.547 897.833L104.484 867.009L104.095 850.932L101.147 848.349L82.9143 832.587C81.5324 831.253 81.1525 830.657 81.1473 828.75L83 826.905C85.661 827.003 90.0662 832.11 92.4504 833.861L92.8941 834.182C94.9405 834.067 96.9698 834.482 99.0248 834.143C100.908 833.833 102.78 832.824 104.495 832.011C104.448 823.248 103.576 813.621 104.751 804.969Z"/>
	<path fill="#37733E" d="M92.8941 834.182C94.9405 834.067 96.9698 834.482 99.0248 834.143C100.908 833.833 102.78 832.824 104.495 832.011L104.487 845.202L92.8941 834.182Z"/>
	<path fill="#298FA7" d="M201.125 295.674L235.001 353.15C238.559 359.488 242.611 365.735 245.596 372.356C247.56 376.714 249.147 381.539 249.603 386.308C250.814 398.975 246.791 411.717 238.6 421.427C228.575 433.312 216.113 437.174 201.132 438.485C191.652 438.558 181.83 436.013 173.75 431.004C163.548 424.68 155.395 413.365 152.805 401.618C151.018 393.516 151.557 384.857 154.118 376.973C158.191 364.431 167.067 352.89 173.75 341.622L201.125 295.674Z"/>
	<path fill="#FEFEFE" d="M175.121 393.849C175.815 395.921 176.813 398.475 176.958 400.667C177.053 402.101 176.357 404.112 175.348 405.126C174.244 406.236 173.733 406.021 172.25 406.05C171.597 405.703 170.988 405.366 170.499 404.792C168.711 402.696 168.171 398.906 168.392 396.25C168.615 393.562 170.386 391.346 172.387 389.699L175.121 393.849Z"/>
	<path fill="#3DA9C0" d="M172.387 389.699L172.421 389.571L172 389.009C167.427 390.821 165.844 394.405 163.048 398.22L161.879 393L161.148 389.797C160.268 383.901 161.966 376.534 164.026 371C167.467 361.754 173.067 353.388 177.673 344.7L189.25 323.007C191.31 319.255 193.138 315.358 195.71 311.92C196.02 315.829 193.281 321.279 192.011 325C187.875 337.125 183.149 349.083 180.124 361.55C178.794 367.032 177.549 372.842 177.553 378.5C177.559 386.308 179.458 394.5 182.318 401.726C185.465 409.675 189.135 416.727 195.75 422.392C196.466 423.005 197.191 423.442 198 423.916L202.627 426.665C200.188 427 197.982 426.276 195.612 425.739C188.94 424.227 183.331 422.157 177.735 418.182C175.482 416.358 173.677 414.135 171.785 411.952L173.38 411.289C175.716 410.274 178.022 409.008 178.85 406.409C180.033 402.696 177.379 397.204 175.75 393.906L175.121 393.849L172.387 389.699Z"/>
	<path fill="#67C2D8" d="M195.71 311.92L201.531 298.708L201.768 299.256C204.233 304.825 207.574 310.102 210.416 315.5L227.89 348.661C233.746 359.376 241.197 370.343 243.655 382.464C245.101 389.592 244.334 398.139 241.797 404.961C238.452 413.956 232.501 421.972 223.5 425.903C219.782 427.527 215.968 427.567 211.994 427.581L202.627 426.665L198 423.916C197.191 423.442 196.466 423.005 195.75 422.392C189.135 416.727 185.465 409.675 182.318 401.726C179.458 394.5 177.559 386.308 177.553 378.5C177.549 372.842 178.794 367.032 180.124 361.55C183.149 349.083 187.875 337.125 192.011 325C193.281 321.279 196.02 315.829 195.71 311.92Z"/>
	<path fill="#CAC3BB" d="M541.175 401.183L596.283 357.62L621.827 337.589C625.642 334.674 629.548 331.169 633.75 328.869L635.573 329.634L636.278 330.342C640.125 334.134 644.89 337.423 649.228 340.632L669.123 355.402C682.203 365.332 694.761 376.495 708.545 385.411C699.208 392.257 690.93 399.124 683.184 407.75C680.456 410.788 677.609 413.695 675.364 417.125L695.839 403.286L695.912 429.904L695.907 433.033L567.507 433.113L541.405 432.983L541.175 401.183Z"/>
	<path fill="#9EA9AE" d="M541.175 401.183L596.283 357.62L621.827 337.589C625.642 334.674 629.548 331.169 633.75 328.869L635.573 329.634L635.306 330.023C631.801 334.932 626.574 339.031 622.444 343.462L578.018 392.475L570.152 401.658C569.567 402.397 568.29 403.784 567.991 404.646C567.283 406.684 567.6 410.497 567.579 412.746L567.507 433.113L541.405 432.983L541.175 401.183Z"/>
	<path fill="#CAC3BB" d="M699.459 425.408L699.465 400.531L792.75 328.764L794.196 329.52L884.812 399.807L884.662 400.815C884.317 403.339 884.475 406.014 884.49 408.561C886.971 408.642 889.638 408.528 892.083 408.932L884.593 409.081C884.601 416.734 883.775 425.407 884.824 432.93L884.908 512.259C883.627 504.218 884.572 494.912 884.568 486.688L884.471 433.342L744.608 433.36L699.554 433.235L699.459 425.408Z"/>
	<path fill="#9EA9AE" d="M699.459 425.408L699.465 400.531L792.75 328.764L794.196 329.52L793.94 329.971C790.878 335.087 785.286 339.313 781.218 343.699C763.426 362.879 743.528 380.934 727.643 401.752C725.517 404.538 726.533 428.084 726.535 432.968L884.824 432.93L884.908 512.259C883.627 504.218 884.572 494.912 884.568 486.688L884.471 433.342L744.608 433.36L699.554 433.235L699.459 425.408Z"/>
	<path fill="#FEFEFE" d="M139.994 574.881L140.414 547.519C140.623 543.258 142.445 539.391 145.698 536.585C147.563 534.977 150.304 533.535 152.756 533.132C156.611 532.499 161.06 532.921 164.996 532.921C171.007 532.921 177.274 532.588 183.25 533.142L183.663 534.388L183.48 542.842L199.25 542.731C200.286 541.603 199.955 540.519 199.989 539.034L223.638 538.961L223.559 563.243L223.547 591.918C206.813 592.572 192.158 599.134 180.777 611.555C173.628 619.358 169.243 628.661 167.237 639.032C166.137 644.718 166.548 650.776 166.556 656.543L166.641 682.839L166.953 723.909L167.072 748.734L167.337 751.876C165.844 758.538 161.893 765.504 159.136 771.838L145.677 801.336C144.215 804.342 143.032 807.701 141.299 810.536L139.43 805.209C137.238 801.483 135.74 797.376 134.009 793.428C131.566 787.859 128.934 782.384 126.962 776.623C123.936 771.735 120.972 764.79 119.641 759.191C120.16 754.187 119.626 748.636 119.584 743.572L119.517 713.132L119.327 607.073L140.153 607.098L141.861 606.936C144.211 606.606 144.873 605.318 146.25 603.568C145.189 599.831 145.564 595.398 145.535 591.517L145.596 591.083C146.344 586.69 146.098 580.512 145.348 576.122C143.549 574.783 142.152 575.009 139.994 574.881Z"/>
	<path fill="#9EA9AE" d="M119.327 607.073L140.153 607.098L139.984 607.483L140.237 750.414L140.276 786.635C140.229 792.598 140.58 799.361 139.43 805.209C137.238 801.483 135.74 797.376 134.009 793.428C131.566 787.859 128.934 782.384 126.962 776.623C123.936 771.735 120.972 764.79 119.641 759.191C120.16 754.187 119.626 748.636 119.584 743.572L119.517 713.132L119.327 607.073Z"/>
	<path fill="#58788D" d="M119.327 607.073L140.153 607.098L139.984 607.483L126.965 607.422L126.962 776.623C123.936 771.735 120.972 764.79 119.641 759.191C120.16 754.187 119.626 748.636 119.584 743.572L119.517 713.132L119.327 607.073Z"/>
	<path fill="#58788D" d="M567.507 433.113L695.907 433.033L695.874 524.144L581.351 524.091L541.463 524.021L541.492 433.413L541.405 432.983L567.507 433.113Z"/>
	<path fill="#67C2D8" d="M588.871 456.921L590.579 456.648C594.802 457.256 597.811 458.501 600.441 461.99C606.943 470.614 607.354 486.506 605.75 496.812C605.222 500.206 603.746 503.186 600.83 505.144C598.44 506.749 594.043 508.737 591.053 508.348L590.48 508.207L590.296 508.421L588.384 508.677C586.329 508.306 584.137 507.929 582.25 506.995C577.471 504.631 576.19 500.376 574.664 495.678L574.583 494.472C573.954 483.861 575.671 468.011 583.487 459.859C584.942 458.342 586.732 457.039 588.871 456.921Z"/>
	<path fill="#3DA9C0" d="M588.871 456.921L590.579 456.648L590.306 486.64L590.48 508.207L590.296 508.421L588.384 508.677C586.329 508.306 584.137 507.929 582.25 506.995C577.471 504.631 576.19 500.376 574.664 495.678L574.583 494.472C573.954 483.861 575.671 468.011 583.487 459.859C584.942 458.342 586.732 457.039 588.871 456.921Z"/>
	<path fill="#195871" d="M588.871 456.921L590.579 456.648L590.306 486.64L590.48 508.207L590.296 508.421L588.384 508.677L588.836 457.393L588.871 456.921Z"/>
	<path fill="#195871" d="M541.492 433.413L565.994 433.472L566.745 523.5C570.061 523.508 573.587 523.756 576.875 523.434L589.872 523.364L590 509.524L589.424 509.478C585.452 509.131 582.192 508.648 579.125 505.875C578.004 504.862 577.011 504.098 576.255 502.75L576.25 502L575.894 501.431C575.33 500.5 575.585 500.95 575.115 499.837L574.731 498.947C574.182 497.582 574.1 496.976 574.664 495.678C576.19 500.376 577.471 504.631 582.25 506.995C584.137 507.929 586.329 508.306 588.384 508.677L590.296 508.421L590.458 523.874C587.464 523.879 584.313 523.69 581.351 524.091L541.463 524.021L541.492 433.413Z"/>
	<path fill="#3DA9C0" d="M569.91 108.328C576.159 105.194 582.412 101.981 589.057 99.7507C606.502 93.8946 625.838 94.3144 643.213 100.159C669.595 109.034 688.232 129.25 700.331 153.643L701.061 155.289C682.025 165.642 667.048 184.515 660.983 205.25L658.587 214.568C647.578 210.815 637.58 210.752 626.947 216.006C617.487 220.68 609.578 228.858 604.74 238.141L603.945 236.666C598.973 228.021 591.124 221.516 581.391 219.068C572.376 216.801 562.578 219.627 554.865 224.332C553.451 207.856 547.092 192.435 536.548 179.672C533.272 175.706 529.431 172.149 525.699 168.615C533.331 143.155 547.046 122.294 569.91 108.328Z"/>
	<path fill="#58788D" d="M699.459 425.408L699.554 433.235L744.608 433.36L884.471 433.342L884.568 486.688C884.572 494.912 883.627 504.218 884.908 512.259L884.973 524.307L742.559 524.39L719.484 524.155L716.553 524.166L695.874 524.144L695.907 433.033L695.912 429.904L696.745 432.75L699 432.75C698.551 430.194 699.037 427.929 699.459 425.408Z"/>
	<path fill="#67C2D8" d="M743.071 456.397C746.155 456.356 748.091 457.009 750.303 459.211C756.986 465.865 758.699 480.117 758.398 489.244C758.218 494.661 757.825 500.522 753.45 504.345C751.535 506.019 746.38 508.23 743.75 508.039C743.13 507.994 743.036 507.907 742.546 507.679L742.616 473.61L743.071 456.397Z"/>
	<path fill="#256A7A" d="M699.459 425.408L699.554 433.235L744.608 433.36L744.425 455.75L743.071 456.397L742.616 473.61L742.546 507.679L742.477 508.011L742.883 524.204L719.484 524.155L716.553 524.166L695.874 524.144L695.907 433.033L695.912 429.904L696.745 432.75L699 432.75C698.551 430.194 699.037 427.929 699.459 425.408Z"/>
	<path fill="#3DA9C0" d="M741.273 456.038L742.54 457C742.496 462.404 742.032 468.261 742.616 473.61L742.546 507.679L742.477 508.011L741.058 508.404L736.75 507.503C733.391 506.4 730.907 503.984 729.391 500.808C724.876 491.348 727.437 477.175 731.007 467.75C733.168 462.045 735.637 458.515 741.273 456.038Z"/>
	<path fill="#195871" d="M741.273 456.038L742.54 457C742.496 462.404 742.032 468.261 742.616 473.61L742.546 507.679L742.477 508.011L741.058 508.404L740.598 472.846C740.619 467.435 740.127 461.292 741.273 456.038Z"/>
	<path fill="#0A3643" d="M699.459 425.408L699.554 433.235L700.065 433.294L716.846 433.541L716.553 524.166L695.874 524.144L695.907 433.033L695.912 429.904L696.745 432.75L699 432.75C698.551 430.194 699.037 427.929 699.459 425.408Z"/>
	<path fill="#138291" d="M418.837 173.355L425.839 167.037C441.428 154.967 463.905 148.321 483.509 150.867C499.943 153.002 512.513 158.661 525.699 168.615C529.431 172.149 533.272 175.706 536.548 179.672C547.092 192.435 553.451 207.856 554.865 224.332C562.578 219.627 572.376 216.801 581.391 219.068C591.124 221.516 598.973 228.021 603.945 236.666L604.74 238.141C610.243 249.716 612.282 260.253 607.838 272.692L603.613 282.454L500.174 281.983C499.96 281.35 499.551 280.674 499.25 280.074L492.962 279.537L423.181 279.495L416.836 279.536L355.62 279.581L257.685 279.42L258.372 253.631L279.22 253.472L338.944 253.47L338.75 251.917C338.237 248.223 338.09 244.919 339.186 241.304L339.441 240.5C341.028 235.345 343.573 231.199 347.366 227.384C353.597 221.118 362.057 218.395 370.748 218.46C381.335 218.539 388.31 224.009 395.452 231.175C395.317 214.129 399.56 197.85 409.6 183.907C412.323 180.126 415.627 176.72 418.837 173.355Z"/>
	<path fill="#AAD6DA" d="M701.061 155.289C706.846 152.249 712.523 149.263 718.787 147.31C732.579 143.011 749.063 143.354 762.831 147.592C785.418 154.544 803.889 170.504 814.92 191.326C819.278 199.552 821.315 208.174 823.759 217.077C836.689 214.106 849.433 214.967 860.889 222.254C871.482 228.992 878.708 238.946 881.329 251.257C883.537 261.625 881.857 272.32 878.962 282.393C876.159 282.851 873.043 282.58 870.203 282.577L853.928 282.56L794.259 282.499L671.103 282.538L603.613 282.454L607.838 272.692C612.282 260.253 610.243 249.716 604.74 238.141C609.578 228.858 617.487 220.68 626.947 216.006C637.58 210.752 647.578 210.815 658.587 214.568L660.983 205.25C667.048 184.515 682.025 165.642 701.061 155.289Z"/>
	<path fill="#58788D" d="M541.463 524.021L581.351 524.091L695.874 524.144L716.553 524.166L719.484 524.155L742.559 524.39L884.973 524.307L901.522 524.198L901.53 532.642L884.991 532.794L884.833 613.978L742.467 613.995L716.526 614.038L695.788 614.029L590.09 613.985L565.618 613.993L540.829 614.029L540.896 532.904C538.853 532.318 536.066 532.644 533.923 532.643L519.679 532.662L519.605 523.958L541.463 524.021Z"/>
	<path fill="#67C2D8" d="M743.043 552.489C746.18 552.513 748.339 553.133 750.639 555.36C754.026 558.64 755.509 562.845 756.841 567.251C758.896 574.049 759.056 581.542 758.666 588.594C758.504 591.521 758.396 594.387 756.918 597.008C754.634 601.058 749.369 603.794 744.982 604.833C744.168 605.026 743.372 604.998 742.551 604.872C743.138 595.511 742.745 585.909 742.719 576.519C742.699 568.848 743.172 560.767 742.31 553.166L743.043 552.489Z"/>
	<path fill="#256A7A" d="M742.64 532.811L742.916 532.927L742.544 552.28L743.043 552.489L742.31 553.166C743.172 560.767 742.699 568.848 742.719 576.519C742.745 585.909 743.138 595.511 742.551 604.872L742.438 605.244L742.467 613.995L716.526 614.038L716.608 532.869L742.64 532.811Z"/>
	<path fill="#3DA9C0" d="M742.544 552.28L743.043 552.489L742.31 553.166C743.172 560.767 742.699 568.848 742.719 576.519C742.745 585.909 743.138 595.511 742.551 604.872L742.438 605.244L741.053 605.35C737.759 604.892 734.592 604.019 731.87 602.027C728.695 599.703 727.05 596.072 726.503 592.25C724.984 581.62 727.234 566.15 734.181 557.597C736.521 554.717 738.77 552.71 742.544 552.28Z"/>
	<path fill="#195871" d="M741.053 605.35L741.03 564.043C741.058 561.839 740.502 556.583 741.228 554.648C741.443 554.075 741.95 553.66 742.31 553.166C743.172 560.767 742.699 568.848 742.719 576.519C742.745 585.909 743.138 595.511 742.551 604.872L742.438 605.244L741.053 605.35Z"/>
	<path fill="#CF8F4C" d="M541.463 524.021L581.351 524.091L695.874 524.144L716.553 524.166L719.484 524.155L742.559 524.39L884.973 524.307L901.522 524.198L901.53 532.642L884.991 532.794L742.916 532.927L742.64 532.811L716.608 532.869L695.866 532.767L601.624 533.004L563.247 532.65C556.163 532.636 548.344 531.982 541.346 532.901L540.896 532.904C538.853 532.318 536.066 532.644 533.923 532.643L519.679 532.662L519.605 523.958L541.463 524.021Z"/>
	<path fill="#58788D" d="M541.346 532.901C548.344 531.982 556.163 532.636 563.247 532.65L601.624 533.004L695.866 532.767L716.608 532.869L716.526 614.038L695.788 614.029L590.09 613.985L565.618 613.993L540.829 614.029L540.896 532.904L541.346 532.901Z"/>
	<path fill="#67C2D8" d="M590.509 554.274C595.189 555.787 599.379 558.164 601.679 562.738C605.164 569.666 606.756 588.518 604.352 595.907C603.175 599.528 600.827 601.853 597.356 603.426C595.168 604.417 592.841 605.008 590.516 605.576L590.433 568.173L590.509 554.274Z"/>
	<path fill="#0A3643" d="M695.866 532.767L716.608 532.869L716.526 614.038L695.788 614.029L695.866 532.767Z"/>
	<path fill="#256A7A" d="M541.346 532.901C548.344 531.982 556.163 532.636 563.247 532.65L601.624 533.004L590.208 534.21C590.33 540.64 589.508 547.995 590.509 554.274L590.433 568.173C589.799 574.134 590.187 580.477 590.166 586.481L590.09 613.985L565.618 613.993L540.829 614.029L540.896 532.904L541.346 532.901Z"/>
	<path fill="#3DA9C0" d="M587.753 554.426C588.286 554.624 588.535 554.878 588.956 555.25L588.579 605.642C584.702 604.919 582.19 604.325 578.972 601.921C577.949 600.718 576.931 599.502 576.217 598.082C572.21 590.108 573.325 578.029 576.151 569.779C578.448 563.074 581.115 557.686 587.753 554.426Z"/>
	<path fill="#195871" d="M540.896 532.904L541.346 532.901L541.925 532.939L559.665 533.11C561.111 533.111 564.554 532.716 565.704 533.417L565.618 613.993L540.829 614.029L540.896 532.904Z"/>
	<path fill="#256A7A" d="M151.837 279.583C149.643 269.073 149.24 258.52 152.74 248.219C156.536 237.046 165.461 227.311 176.058 222.188C187.507 216.653 199.987 216.796 211.805 220.929C211.694 208.861 213.473 197.443 219.716 186.929C227.968 173.033 240.822 164.38 256.343 160.53C273.129 156.367 289.078 160.557 303.569 169.174C312.538 152.198 328.114 136.166 345.473 127.69C361.573 119.829 379.671 115.852 397.57 118.149C405.796 119.205 413.293 121.531 421.09 124.23C425.821 115.501 430.939 107.857 438.071 100.853C455.077 84.1512 478.811 75.1558 502.558 75.5103C519.037 75.7563 536.77 81.6789 550.281 90.9915C557.598 96.0346 563.771 101.954 569.91 108.328C547.046 122.294 533.331 143.155 525.699 168.615C512.513 158.661 499.943 153.002 483.509 150.867C463.905 148.321 441.428 154.967 425.839 167.037L418.837 173.355C415.627 176.72 412.323 180.126 409.6 183.907C399.56 197.85 395.317 214.129 395.452 231.175C388.31 224.009 381.335 218.539 370.748 218.46C362.057 218.395 353.597 221.118 347.366 227.384C343.573 231.199 341.028 235.345 339.441 240.5L339.186 241.304C338.09 244.919 338.237 248.223 338.75 251.917L338.944 253.47L279.22 253.472L258.372 253.631L257.685 279.42L151.837 279.583Z"/>
	<path fill="#0A3643" d="M279.22 253.472C277.137 249.706 275.994 246.125 275.688 241.815C275.257 235.757 277.708 229.702 281.75 225.259C286.109 220.468 292.101 217.542 298.562 217.141C305.628 216.703 310.845 220.031 315.913 224.476L317.183 214.938C319.762 199.226 327.879 185.148 341.008 175.86C349.976 169.516 359.243 165.324 370.147 163.558C387.004 160.829 404.735 163.275 418.837 173.355C415.627 176.72 412.323 180.126 409.6 183.907C399.56 197.85 395.317 214.129 395.452 231.175C388.31 224.009 381.335 218.539 370.748 218.46C362.057 218.395 353.597 221.118 347.366 227.384C343.573 231.199 341.028 235.345 339.441 240.5L339.186 241.304C338.09 244.919 338.237 248.223 338.75 251.917L338.944 253.47L279.22 253.472Z"/>
	<path fill="#CAC3BB" d="M394.485 528.078C396.647 528.073 399.263 530.166 401.082 531.25L416.507 540.349L417.14 540.692L540.89 614.555C545.578 617.547 551.834 621.707 557.198 623.071C558.194 623.286 559.98 623.375 560.635 624.12C561.421 625.014 562.03 625.725 563.12 626.265C571.722 631.657 580.288 638.929 589.446 643.202L600.946 649.538C602.955 650.595 604.933 651.87 607.206 652.185C609.919 653.541 616.654 657.593 617.709 660.42C617.912 660.963 618.019 661.529 618.114 662.097L618.064 671.957C618.079 673.601 618.331 675.86 617.835 677.433C617.567 678.283 616.722 679.143 616.082 679.728C614.779 680.921 613.274 681.627 611.484 681.506C609.191 681.35 606.996 680.084 604.997 679.038C600.038 676.444 595.429 673.145 590.43 670.66L571.508 659.686L571.491 690.367L392.672 582.847L344.898 611.024L293.443 642.032L270.5 655.539C267.966 657.113 264.563 658.776 262.566 660.951L262.593 785.118L262.574 822.387C262.573 828.262 262.025 834.751 262.77 840.544L217.927 840.459C217.19 842.394 217.447 844.696 217.433 846.756L217.379 860.402L216.619 860.757C214.686 861.681 213.024 863.046 211.059 863.92C203.671 867.204 195.666 867.076 187.747 867.113C184.85 867.141 181.718 866.954 178.86 867.348L178.551 867.344L178.522 867.114L173.099 867.134L172.959 867.4C166.191 866.49 159.131 867.657 152.328 866.646L151.5 866.513C147.086 865.854 143.7 864.306 139.886 862.077C140.955 859.229 143.278 856.943 144.25 853.898C147.247 844.514 145.879 833.011 143.964 823.5C143.132 819.371 141.892 815.262 141.365 811.087L141.299 810.536C143.032 807.701 144.215 804.342 145.677 801.336L159.136 771.838C161.893 765.504 165.844 758.538 167.337 751.876L167.072 748.734L166.953 723.909L166.641 682.839L166.556 656.543C166.548 650.776 166.137 644.718 167.237 639.032C169.243 628.661 173.628 619.358 180.777 611.555C192.158 599.134 206.813 592.572 223.547 591.918L223.559 563.243L258.548 563.238L287.455 563.043C292.414 563.035 297.926 562.564 302.816 563.155L303.442 562.492L303.452 576.667C303.457 578.364 303.109 580.498 304.086 581.931L394.485 528.078Z"/>
	<path fill="#195871" d="M394.485 528.078C396.647 528.073 399.263 530.166 401.082 531.25L416.507 540.349L417.14 540.692L540.89 614.555C545.578 617.547 551.834 621.707 557.198 623.071C558.194 623.286 559.98 623.375 560.635 624.12C561.421 625.014 562.03 625.725 563.12 626.265C571.722 631.657 580.288 638.929 589.446 643.202L600.946 649.538C602.955 650.595 604.933 651.87 607.206 652.185C609.919 653.541 616.654 657.593 617.709 660.42C617.912 660.963 618.019 661.529 618.114 662.097L618.064 671.957C618.079 673.601 618.331 675.86 617.835 677.433C617.567 678.283 616.722 679.143 616.082 679.728C614.779 680.921 613.274 681.627 611.484 681.506C609.191 681.35 606.996 680.084 604.997 679.038C600.038 676.444 595.429 673.145 590.43 670.66L571.508 659.686L394.473 555.441C394.036 552.214 394.306 548.748 394.324 545.493L394.485 528.078Z"/>
	<path fill="#0E364C" d="M394.485 528.078L394.324 545.493C394.306 548.748 394.036 552.214 394.473 555.441L217.962 660.845L205.153 668.428C201.502 670.818 197.696 673.897 193.628 675.52C192.279 676.058 190.827 676.068 189.397 675.965C186.285 675.739 183.373 673.9 181.425 671.512C179.078 668.636 177.925 664.429 178.556 660.75C179.029 657.997 180.761 655.827 182.839 654.055C188.058 649.608 195.205 646.342 201.13 642.826L238.016 621.253C244.773 617.323 251.79 613.594 258.285 609.24L258.602 591.857L223.547 591.918L223.559 563.243L258.548 563.238L287.455 563.043C292.414 563.035 297.926 562.564 302.816 563.155L303.442 562.492L303.452 576.667C303.457 578.364 303.109 580.498 304.086 581.931L394.485 528.078Z"/>
	<path fill="#67C2D8" d="M259.124 591.831C267.992 591.856 277.759 591.03 286.51 592.16L258.285 609.24L258.602 591.857L259.124 591.831Z"/>
	<path fill="#AAD6DA" d="M302.816 563.155L303.442 562.492L303.452 576.667C303.457 578.364 303.109 580.498 304.086 581.931L286.51 592.16C277.759 591.03 267.992 591.856 259.124 591.831L258.602 591.857L223.547 591.918L223.559 563.243L258.548 563.238L287.455 563.043C292.414 563.035 297.926 562.564 302.816 563.155Z"/>
	<path fill="#67C2D8" d="M223.559 563.243L258.548 563.238L287.455 563.043C292.414 563.035 297.926 562.564 302.816 563.155L302.139 563.324C298.512 564.16 293.238 563.521 289.451 563.525L258.586 563.524C258.625 567.903 257.987 589.729 259.124 591.831L258.602 591.857L223.547 591.918L223.559 563.243Z"/>
	<path fill="#3DA9C0" d="M223.547 591.918L258.602 591.857L258.285 609.24C251.79 613.594 244.773 617.323 238.016 621.253L201.13 642.826C195.205 646.342 188.058 649.608 182.839 654.055C180.761 655.827 179.029 657.997 178.556 660.75C177.925 664.429 179.078 668.636 181.425 671.512C183.373 673.9 186.285 675.739 189.397 675.965C190.827 676.068 192.279 676.058 193.628 675.52C197.696 673.897 201.502 670.818 205.153 668.428L217.962 660.845L217.974 829.197L217.927 840.459C217.19 842.394 217.447 844.696 217.433 846.756L217.379 860.402L216.619 860.757C214.686 861.681 213.024 863.046 211.059 863.92C203.671 867.204 195.666 867.076 187.747 867.113C184.85 867.141 181.718 866.954 178.86 867.348L178.551 867.344L178.522 867.114L173.099 867.134L172.959 867.4C166.191 866.49 159.131 867.657 152.328 866.646L151.5 866.513C147.086 865.854 143.7 864.306 139.886 862.077C140.955 859.229 143.278 856.943 144.25 853.898C147.247 844.514 145.879 833.011 143.964 823.5C143.132 819.371 141.892 815.262 141.365 811.087L141.299 810.536C143.032 807.701 144.215 804.342 145.677 801.336L159.136 771.838C161.893 765.504 165.844 758.538 167.337 751.876L167.072 748.734L166.953 723.909L166.641 682.839L166.556 656.543C166.548 650.776 166.137 644.718 167.237 639.032C169.243 628.661 173.628 619.358 180.777 611.555C192.158 599.134 206.813 592.572 223.547 591.918Z"/>
	<path fill="#4C9053" d="M167.337 751.876L167.819 751.193C169.065 749.345 169.75 747.024 170.657 744.992L176.201 733.194L189.246 762.845L206.78 802.772L213.455 819.389C214.706 822.582 215.768 826.556 217.974 829.197L217.927 840.459C217.19 842.394 217.447 844.696 217.433 846.756L217.379 860.402L216.619 860.757C214.686 861.681 213.024 863.046 211.059 863.92C203.671 867.204 195.666 867.076 187.747 867.113C184.85 867.141 181.718 866.954 178.86 867.348L178.551 867.344L178.522 867.114L173.099 867.134L172.959 867.4C166.191 866.49 159.131 867.657 152.328 866.646L151.5 866.513C147.086 865.854 143.7 864.306 139.886 862.077C140.955 859.229 143.278 856.943 144.25 853.898C147.247 844.514 145.879 833.011 143.964 823.5C143.132 819.371 141.892 815.262 141.365 811.087L141.299 810.536C143.032 807.701 144.215 804.342 145.677 801.336L159.136 771.838C161.893 765.504 165.844 758.538 167.337 751.876Z"/>
	<path fill="#5A500B" d="M190.726 791.239C192.07 791.544 192.921 791.556 193.948 792.5C193.879 794.074 193.088 795.221 192.283 796.521C188.156 800.741 183.769 806.315 178.984 809.695C178.95 805.278 178.594 800.585 179.376 796.229L179.418 803.457C183.367 799.624 187.453 795.671 190.726 791.239Z"/>
	<path fill="#531C02" d="M173.099 867.134L173.109 855.958C173.109 855.086 173.401 852.721 173.113 851.978C172.329 849.95 168.18 847.127 166.5 845.52L150.401 829.844C151.35 828.454 152.91 827.382 154.208 826.311L173.353 844.575L173.259 803.989L162.395 794.13C160.858 792.606 159.75 791.575 159.75 789.379C160.774 788.424 160.876 788.326 162.25 788.104C166.535 790.457 170.246 794.788 173.515 798.393C173.527 795.53 172.671 787.362 174.25 785.403C175.753 785.396 176.848 785.676 178.25 786.135C178.635 786.59 179.19 786.944 179.406 787.5C180.037 789.127 179.383 794.247 179.376 796.229C178.594 800.585 178.95 805.278 178.984 809.695L178.55 845.923L188.492 836.942C190.478 835.118 192.529 832.918 195 831.781C196.458 832.267 197.158 833.354 198.088 834.5L198.063 835.5L178.61 852.328L178.522 867.114L173.099 867.134Z"/>
	<path fill="#4C9053" d="M192.283 796.521L195.778 811.186C197.922 811.86 199.974 812.595 201.189 814.633C202.114 816.185 202.112 818.252 201.578 819.938C201.082 821.504 199.916 822.493 198.58 823.38L198.711 823.801C199.552 826.402 201.189 828.539 202.126 831.113C203.733 835.531 203.339 843.108 202.634 847.75L202.543 848.406C201.602 854.857 198.07 858.788 192.957 862.49C190.742 864.094 189.183 864.694 187.747 867.113C184.85 867.141 181.718 866.954 178.86 867.348L178.551 867.344L178.522 867.114L178.61 852.328L198.063 835.5L198.088 834.5C197.158 833.354 196.458 832.267 195 831.781C192.529 832.918 190.478 835.118 188.492 836.942L178.55 845.923L178.984 809.695C183.769 806.315 188.156 800.741 192.283 796.521Z"/>
	<path fill="#FEFEFE" d="M195.778 811.186C197.922 811.86 199.974 812.595 201.189 814.633C202.114 816.185 202.112 818.252 201.578 819.938C201.082 821.504 199.916 822.493 198.58 823.38C197.2 823.484 195.402 823.729 194.056 823.354C192.27 822.856 190.603 821.14 189.925 819.449C189.346 818.008 189.491 816.753 190.149 815.385C191.276 813.04 193.492 812.091 195.778 811.186Z"/>
	<path fill="#37733E" d="M190.726 791.239C191.307 785.776 190.803 779.946 190.125 774.5C189.631 770.523 188.59 766.882 189.246 762.845L206.78 802.772L213.455 819.389C214.706 822.582 215.768 826.556 217.974 829.197L217.927 840.459C217.19 842.394 217.447 844.696 217.433 846.756L217.379 860.402L216.619 860.757C214.686 861.681 213.024 863.046 211.059 863.92C203.671 867.204 195.666 867.076 187.747 867.113C189.183 864.694 190.742 864.094 192.957 862.49C198.07 858.788 201.602 854.857 202.543 848.406L202.634 847.75C203.339 843.108 203.733 835.531 202.126 831.113C201.189 828.539 199.552 826.402 198.711 823.801L198.58 823.38C199.916 822.493 201.082 821.504 201.578 819.938C202.112 818.252 202.114 816.185 201.189 814.633C199.974 812.595 197.922 811.86 195.778 811.186L192.283 796.521C193.088 795.221 193.879 794.074 193.948 792.5C192.921 791.556 192.07 791.544 190.726 791.239Z"/>
	<path fill="#58788D" d="M742.467 613.995L884.833 613.978L884.928 623.371L884.97 643.086L885.456 643.155C890.026 643.743 894.849 643.448 899.456 643.439L899.367 652.139C895.063 652.152 889.136 651.397 885.04 652.404L884.678 788.458C884.57 794.09 884.342 799.679 885.116 805.276C878.556 804.182 872.712 805.056 866.344 806.806L866.069 838.697L866.034 848.695C867.33 847.343 868.363 845.669 870.25 845.428C871.308 846.193 871.963 846.533 872.545 847.75C871.889 849.313 870.431 850.744 869.342 852.052C868.57 852.883 865.643 855.44 865.385 856.313C864.491 859.341 865.563 864.157 865.068 867.488L860.038 867.486L859.587 867.575L843.271 867.528L816.871 867.506L816.456 867.55L811.904 867.533L811.874 867.954L811.493 867.816C807.733 867.151 803.144 867.656 799.292 867.659C797.659 867.976 796.202 868.205 794.536 868.165L794.534 871.786L709.347 871.496L709.464 868.025L707.04 867.495L706.507 867.6L706.481 906.75C705.29 907.769 703.786 907.36 702.25 907.348C701.277 904.903 701.792 900.94 701.782 898.306C701.752 890.031 702.181 881.492 701.661 873.251L702.139 818.117L698.925 817.935L699.1 817.043C700.003 810.994 699.357 803.877 699.361 797.723L699.411 756.96C699.439 755.047 698.977 751.535 700 750.005L703.987 749.568C701.679 745.149 698.739 741.172 695.812 737.149L695.909 704.882C696.913 702.044 696.225 696.853 696.224 693.669L696.07 662.814L695.797 652.02L607.206 652.185C604.933 651.87 602.955 650.595 600.946 649.538L589.446 643.202C580.288 638.929 571.722 631.657 563.12 626.265C562.03 625.725 561.421 625.014 560.635 624.12C559.98 623.375 558.194 623.286 557.198 623.071C551.834 621.707 545.578 617.547 540.89 614.555L540.829 614.029L565.618 613.993L590.09 613.985L695.788 614.029L716.526 614.038L742.467 613.995Z"/>
	<path fill="#67C2D8" d="M742.525 676.836C745.586 676.639 748.367 677.852 750.646 679.873C757.155 685.643 757.692 698.584 757.981 706.75C758.153 711.625 758.816 717.832 755.266 721.558C752.107 724.873 746.879 725.85 742.459 726.067L742.525 676.836Z"/>
	<path fill="#4C9053" d="M773.459 782.352L789.77 746.242L794.872 734.428C795.856 732.095 796.964 728.975 798.753 727.143L814.766 761.693C812.983 767.002 809.934 771.453 807.039 776.203C802.173 784.185 796.996 792.127 793.216 800.699C787.236 794.178 780.529 787.683 773.459 782.352Z"/>
	<path fill="#4C9053" d="M827.367 781.787C831.031 776.752 833.554 770.238 836.158 764.602L851.816 728.467L873.351 774.433C869.852 776.347 867.33 778.954 864.592 781.808C862.28 779.518 859.789 776.501 857.076 774.753C855.705 776.255 854.615 777.699 853.591 779.458L860.954 785.178L860.979 809.4L850.537 801.97C849.222 800.941 846.617 798.033 845.25 797.512C845.067 797.442 844.858 797.536 844.667 797.579C843.561 797.827 842.835 798.542 841.993 799.25C841.518 800.496 841.477 800.408 842 801.626L840.523 803.172L827.367 781.787Z"/>
	<path fill="#256A7A" d="M716.553 662.631C718.94 662.079 722.112 662.451 724.586 662.454L741.809 662.497L807.261 662.577L806.74 662.633L742.516 662.74C742.521 667.178 742.965 672.086 742.39 676.464L742.525 676.836L742.459 726.067L742.222 774.561C729.661 778.761 723.399 783.876 716.345 795.023C715.531 791.701 715.937 787.582 715.927 784.156L715.955 761.948L716.553 662.631Z"/>
	<path fill="#3DA9C0" d="M740.11 676.613L742.39 676.464L742.525 676.836L742.459 726.067L740.41 725.974C736.2 725.284 731.585 724.741 728.781 721.143C725.509 716.945 726.081 708.207 726.779 703.121C727.483 697.984 728.275 693.17 730.007 688.25C732.084 682.351 734.523 679.282 740.11 676.613Z"/>
	<path fill="#195871" d="M740.11 676.613L742.39 676.464L742.525 676.836L742.459 726.067L740.41 725.974L740.11 676.613Z"/>
	<path fill="#0A3643" d="M695.797 652.02L741.849 652.043L741.809 662.497L724.586 662.454C722.112 662.451 718.94 662.079 716.553 662.631L715.955 761.948L715.927 784.156C715.937 787.582 715.531 791.701 716.345 795.023C715.625 797.114 714.619 801.547 713.164 803.031L710.69 803.669C709.885 810.554 710.433 818.044 710.412 824.992L710.123 867.895L709.464 868.025L707.04 867.495L706.507 867.6L706.481 906.75C705.29 907.769 703.786 907.36 702.25 907.348C701.277 904.903 701.792 900.94 701.782 898.306C701.752 890.031 702.181 881.492 701.661 873.251L702.139 818.117L698.925 817.935L699.1 817.043C700.003 810.994 699.357 803.877 699.361 797.723L699.411 756.96C699.439 755.047 698.977 751.535 700 750.005L703.987 749.568C701.679 745.149 698.739 741.172 695.812 737.149L695.909 704.882C696.913 702.044 696.225 696.853 696.224 693.669L696.07 662.814L695.797 652.02Z"/>
	<path fill="#195871" d="M699.411 756.96C699.439 755.047 698.977 751.535 700 750.005L703.987 749.568C704.522 751.368 705.417 758.74 704.497 760.375L703.682 761.431L703.123 761.25C703.08 759.249 703.072 757.27 702.75 755.289L701.558 756.559L699.411 756.96Z"/>
	<path fill="#FEFEFE" d="M701.558 756.559L702.75 755.289C703.072 757.27 703.08 759.249 703.123 761.25L703.682 761.431L706.25 762.585C706.762 766.401 706.481 770.513 706.482 774.371L706.48 796.087L706.507 867.6L706.481 906.75C705.29 907.769 703.786 907.36 702.25 907.348C701.277 904.903 701.792 900.94 701.782 898.306C701.752 890.031 702.181 881.492 701.661 873.251L702.139 818.117L698.925 817.935L699.1 817.043C700.003 810.994 699.357 803.877 699.361 797.723L699.411 756.96L701.558 756.559Z"/>
	<path fill="#256A7A" d="M701.558 756.559L701.974 800.663C701.976 806.304 701.439 812.54 702.139 818.117L698.925 817.935L699.1 817.043C700.003 810.994 699.357 803.877 699.361 797.723L699.411 756.96L701.558 756.559Z"/>
	<path fill="#531C02" d="M814.766 761.693C816.633 764.746 819.095 768.25 819.25 771.898C819.888 771.595 820.412 771.303 821 770.925C821.551 771.641 821.816 772.234 822.127 773.061C823.262 776.072 825.4 779.236 827.367 781.787L840.523 803.172L842 801.626C841.477 800.408 841.518 800.496 841.993 799.25C842.835 798.542 843.561 797.827 844.667 797.579C844.858 797.536 845.067 797.442 845.25 797.512C846.617 798.033 849.222 800.941 850.537 801.97L860.979 809.4L860.954 785.178L853.591 779.458C854.615 777.699 855.705 776.255 857.076 774.753C859.789 776.501 862.28 779.518 864.592 781.808C867.33 778.954 869.852 776.347 873.351 774.433L876.438 779.008C880.064 781.194 881.159 785.956 884.678 788.458C884.57 794.09 884.342 799.679 885.116 805.276C878.556 804.182 872.712 805.056 866.344 806.806L866.069 838.697L866.034 848.695C867.33 847.343 868.363 845.669 870.25 845.428C871.308 846.193 871.963 846.533 872.545 847.75C871.889 849.313 870.431 850.744 869.342 852.052C868.57 852.883 865.643 855.44 865.385 856.313C864.491 859.341 865.563 864.157 865.068 867.488L860.038 867.486L859.587 867.575L843.271 867.528L816.871 867.506L816.456 867.55L811.904 867.533L811.874 867.954L811.493 867.816C807.733 867.151 803.144 867.656 799.292 867.659C797.794 867.671 796.064 867.905 794.685 867.25L794.595 836.369L794.583 827.671C795.345 821.935 794.844 815.524 794.886 809.713C794.898 807.986 795.347 804.878 794.93 803.279C794.755 802.608 793.638 801.335 793.216 800.699C796.996 792.127 802.173 784.185 807.039 776.203C809.934 771.453 812.983 767.002 814.766 761.693Z"/>
	<path fill="#4C9053" d="M806.487 805.964C808.401 807.213 810.262 808.42 811.998 809.917L812.004 841.952L802.02 835.479C802 827.721 800.883 812.006 806.487 805.964Z"/>
	<path fill="#37733E" d="M838.72 842.014L860.424 856.6L860.038 867.486L859.587 867.575L843.271 867.528C839.86 859.086 839.976 850.835 838.72 842.014Z"/>
	<path fill="#4C9053" d="M876.438 779.008C880.064 781.194 881.159 785.956 884.678 788.458C884.57 794.09 884.342 799.679 885.116 805.276C878.556 804.182 872.712 805.056 866.344 806.806L866.583 787.263C869.205 784.19 872.965 782.525 875.777 779.69L876.438 779.008Z"/>
	<path fill="#4C9053" d="M794.595 836.369L794.858 836.453L812.021 848.7L811.904 867.533L811.874 867.954L811.493 867.816C807.733 867.151 803.144 867.656 799.292 867.659C797.794 867.671 796.064 867.905 794.685 867.25L794.595 836.369Z"/>
	<path fill="#4C9053" d="M843.3 839.447C845.352 835.084 848.624 828.42 848.669 823.5C848.705 819.468 845.665 814.703 846.477 810.75C847.933 809.901 849.035 809.561 850.692 809.282L860.614 816.258L860.371 850.106L843.3 839.447Z"/>
	<path fill="#4C9053" d="M816.871 867.506L816.93 847.709L833.372 836.491L838.72 842.014C839.976 850.835 839.86 859.086 843.271 867.528L816.871 867.506Z"/>
	<path fill="#325D36" d="M814.766 761.693C816.633 764.746 819.095 768.25 819.25 771.898C819.888 771.595 820.412 771.303 821 770.925C821.551 771.641 821.816 772.234 822.127 773.061C823.262 776.072 825.4 779.236 827.367 781.787L840.523 803.172L842 801.626L847.778 806.902L850.692 809.282C849.035 809.561 847.933 809.901 846.477 810.75C845.665 814.703 848.705 819.468 848.669 823.5C848.624 828.42 845.352 835.084 843.3 839.447C841.352 837.56 838.69 835.778 837.23 833.5C837.535 833.093 837.694 832.937 837.87 832.405C838.296 831.119 838.025 830.241 837.291 829.211C835.686 829.075 834.931 829.616 833.631 830.425L822.859 837.34C820.98 838.475 819.059 839.862 816.941 840.46L816.687 839.382C816.29 836.847 816.516 833.896 816.51 831.309L816.556 816.901C816.574 815.471 816.377 811.425 817.059 810.216C817.399 809.614 818.868 808.63 819.476 808.092C821.383 806.405 823.301 804.813 824.823 802.75L824.442 801.75C823.942 801.473 823.333 801.08 822.75 800.984C820.007 800.532 816.457 803.888 814.189 805.398C812.545 803.702 810.817 801.551 808.609 800.61C807.443 800.112 807.367 800.057 806.25 800.517C805.684 802.202 805.691 803.663 805.701 805.429L806.487 805.964C800.883 812.006 802 827.721 802.02 835.479C800.56 834.718 796.376 831.849 794.926 832.25L794.858 836.453L794.595 836.369L794.583 827.671C795.345 821.935 794.844 815.524 794.886 809.713C794.898 807.986 795.347 804.878 794.93 803.279C794.755 802.608 793.638 801.335 793.216 800.699C796.996 792.127 802.173 784.185 807.039 776.203C809.934 771.453 812.983 767.002 814.766 761.693Z"/>
	<path fill="#4C9053" d="M842 801.626L847.778 806.902C847.1 808.067 846.538 809.082 845.5 809.977C843.655 808.82 841.775 805.083 840.523 803.172L842 801.626Z"/>
	<path fill="#4C9053" d="M816.941 840.46L816.916 826.47C816.914 824.684 816.579 822.383 817.382 820.785C819.625 820.893 831.331 828.792 833.631 830.425L822.859 837.34C820.98 838.475 819.059 839.862 816.941 840.46Z"/>
	<path fill="#9EA9AE" d="M742.222 774.561C754.589 773.572 763.252 774.994 773.459 782.352C780.529 787.683 787.236 794.178 793.216 800.699C793.638 801.335 794.755 802.608 794.93 803.279C795.347 804.878 794.898 807.986 794.886 809.713C794.844 815.524 795.345 821.935 794.583 827.671L794.595 836.369L794.685 867.25C796.064 867.905 797.794 867.671 799.292 867.659C797.659 867.976 796.202 868.205 794.536 868.165L794.534 871.786L709.347 871.496L709.464 868.025L710.123 867.895L710.412 824.992C710.433 818.044 709.885 810.554 710.69 803.669L713.164 803.031C714.619 801.547 715.625 797.114 716.345 795.023C723.399 783.876 729.661 778.761 742.222 774.561Z"/>
	<path fill="#195871" d="M772.499 867.747L772.564 803.75L773.75 803.606L774.294 804.842L774.537 868.024L772.499 867.747Z"/>
	<path fill="#CCE2EC" d="M751.798 868.134L751.85 867.595L751.959 803.171L771.964 803.138L771.972 868.049L751.798 868.134Z"/>
	<path fill="#CCE2EC" d="M774.294 804.842L774.75 803.471L794.468 803.094L794.583 827.671L794.595 836.369L794.685 867.25C796.064 867.905 797.794 867.671 799.292 867.659C797.659 867.976 796.202 868.205 794.536 868.165L774.537 868.024L774.294 804.842Z"/>
	<path fill="#CCE2EC" d="M713.164 803.031C718.093 803.859 723.472 803.047 728.483 803.127L730.426 803.481C734.726 802.811 739.389 803.154 743.754 803.166C745.586 803.17 747.714 802.909 749.454 803.493L749.42 824.47C749.415 828.489 749.15 832.655 749.59 836.641L749.874 813.678C749.885 811.007 749.196 805.415 750.525 803.25L751.443 803.75L751.562 848.741C751.562 854.827 750.784 862.173 751.798 868.134L771.972 868.049L772.499 867.747L774.537 868.024L794.536 868.165L794.534 871.786L709.347 871.496L709.464 868.025L710.123 867.895L710.412 824.992C710.433 818.044 709.885 810.554 710.69 803.669L713.164 803.031Z"/>
	<path fill="#195871" d="M749.59 836.641L749.874 813.678C749.885 811.007 749.196 805.415 750.525 803.25L751.443 803.75L751.562 848.741C751.562 854.827 750.784 862.173 751.798 868.134L771.972 868.049L772.499 867.747L774.537 868.024L794.536 868.165L794.534 871.786L709.347 871.496L709.464 868.025L710.123 867.895C715.993 868.545 722.475 868.032 728.414 868.048L728.483 803.127L730.426 803.481L730.505 867.845C732.538 868.389 735.143 868.103 737.275 868.104L749.576 868.103L749.59 836.641Z"/>
	<path fill="#CCE2EC" d="M713.164 803.031C718.093 803.859 723.472 803.047 728.483 803.127L728.414 868.048C722.475 868.032 715.993 868.545 710.123 867.895L710.412 824.992C710.433 818.044 709.885 810.554 710.69 803.669L713.164 803.031Z"/>
	<path fill="#CF8F4C" d="M742.467 613.995L884.833 613.978L884.928 623.371L884.97 643.086L885.456 643.155C890.026 643.743 894.849 643.448 899.456 643.439L899.367 652.139C895.063 652.152 889.136 651.397 885.04 652.404L884.606 652.447L884.584 662.857L807.261 662.577L741.809 662.497L741.849 652.043L695.797 652.02L607.206 652.185C604.933 651.87 602.955 650.595 600.946 649.538L589.446 643.202C580.288 638.929 571.722 631.657 563.12 626.265C562.03 625.725 561.421 625.014 560.635 624.12C559.98 623.375 558.194 623.286 557.198 623.071C551.834 621.707 545.578 617.547 540.89 614.555L540.829 614.029L565.618 613.993L590.09 613.985L695.788 614.029L716.526 614.038L742.467 613.995Z"/>
	<path fill="#195871" d="M557.198 623.071L567.467 622.988C566.672 624.332 566.361 625.555 564.75 626L563.12 626.265C562.03 625.725 561.421 625.014 560.635 624.12C559.98 623.375 558.194 623.286 557.198 623.071Z"/>
	<path fill="#195871" d="M567.467 622.988L695.822 622.836L695.627 625.361C686.819 625.915 677.942 625.522 669.119 625.496L622.377 625.202L600.73 625.019C597.147 624.979 593.034 625.329 589.518 624.664L589.517 642.602L589.446 643.202C580.288 638.929 571.722 631.657 563.12 626.265L564.75 626C566.361 625.555 566.672 624.332 567.467 622.988Z"/>
	<path fill="#256A7A" d="M742.595 622.568L849.95 622.893L874.616 623.015C877.463 623.027 882.03 622.472 884.67 623.432L884.25 625.584C878.851 626.365 873.036 625.952 867.568 625.925L837.226 625.707L742.119 625.42L742.032 642.642C738.127 642.623 719.843 641.744 717.632 642.833L695.95 642.857L695.805 642.536C695.219 637.003 695.649 630.952 695.627 625.361L695.822 622.836L716.63 622.782L742.595 622.568Z"/>
	<path fill="#0A3643" d="M695.822 622.836L716.63 622.782L716.672 642.544L695.805 642.536C695.219 637.003 695.649 630.952 695.627 625.361L695.822 622.836Z"/>
	<path fill="#58788D" d="M589.517 642.602L589.518 624.664C593.034 625.329 597.147 624.979 600.73 625.019L622.377 625.202L669.119 625.496C677.942 625.522 686.819 625.915 695.627 625.361C695.649 630.952 695.219 637.003 695.805 642.536L695.95 642.857L589.517 642.602Z"/>
	<path fill="#58788D" d="M884.67 623.432L884.928 623.371L884.97 643.086C878.236 642.383 871.244 642.737 864.468 642.755L832.358 642.843L717.632 642.833C719.843 641.744 738.127 642.623 742.032 642.642L742.119 625.42L837.226 625.707L867.568 625.925C873.036 625.952 878.851 626.365 884.25 625.584L884.67 623.432Z"/>
	<path fill="#CF8F4C" d="M589.517 642.602L695.95 642.857L717.632 642.833L832.358 642.843L864.468 642.755C871.244 642.737 878.236 642.383 884.97 643.086L885.456 643.155C890.026 643.743 894.849 643.448 899.456 643.439L899.367 652.139C895.063 652.152 889.136 651.397 885.04 652.404L884.606 652.447L884.584 662.857L807.261 662.577L741.809 662.497L741.849 652.043L695.797 652.02L607.206 652.185C604.933 651.87 602.955 650.595 600.946 649.538L589.446 643.202L589.517 642.602Z"/>
	<path fill="#0E364C" d="M741.849 652.043L884.606 652.447L884.584 662.857L807.261 662.577L741.809 662.497L741.849 652.043Z"/>
	<path fill="#CF8F4C" d="M678.535 817.842L698.925 817.935L702.139 818.117L701.661 873.251C702.181 881.492 701.752 890.031 701.782 898.306C701.792 900.94 701.277 904.903 702.25 907.348C703.786 907.36 705.29 907.769 706.481 906.75L706.507 867.6L707.04 867.495L709.464 868.025L709.347 871.496L794.534 871.786L794.536 868.165C796.202 868.205 797.659 867.976 799.292 867.659C803.144 867.656 807.733 867.151 811.493 867.816L811.874 867.954L811.904 867.533L816.456 867.55L816.871 867.506L843.271 867.528L859.587 867.575L860.038 867.486L865.068 867.488L865.104 867.834C866.95 867.151 869.73 867.492 871.717 867.487L887.589 867.473L902.247 867.502C904.51 867.51 907.324 867.207 909.497 867.786L909.657 867.406C911.451 867.198 912.737 867.147 914.495 867.595L914.491 867.926L914.824 867.83L914.928 907.633L939.524 907.597C943.99 907.596 948.885 907.191 953.266 908.099C956.066 908.679 958.96 910.046 961.235 911.756C965.983 915.326 969.41 920.786 969.997 926.75C970.531 932.167 968.659 937.479 965.052 941.519C961.17 945.866 955.771 947.691 950.081 947.911L899.108 947.743L802.005 947.736L462.494 947.88L203.961 947.682L114.846 947.796C101.05 947.796 86.896 948.565 73.1432 947.817C67.8709 947.531 63.2908 946.027 59.414 942.323C55.2627 938.357 53.0324 933.294 52.9702 927.556C52.9138 922.36 55.1173 917.782 58.7586 914.155C61.4024 911.522 65.1375 909.218 68.7689 908.278C73.1561 907.143 78.2143 907.561 82.7053 907.555L104.034 907.582L104.093 867.041L104.484 867.009L104.547 897.833C104.542 900.056 103.845 905.725 105 907.459L109.5 907.489C110.383 906.101 109.975 903.37 109.972 901.692C109.964 896.331 109.551 890.673 110.077 885.35L109.971 866.989C119.74 866.983 131.775 868.447 139.886 862.077C143.7 864.306 147.086 865.854 151.5 866.513L152.328 866.646C159.131 867.657 166.191 866.49 172.959 867.4L173.099 867.134L178.522 867.114L178.551 867.344L178.86 867.348C181.718 866.954 184.85 867.141 187.747 867.113C195.666 867.076 203.671 867.204 211.059 863.92C213.024 863.046 214.686 861.681 216.619 860.757L217.379 860.402L217.433 846.756C217.447 844.696 217.19 842.394 217.927 840.459L262.77 840.544L357.002 840.956L356.81 904.594L356.953 908.25C360.567 908.849 364.499 908.511 368.169 908.512L387.831 908.501L416.293 908.464C421.626 908.454 427.098 908.731 432.402 908.254L571.643 908.085L579.075 908.246C580.343 908.315 581.129 908.338 582.353 907.907L583.02 901.232C583.525 903.571 583.861 905.637 583.848 908.047L606.055 907.934L611.93 907.974C613.102 907.958 614.358 908.036 615.518 907.904L615.305 885.721C614.689 880.632 614.304 873.426 615.155 868.404C616.693 859.334 616.425 849.889 616.477 840.711C616.513 834.205 616.834 827.528 616.302 821.045L615.515 818.348L631.089 818.452L638.622 818.581L638.667 818.191C643.412 818.138 648.447 817.721 653.158 818.187C653.918 818.183 654.749 818.25 655.499 818.147L675.959 817.766L678.535 817.842Z"/>
	<path fill="#7B2E00" d="M707.04 867.495L709.464 868.025L709.347 871.496L709.226 905.086C709.164 905.81 708.949 906.452 708.75 907.148L707.471 907.164C706.156 904.798 707.036 872.376 707.04 867.495Z"/>
	<path fill="#7B2E00" d="M811.904 867.533L816.456 867.55L816.498 907.25C815.024 907.814 813.786 907.703 812.25 907.622C811.001 905.301 811.814 899.371 811.833 896.461L811.874 867.954L811.904 867.533Z"/>
	<path fill="#7B2E00" d="M909.657 867.406C911.451 867.198 912.737 867.147 914.495 867.595L914.491 867.926L914.438 896.731C914.44 899.203 915.162 905.545 914 907.507L910.5 907.655C908.909 905.898 909.981 894.491 909.586 891.435L909.497 867.786L909.657 867.406Z"/>
	<path fill="#7B2E00" d="M860.038 867.486L865.068 867.488L865.104 867.834L865.019 907.555C863.528 907.621 861.31 908.003 860.019 907.25L860.038 867.486Z"/>
	<path fill="#7B2E00" d="M173.099 867.134L178.522 867.114L178.551 867.344L178.508 896.943C178.517 900.171 179.264 905.362 178.174 908.211C176.414 908.325 174.691 908.583 172.984 908.03L172.959 867.4L173.099 867.134Z"/>
	<path fill="#FEFEFE" d="M799.292 867.659C803.144 867.656 807.733 867.151 811.493 867.816L811.458 907.587L794.576 907.553L794.534 871.786L794.536 868.165C796.202 868.205 797.659 867.976 799.292 867.659Z"/>
	<path fill="#FEFEFE" d="M187.747 867.113C195.666 867.076 203.671 867.204 211.059 863.92C213.024 863.046 214.686 861.681 216.619 860.757L217.379 860.402L217.375 908.066L179.013 908.096L178.86 867.348C181.718 866.954 184.85 867.141 187.747 867.113Z"/>
	<path fill="#FEFEFE" d="M843.271 867.528L859.587 867.575L859.478 907.544L817.038 907.517L816.871 867.506L843.271 867.528Z"/>
	<path fill="#FEFEFE" d="M887.589 867.473L902.247 867.502C904.51 867.51 907.324 867.207 909.497 867.786L909.586 891.435L909.466 907.598L865.019 907.555L865.104 867.834C866.95 867.151 869.73 867.492 871.717 867.487L887.589 867.473Z"/>
	<path fill="#FEFEFE" d="M139.886 862.077C143.7 864.306 147.086 865.854 151.5 866.513L152.328 866.646C159.131 867.657 166.191 866.49 172.959 867.4L172.984 908.03C166.961 906.914 159.659 907.764 153.475 907.782L110.482 907.88L110.077 885.35L109.971 866.989C119.74 866.983 131.775 868.447 139.886 862.077Z"/>
	<path fill="#9EA9AE" d="M709.347 871.496L794.534 871.786L794.576 907.553C785.086 907.485 711.739 908.247 709.503 907L709.226 905.086L709.347 871.496Z"/>
	<path fill="#0A3643" d="M217.927 840.459L262.77 840.544L262.955 908.461L232.836 908.43C227.963 908.421 222.119 909.014 217.375 908.066L217.379 860.402L217.433 846.756C217.447 844.696 217.19 842.394 217.927 840.459Z"/>
	<path fill="#195871" d="M262.77 840.544L357.002 840.956L356.81 904.594C356.747 906.049 357.081 907.36 356 908.395L262.955 908.461L262.77 840.544Z"/>
	<path fill="#138291" d="M678.535 817.842L698.925 817.935L702.139 818.117L701.661 873.251L701.624 895.47C701.637 899.11 702.091 903.418 701.443 906.98C700.413 907.287 699.51 907.334 698.44 907.367L622.774 907.54L615.518 907.904L615.305 885.721C614.689 880.632 614.304 873.426 615.155 868.404C616.693 859.334 616.425 849.889 616.477 840.711C616.513 834.205 616.834 827.528 616.302 821.045L615.515 818.348L631.089 818.452L638.622 818.581L638.667 818.191C643.412 818.138 648.447 817.721 653.158 818.187C653.918 818.183 654.749 818.25 655.499 818.147L675.959 817.766L678.535 817.842Z"/>
	<path fill="#2F778D" d="M660.679 886.567L661.245 884.5C661.92 884.049 662.52 883.735 663.25 883.393C664.333 883.644 664.972 884.02 665.882 884.652L666.25 886.305C664.37 886.558 662.574 886.584 660.679 886.567Z"/>
	<path fill="#2F778D" d="M691.226 838.34L692.401 839C692.374 840.098 692.631 841.39 691.909 842.228C691.363 842.86 691.543 842.579 691.238 843.236C690.036 843.253 689.784 843.452 688.755 842.75L688.814 842.225C689.12 839.835 689.428 839.757 691.226 838.34Z"/>
	<path fill="#2F778D" d="M692.208 837.737C691.108 837.51 690.254 837.266 689.255 836.75C688.384 835.455 688.251 835.295 688.224 833.75C689.649 832.566 689.816 832.387 691.75 832.155L692.306 836.752L692.208 837.737Z"/>
	<path fill="#298FA7" d="M674.044 841.269L675.489 842.003L675.489 842.497C675.384 843.405 675.217 844.099 675.25 845.041L676 845.43L676.997 845.543L677.745 847C677.03 848.343 676.892 848.339 675.503 849.002C674.867 850.906 674.121 851.411 672.401 852.276C672.409 851.293 672.362 850.65 672.864 849.765L673.213 849.25L672.75 848.755C671.872 848.718 671.264 848.723 670.406 848.976L669.75 849.196L669.003 847.997C669.003 846.128 670.802 846.211 671.755 844.781L672.255 844L674.044 841.269Z"/>
	<path fill="#298FA7" d="M684.718 872.173L683.764 870.5C682.824 868.991 683.832 867.77 683.278 866.5C682.88 865.586 682.127 865.374 681.755 864.25C682.013 863.511 682.256 862.807 682.41 862.037L682.503 861.512C683.479 860.674 684.421 859.955 685.5 859.255L686.496 860.003C686.496 861.717 685.607 861.49 684.805 862.645C684.621 862.91 684.558 864.348 684.5 864.75L685.25 864.255C687.198 864.255 687.681 864 689.245 865.25L689.01 866.869L688.953 868.5C690.025 869.028 689.457 868.939 690.657 868.75C690.454 869.973 690.057 870.465 689.378 871.428L687.72 873.661C686.783 875.182 686.075 876.03 684.514 876.957C683.199 876.706 682.716 876.423 681.75 875.5C681.744 874.575 681.962 873.995 682.247 873.125C682.943 872.991 683.406 872.824 684.058 872.509L684.718 872.173Z"/>
	<path fill="#FEFEFE" d="M682.925 822.532C685.125 820.77 689.879 821.329 692.789 821.354L692.489 822.091C692.029 823.286 692.245 822.629 692.04 823.659C691.565 826.05 689.824 827.708 688.71 829.8C687.169 832.693 684.301 834.993 682.25 837.566L680.75 837.512C680.369 836.988 679.898 836.693 680.055 835.999C680.34 834.75 681.608 833.768 682.376 832.747C683.948 830.657 687.677 824.795 687.608 822.25L687.176 822.052C684.887 825.4 681.093 832.181 677.25 833.393L675.965 831.732C676.959 830.219 677.597 829.356 679.369 828.957L679.331 826.75C680.228 825.083 681.6 823.856 682.925 822.532Z"/>
	<path fill="#FEFEFE" d="M693.022 821.771L698.219 823.042L698.551 866.75C698.347 866.921 697.917 867.361 697.672 867.436L698.149 886.22L692.486 886.847C690.871 886.863 689.398 886.822 687.804 886.546C686.275 886.4 685.129 886.668 684.059 885.5L691.339 874.269C691.804 873.184 692.13 872.45 692.245 871.25L691.75 870.755L687.25 877.877C686.163 879.456 684.833 880.806 684.048 882.57C683.414 883.995 681.852 885.207 680.716 886.272L679.82 886.404C680.385 885.145 681.145 883.987 681.854 882.804C682.304 881.643 682.623 880.768 683.522 879.879C684.479 878.933 684.326 878.251 684.514 876.957C686.075 876.03 686.783 875.182 687.72 873.661L689.378 871.428C690.057 870.465 690.454 869.973 690.657 868.75C689.457 868.939 690.025 869.028 688.953 868.5L689.01 866.869L691.5 867.346C692.931 865.896 692.33 863.032 692.327 861L691.75 860.442L690.831 861.84L690 861.963L689.551 860.75L690.033 859.75L691.98 859.425C692.689 857.948 692.097 856.841 692.315 855.283C692.595 853.286 692.739 850.251 692.28 848.299C692.111 847.578 692.108 847.917 692.201 847.161C692.341 846.019 692.38 844.899 692.42 843.75L691.238 843.236C691.543 842.579 691.363 842.86 691.909 842.228C692.631 841.39 692.374 840.098 692.401 839L691.226 838.34L691.218 838.306L692.208 837.737L692.306 836.752C692.739 832.175 691.352 825.893 693.022 821.771Z"/>
	<path fill="#138291" d="M692.245 877.432L692.486 886.847C690.871 886.863 689.398 886.822 687.804 886.546L692.245 877.432Z"/>
	<path fill="#CAC3BB" d="M692.742 875.871L693.027 874.75C693.216 873.742 693.227 872.719 693.622 871.75C694.438 869.748 695.811 868.424 697.672 867.436L698.149 886.22L692.486 886.847L692.245 877.432L692.742 875.871Z"/>
	<defs>
		<linearGradient id="gradient_1" gradientUnits="userSpaceOnUse" x1="642.38043" y1="859.98285" x2="702.20532" y2="862.34705">
			<stop offset="0" stop-color="#183947"/>
			<stop offset="1" stop-color="#145D6A"/>
		</linearGradient>
	</defs>
	<path fill="url(#gradient_1)" d="M678.535 817.842L698.925 817.935L702.139 818.117L701.661 873.251L701.624 895.47C701.637 899.11 702.091 903.418 701.443 906.98C700.413 907.287 699.51 907.334 698.44 907.367L698.149 886.22L697.672 867.436C697.917 867.361 698.347 866.921 698.551 866.75L698.219 823.042L693.022 821.771L692.789 821.354C689.879 821.329 685.125 820.77 682.925 822.532C682.534 822.127 682.258 821.562 681.75 821.318C681.313 821.108 679.173 821.613 678.538 821.663C676.878 821.795 675.132 821.573 673.474 821.444L664.59 821.617L655.5 821.532C653.064 821.602 649.221 822.199 647.128 820.867C645.923 821.117 644.806 821.375 643.567 821.273L634.918 820.94L639.465 820.25L638.622 818.581L638.667 818.191C643.412 818.138 648.447 817.721 653.158 818.187C653.918 818.183 654.749 818.25 655.499 818.147L675.959 817.766L678.535 817.842Z"/>
	<path fill="#0E364C" d="M638.622 818.581L645.903 818.807L644.363 819.241L644.25 820.5L647.128 820.867C645.923 821.117 644.806 821.375 643.567 821.273L634.918 820.94L639.465 820.25L638.622 818.581Z"/>
	<path fill="#9EA9AE" d="M679.82 886.404L680.716 886.272C681.852 885.207 683.414 883.995 684.048 882.57C684.833 880.806 686.163 879.456 687.25 877.877L691.75 870.755L692.245 871.25C692.13 872.45 691.804 873.184 691.339 874.269L684.059 885.5C685.129 886.668 686.275 886.4 687.804 886.546C689.398 886.822 690.871 886.863 692.486 886.847L698.149 886.22L698.44 907.367L622.774 907.54L615.518 907.904L615.305 885.721C618.906 885.831 622.815 885.643 626.361 886.179C630.978 887.182 638.464 886.833 643.165 886.111C644.178 886.55 645.012 886.558 646.106 886.589L655.698 886.525L660.679 886.567C662.574 886.584 664.37 886.558 666.25 886.305L665.882 884.652L666.145 884.266L666.991 884.5L667.28 886.068C669.082 887.303 672.351 886.81 674.559 886.852C675.425 885.551 676.088 884.288 676.812 882.912C677.228 882.119 677.448 881.853 677.591 880.927L677.668 880.25L680 879.598L679.813 880.115C678.188 881.527 678.939 882.301 677.694 883.59C676.856 884.458 676.592 885.162 676.227 886.292C677.351 887.064 678.092 886.785 679.413 886.739L679.82 886.404Z"/>
	<path fill="#138291" d="M615.305 885.721C618.906 885.831 622.815 885.643 626.361 886.179L623.25 886.348C621.989 887.93 622.701 904.022 622.774 907.54L615.518 907.904L615.305 885.721Z"/>
	<defs>
		<linearGradient id="gradient_2" gradientUnits="userSpaceOnUse" x1="610.95264" y1="844.91455" x2="663.18817" y2="859.83972">
			<stop offset="0" stop-color="#175970"/>
			<stop offset="1" stop-color="#36777F"/>
		</linearGradient>
	</defs>
	<path fill="url(#gradient_2)" d="M631.089 818.452L638.622 818.581L639.465 820.25L634.918 820.94L643.567 821.273C644.806 821.375 645.923 821.117 647.128 820.867C649.221 822.199 653.064 821.602 655.5 821.532L664.59 821.617L673.474 821.444C675.132 821.573 676.878 821.795 678.538 821.663C679.173 821.613 681.313 821.108 681.75 821.318C682.258 821.562 682.534 822.127 682.925 822.532C681.6 823.856 680.228 825.083 679.331 826.75L679.369 828.957C677.597 829.356 676.959 830.219 675.965 831.732C675.245 832.762 674.499 832.946 674.003 834.003C673.613 834.832 673.101 834.921 672.503 835.503L671.75 836.755L671.237 837.377C670.724 838.019 670.515 838.49 670.25 839.255L669.503 839.503L669.251 840.004C668.687 840.943 667.949 841.524 667.19 842.284C666.463 843.011 666.962 842.464 666.503 843.503L665.35 845.194L665 845.755L663.755 846.75L663.755 848.25C665.181 849.188 666.306 848.077 667.255 849.5C665.556 851.621 663.499 853.785 662.134 856.12C661.702 856.86 661.226 857.275 660.586 857.826L659.676 858.651C658.57 859.803 657.759 860.633 657.003 862.002L653.255 866.5L652.721 867.159L651.755 868.5L652.75 869.745C653.41 868.92 653.469 868.593 654.5 868.245L655.503 868.497C655.847 869.828 655.678 870.472 655.255 871.75C656.244 872.407 655.71 872.177 656.857 872.446L657.468 873.622C656.588 876.05 653.875 878.549 653.875 880.875C653.281 881.578 652.56 882.293 652.061 883.061L653.75 882.846L654.674 883.75L654.382 884.75L655.698 886.525L646.106 886.589C645.012 886.558 644.178 886.55 643.165 886.111C638.464 886.833 630.978 887.182 626.361 886.179C622.815 885.643 618.906 885.831 615.305 885.721C614.689 880.632 614.304 873.426 615.155 868.404C616.693 859.334 616.425 849.889 616.477 840.711C616.513 834.205 616.834 827.528 616.302 821.045L615.515 818.348L631.089 818.452Z"/>
	<path fill="#256A7A" d="M664.59 821.617L673.474 821.444L672.582 821.954L671.008 822.503L670.75 823.566C667.099 824.433 667.766 821.881 664.59 821.617Z"/>
	<path fill="#256A7A" d="M633.159 882.205L635.25 882.274C636.123 883.379 635.842 884.378 635.86 885.75L634.116 886.022C632.728 885.955 631.255 886.021 629.949 885.5C630.08 884.566 630.236 884.048 630.75 883.255L631.038 883.997L631.75 884.245L633.159 882.205Z"/>
	<path fill="#000001" d="M631.089 818.452L638.622 818.581L639.465 820.25L634.918 820.94L616.302 821.045L615.515 818.348L631.089 818.452Z"/>
	<path fill="#256A7A" d="M635.05 865.31L634.122 863.635L632.755 862.75L632.805 861.5C633.689 860.716 633.725 860.853 634.825 860.704C635.035 860.064 635.154 859.596 635.636 859.101L636 858.761C636.863 857.712 636.066 858.142 637.5 857.773C637.99 858.987 637.964 859.23 637.777 860.537C638.481 860.862 638.638 861.298 639.08 861.918C640.208 862.944 640.995 862.371 641.745 863.5C641.567 864.33 641.288 865.033 640.95 865.811L639.633 865.91C639.792 866.553 640.001 867.134 640.231 867.753C639.81 869.094 639.362 869.651 638.545 870.749L638.038 871.516C637.453 872.354 636.93 872.717 636.15 873.345C635.007 874.266 634.589 874.997 633.003 874.997C632.844 874.185 632.614 874.014 633.058 873.289C633.53 872.519 633.279 873.002 633.503 872.125L633.755 871.25L634.003 870.003L634.375 869.625L633.5 869.237L632.755 868.5L633.039 867.036L633.498 866.867C634.271 866.502 634.57 865.98 635.05 865.31Z"/>
	<path fill="#2F778D" d="M673.474 821.444C675.132 821.573 676.878 821.795 678.538 821.663C679.173 821.613 681.313 821.108 681.75 821.318C682.258 821.562 682.534 822.127 682.925 822.532C681.6 823.856 680.228 825.083 679.331 826.75L679.369 828.957C677.597 829.356 676.959 830.219 675.965 831.732C675.245 832.762 674.499 832.946 674.003 834.003C673.613 834.832 673.101 834.921 672.503 835.503L671.75 836.755L671.237 837.377C670.724 838.019 670.515 838.49 670.25 839.255L669.503 839.503L669.251 840.004C668.687 840.943 667.949 841.524 667.19 842.284C666.463 843.011 666.962 842.464 666.503 843.503L665.35 845.194L664.25 844.755C663.534 845.616 662.945 846.269 662.512 847.312C662.043 848.442 662.522 847.599 661.755 848.75L660.799 848.675C661.42 846.185 662.586 846.512 663.54 844.74C663.711 844.422 663.646 843.043 663.674 842.608C664.201 842.357 664.616 842.075 665.093 841.741L665.245 840.5C665.877 839.737 666.602 838.918 666.997 837.997C667.415 837.026 666.986 837.475 667.626 836.846C668.4 836.087 668.978 835.647 669.481 834.639L669.745 834L670.497 833.497C670.82 832.524 670.572 832.907 671.309 832.171C672.006 831.473 672.659 830.799 673.245 830C673.948 829.042 673.442 829.406 674.402 828.823L674.997 828.49L675.745 826L675.25 825.305L674.003 825.367L673.005 824.248C673.295 822.932 673.141 823.08 672.582 821.954L673.474 821.444Z"/>
	<path fill="#2F778D" d="M641.058 884.082L639.937 884.65L639.255 884.25L639.745 883C639.237 882.468 638.881 882.176 638.25 881.755L637.5 882.209L636.755 881.75L637.255 880.25C638.008 879.796 638.479 879.478 639.015 878.76L640.755 876.5L642.255 874.5L643 873.862C643.733 873.085 643.327 871.753 643.255 870.75L644.5 869.755C645.574 869.184 645.798 868.553 647 868.255L649.25 865.255L650.255 864L651.255 862.5C652.011 861.585 652.642 860.23 653.42 859.51C654.567 858.448 655.508 857.208 656.503 856.003L657.25 855.755C657.571 854.85 657.767 854.387 658.5 853.755L659.245 854.25L659.14 854.797L658.997 855.497C658.856 856.232 658.796 856.63 658.352 857.254C657.536 858.4 656.679 859.515 656.253 860.875L657.5 860C657.829 859.644 657.982 859.159 658.25 858.755L659.676 858.651C658.57 859.803 657.759 860.633 657.003 862.002L653.255 866.5L652.721 867.159L651.755 868.5L652.75 869.745C653.41 868.92 653.469 868.593 654.5 868.245L655.503 868.497C655.847 869.828 655.678 870.472 655.255 871.75C656.244 872.407 655.71 872.177 656.857 872.446L657.468 873.622C656.588 876.05 653.875 878.549 653.875 880.875C653.281 881.578 652.56 882.293 652.061 883.061L653.75 882.846L654.674 883.75L654.382 884.75L655.698 886.525L646.106 886.589C645.012 886.558 644.178 886.55 643.165 886.111C642.568 885.193 641.941 884.718 641.058 884.082Z"/>
	<path fill="#256A7A" d="M642.417 881.787C643.973 881.756 643.733 881.601 645 882.415L645.812 882.75C645.427 883.851 645.733 883.337 644.828 884.25L645.873 885.624C646.367 884.287 646.764 883.332 647.745 882.25L650 882.245L650.75 883.745L652.061 883.061L653.75 882.846L654.674 883.75L654.382 884.75L655.698 886.525L646.106 886.589C645.012 886.558 644.178 886.55 643.165 886.111C642.568 885.193 641.941 884.718 641.058 884.082L642.417 881.787Z"/>
	<path fill="#EBE2D3" d="M262.77 840.544C262.025 834.751 262.573 828.262 262.574 822.387L262.593 785.118L262.566 660.951C264.563 658.776 267.966 657.113 270.5 655.539L293.443 642.032L344.898 611.024L392.672 582.847L571.491 690.367L571.508 659.686L590.43 670.66C595.429 673.145 600.038 676.444 604.997 679.038C606.996 680.084 609.191 681.35 611.484 681.506C613.274 681.627 614.779 680.921 616.082 679.728C616.722 679.143 617.567 678.283 617.835 677.433C618.331 675.86 618.079 673.601 618.064 671.957L618.114 662.097C618.019 661.529 617.912 660.963 617.709 660.42C616.654 657.593 609.919 653.541 607.206 652.185L695.797 652.02L696.07 662.814L696.224 693.669C696.225 696.853 696.913 702.044 695.909 704.882L695.812 737.149C698.739 741.172 701.679 745.149 703.987 749.568L700 750.005C698.977 751.535 699.439 755.047 699.411 756.96L699.361 797.723C699.357 803.877 700.003 810.994 699.1 817.043L698.925 817.935L678.535 817.842L675.959 817.766L655.499 818.147C654.749 818.25 653.918 818.183 653.158 818.187C648.447 817.721 643.412 818.138 638.667 818.191L638.622 818.581L631.089 818.452L615.515 818.348L616.302 821.045C616.834 827.528 616.513 834.205 616.477 840.711C616.425 849.889 616.693 859.334 615.155 868.404C614.304 873.426 614.689 880.632 615.305 885.721L615.518 907.904C614.358 908.036 613.102 907.958 611.93 907.974L606.055 907.934L583.848 908.047C583.861 905.637 583.525 903.571 583.02 901.232L582.353 907.907C581.129 908.338 580.343 908.315 579.075 908.246L571.643 908.085L432.402 908.254C427.098 908.731 421.626 908.454 416.293 908.464L387.831 908.501L368.169 908.512C364.499 908.511 360.567 908.849 356.953 908.25L356.81 904.594L357.002 840.956L262.77 840.544Z"/>
	<path fill="#FEFEFE" d="M515.966 789.145L520.268 788.089L520.231 790.793C521.229 791.605 520.641 791.351 521.712 791.511C522.441 791.621 522.963 791.768 523.635 792.043C521.823 792.027 519.422 792.281 517.711 791.717C516.908 791.453 516.369 789.889 515.966 789.145Z"/>
	<path fill="#195871" d="M364.825 891.459L424.043 891.489L424.02 901.062L364.803 901.072L364.825 891.459Z"/>
	<path fill="#195871" d="M364.912 870.182L423.987 870.352L423.979 883.887L364.865 883.934L364.912 870.182Z"/>
	<path fill="#195871" d="M364.934 840.989L423.996 840.984L424.001 862.678L364.956 862.958L364.934 840.989Z"/>
	<path fill="#FEFEFE" d="M429.313 728.443L428.907 728.62C427.975 728.886 427.058 728.568 426.138 728.374C425.037 725.313 425.734 719.179 427.029 716.25C428.437 713.065 430.815 710.462 434.129 709.252C439.24 707.387 446.249 708.087 451.668 708.093L476.881 708.096C492.182 708.062 507.983 707.217 523.234 708.246C525.643 708.409 528.206 708.75 530.395 709.82C533.741 711.455 536.203 714.638 537.271 718.155C538.385 721.824 538.003 725.999 538.003 729.803L537.955 747.751L537.694 792.471L523.635 792.043C522.963 791.768 522.441 791.621 521.712 791.511C520.641 791.351 521.229 791.605 520.231 790.793L520.268 788.089C522.545 786.833 524.612 785.137 525.525 782.618C527.005 778.536 526.381 773.462 526.374 769.141L526.296 747.149C526.272 740.763 526.701 734.23 526.398 727.869C526.325 726.337 525.998 724.742 525.341 723.351C524.127 720.78 521.992 718.495 519.279 717.505L518.75 717.325L516.932 716.772C513.584 716.189 509.606 716.574 506.203 716.583L485.569 716.575L454.793 716.579C450.201 716.586 445.193 716.2 440.642 716.7C438.119 716.977 436.017 717.597 433.982 719.153C430.927 721.491 429.783 724.765 429.313 728.443Z"/>
	<path fill="#256A7A" d="M571.508 659.686L590.43 670.66C589.627 673.455 590.009 676.965 590.002 679.889L589.983 697.705L589.981 723.639C589.971 728.753 589.305 734.845 590.672 739.739L590.739 739.987C591.469 738.707 592.125 737.163 593.308 736.25C597.124 740.043 599.936 746.061 602.491 750.767C604.107 750.774 605.73 750.715 607.33 750.946C606.95 753.115 606.782 755.762 605.627 757.656C606.774 766.732 606.031 776.601 606.019 785.775L605.515 785.958C602.282 787.222 600.04 789.736 597.642 792.14L588.103 802.309L578.609 793.887C576.662 792.047 574.834 789.789 572.5 788.465C571.615 789.74 571.871 791.789 571.819 793.357C571.228 791.911 571.651 789.022 571.668 787.394L571.491 690.367L571.508 659.686Z"/>
	<path fill="#37733E" d="M590.739 739.987C591.469 738.707 592.125 737.163 593.308 736.25C597.124 740.043 599.936 746.061 602.491 750.767C604.107 750.774 605.73 750.715 607.33 750.946C606.95 753.115 606.782 755.762 605.627 757.656C606.774 766.732 606.031 776.601 606.019 785.775L605.515 785.958C602.282 787.222 600.04 789.736 597.642 792.14L588.103 802.309L578.609 793.887C576.662 792.047 574.834 789.789 572.5 788.465C571.615 789.74 571.871 791.789 571.819 793.357C571.228 791.911 571.651 789.022 571.668 787.394C572.482 785.858 572.029 782.401 572.021 780.595L571.928 762.586C579.901 757.878 586.645 748.212 590.739 739.987Z"/>
	<path fill="#2F778D" d="M602.491 750.767C604.107 750.774 605.73 750.715 607.33 750.946C606.95 753.115 606.782 755.762 605.627 757.656L602.491 750.767Z"/>
	<path fill="#FEFEFE" d="M615.318 750.494C616.439 750.382 616.794 750.295 617.86 750.75L618.42 803.155L618.485 818.091L631.19 818.094L631.089 818.452L615.515 818.348L616.302 821.045C616.834 827.528 616.513 834.205 616.477 840.711C616.425 849.889 616.693 859.334 615.155 868.404C614.304 873.426 614.689 880.632 615.305 885.721L615.518 907.904C614.358 908.036 613.102 907.958 611.93 907.974L606.055 907.934L583.848 908.047C583.861 905.637 583.525 903.571 583.02 901.232C584.359 890.545 583.496 878.897 583.506 868.089L579.577 868.488L571.851 868.47L571.905 840.834L571.949 828.354L571.845 828.136C571.303 824.614 571.72 820.59 571.734 817.002L571.819 793.357C571.871 791.789 571.615 789.74 572.5 788.465C574.834 789.789 576.662 792.047 578.609 793.887L588.103 802.309L597.642 792.14C600.04 789.736 602.282 787.222 605.515 785.958L606.019 785.775C606.031 776.601 606.774 766.732 605.627 757.656C606.782 755.762 606.95 753.115 607.33 750.946L611 750.897C612.17 752.937 611.55 756.186 611.93 758.559L611.945 750.796L615.318 750.494Z"/>
	<defs>
		<linearGradient id="gradient_3" gradientUnits="userSpaceOnUse" x1="616.08728" y1="829.17377" x2="610.42615" y2="829.32587">
			<stop offset="0" stop-color="#562C06"/>
			<stop offset="1" stop-color="#321C09"/>
		</linearGradient>
	</defs>
	<path fill="url(#gradient_3)" d="M615.318 750.494C616.439 750.382 616.794 750.295 617.86 750.75L618.42 803.155L618.485 818.091L631.19 818.094L631.089 818.452L615.515 818.348L616.302 821.045C616.834 827.528 616.513 834.205 616.477 840.711C616.425 849.889 616.693 859.334 615.155 868.404C614.304 873.426 614.689 880.632 615.305 885.721L615.518 907.904C614.358 908.036 613.102 907.958 611.93 907.974L611.93 758.559L611.945 750.796L615.318 750.494Z"/>
	<path fill="#325D36" d="M615.318 750.494C616.439 750.382 616.794 750.295 617.86 750.75L618.42 803.155L618.485 818.091L631.19 818.094L631.089 818.452L615.515 818.348L615.318 750.494Z"/>
	<path fill="#4C9053" d="M601.682 857.606C602.344 855.222 603.617 853.262 604.953 851.219L605.839 851.75L606.055 907.934L583.848 908.047C583.861 905.637 583.525 903.571 583.02 901.232C584.359 890.545 583.496 878.897 583.506 868.089L586.548 868.409L586.736 867.857C588.241 867.979 589.787 868.29 591.215 867.685L591.431 865.188C595.471 862.948 598.503 861.015 601.682 857.606Z"/>
	<path fill="#325D36" d="M601.682 857.606C603.27 856.032 604.482 854.402 605.72 852.543L605.566 868.35L586.548 868.409L586.736 867.857C588.241 867.979 589.787 868.29 591.215 867.685L591.431 865.188C595.471 862.948 598.503 861.015 601.682 857.606Z"/>
	<path fill="#531C02" d="M571.819 793.357C571.871 791.789 571.615 789.74 572.5 788.465C574.834 789.789 576.662 792.047 578.609 793.887L588.103 802.309L597.642 792.14C600.04 789.736 602.282 787.222 605.515 785.958L606.019 785.775L605.975 790.101L606.013 817.688L606.026 822.412L606.023 839.701C606.008 843.48 606.429 847.662 604.953 851.219C603.617 853.262 602.344 855.222 601.682 857.606C598.503 861.015 595.471 862.948 591.431 865.188L591.215 867.685C589.787 868.29 588.241 867.979 586.736 867.857L586.548 868.409L583.506 868.089L579.577 868.488L571.851 868.47L571.905 840.834L571.949 828.354L571.845 828.136C571.303 824.614 571.72 820.59 571.734 817.002L571.819 793.357Z"/>
	<path fill="#37733E" d="M605.975 790.101L606.013 817.688C600.486 821.099 595.854 825.8 591.385 830.45L591.511 805.079C595.726 799.673 600.9 794.703 605.975 790.101Z"/>
	<path fill="#37733E" d="M571.819 793.357C576.944 797.769 582.753 802.384 587.032 807.615L586.861 834.441L572.109 822.086L571.845 828.136C571.303 824.614 571.72 820.59 571.734 817.002L571.819 793.357Z"/>
	<path fill="#37733E" d="M606.026 822.412L606.023 839.701C606.008 843.48 606.429 847.662 604.953 851.219C603.617 853.262 602.344 855.222 601.682 857.606C598.503 861.015 595.471 862.948 591.431 865.188L591.408 834.874C595.963 830.714 600.847 825.747 606.026 822.412Z"/>
	<path fill="#37733E" d="M571.949 828.354C576.952 831.099 582.945 836.671 587.016 840.756L586.736 867.857L586.548 868.409L583.506 868.089L579.577 868.488L571.851 868.47L571.905 840.834L571.949 828.354Z"/>
	<path fill="#000001" d="M279.011 716.691L327.951 716.572C336.76 716.562 346.162 715.899 354.905 716.611C356.366 716.73 358.038 717.205 359.25 718.042C361.431 719.548 363.113 722.095 363.391 724.751C364.337 733.758 363.521 743.724 363.52 752.818C363.519 761.503 364.342 771.114 363.365 779.705C363.125 781.817 362.588 783.844 361.215 785.512C359.205 787.954 356.666 788.797 353.625 789.077L302.958 789.109C294.185 789.126 285 789.693 276.286 788.996C275.284 788.916 274.561 788.767 273.763 788.115L273.346 787.75C270.575 785.527 268.927 783.41 268.276 779.859C267.676 776.59 267.979 772.926 267.971 769.596L267.953 750.088L267.97 734.753C267.975 732.073 267.743 729.144 268.148 726.5C268.4 724.848 268.912 723.362 269.911 722.008C272.268 718.814 275.206 717.34 279.011 716.691Z"/>
	<path fill="#67C2D8" d="M279.574 718.625L314.501 718.562L314.506 786.683L306.426 786.658L285.444 786.645C282.639 786.633 278.251 787.141 275.75 785.983C273.62 784.997 271.249 782.014 270.694 779.75C270.217 777.8 270.485 775.278 270.481 773.268L270.46 761.007L270.462 739.055C270.466 735.322 270.178 731.326 270.525 727.624C270.635 726.459 271.007 725.43 271.599 724.425C273.568 721.083 275.863 719.549 279.574 718.625Z"/>
	<path fill="#67C2D8" d="M316.701 718.566L343.853 718.521C347.378 718.524 353.357 717.74 356.394 719.354C358.43 720.436 360.039 722.229 360.632 724.487C361.312 727.082 361.039 730.18 361.051 732.855L361.101 747.506L361.134 767.977C361.143 771.775 361.435 775.861 361.008 779.631C360.803 781.443 359.802 783.07 358.918 784.626L358.329 785.047C357.483 785.661 356.668 786.233 355.621 786.45C351.986 787.204 347.387 786.713 343.63 786.723L316.788 786.743L316.701 718.566Z"/>
	<path fill="#000001" d="M429.313 728.443C429.783 724.765 430.927 721.491 433.982 719.153C436.017 717.597 438.119 716.977 440.642 716.7C445.193 716.2 450.201 716.586 454.793 716.579L485.569 716.575L506.203 716.583C509.606 716.574 513.584 716.189 516.932 716.772L518.75 717.325L519.279 717.505C521.992 718.495 524.127 720.78 525.341 723.351C525.998 724.742 526.325 726.337 526.398 727.869C526.701 734.23 526.272 740.763 526.296 747.149L526.374 769.141C526.381 773.462 527.005 778.536 525.525 782.618C524.612 785.137 522.545 786.833 520.268 788.089L515.966 789.145L464.284 789.121C457.178 789.131 449.173 790.049 442.182 789.171C439.154 788.79 436.095 787.897 433.886 785.654C431.868 783.606 430.259 780.612 429.744 777.775C428.957 773.442 429.481 768.144 429.47 763.709L429.313 728.443Z"/>
	<path fill="#67C2D8" d="M440.667 718.577L475.324 718.569L475.398 787.008L466.968 786.978L449.935 787.028C446.326 787.024 441.966 787.514 438.581 786.075C436.092 785.017 433.756 782.462 432.75 779.973C430.694 774.886 431.687 766.825 431.676 761.254L431.667 739.222C431.671 734.744 430.999 729.003 432.856 724.846C434.454 721.27 437.143 719.826 440.667 718.577Z"/>
	<path fill="#67C2D8" d="M477.523 718.678C484.811 718.686 515.526 717.449 519.798 720.081C522.064 721.478 523.615 723.985 524.133 726.557C524.706 729.408 524.407 732.766 524.423 735.69L524.477 751.76L524.488 769.64C524.487 772.825 524.771 776.326 524.243 779.46C523.936 781.285 522.878 782.875 521.882 784.396C520.568 785.366 519.441 786.252 517.794 786.589C513.379 787.493 508.154 787.016 503.621 787.023L477.51 787.01L477.523 718.678Z"/>
	<path fill="#58788D" d="M607.206 652.185L695.797 652.02L696.07 662.814L696.224 693.669C696.225 696.853 696.913 702.044 695.909 704.882L695.812 737.149C682.412 724.455 668.947 717.899 650.827 714.689C640.737 713.809 631.565 715.587 623.643 722.261C614.913 729.616 612.79 739.305 611.994 750.123L611.945 750.796L611.93 758.559C611.55 756.186 612.17 752.937 611 750.897L607.33 750.946C605.73 750.715 604.107 750.774 602.491 750.767C599.936 746.061 597.124 740.043 593.308 736.25C592.125 737.163 591.469 738.707 590.739 739.987L590.672 739.739C589.305 734.845 589.971 728.753 589.981 723.639L589.983 697.705L590.002 679.889C590.009 676.965 589.627 673.455 590.43 670.66C595.429 673.145 600.038 676.444 604.997 679.038C606.996 680.084 609.191 681.35 611.484 681.506C613.274 681.627 614.779 680.921 616.082 679.728C616.722 679.143 617.567 678.283 617.835 677.433C618.331 675.86 618.079 673.601 618.064 671.957L618.114 662.097C618.019 661.529 617.912 660.963 617.709 660.42C616.654 657.593 609.919 653.541 607.206 652.185Z"/>
	<path fill="#0E364C" d="M607.206 652.185L695.797 652.02L696.07 662.814L696.224 693.669C696.225 696.853 696.913 702.044 695.909 704.882C695.111 701.86 695.72 696.89 695.714 693.682L695.715 662.438L618.114 662.097C618.019 661.529 617.912 660.963 617.709 660.42C616.654 657.593 609.919 653.541 607.206 652.185Z"/>
	<path fill="#9EA9AE" d="M611.945 750.796L611.994 750.123C612.79 739.305 614.913 729.616 623.643 722.261C631.565 715.587 640.737 713.809 650.827 714.689C668.947 717.899 682.412 724.455 695.812 737.149C698.739 741.172 701.679 745.149 703.987 749.568L700 750.005C698.977 751.535 699.439 755.047 699.411 756.96L699.361 797.723C699.357 803.877 700.003 810.994 699.1 817.043L698.925 817.935L678.535 817.842L675.959 817.766L655.499 818.147C654.749 818.25 653.918 818.183 653.158 818.187C648.447 817.721 643.412 818.138 638.667 818.191L638.622 818.581L631.089 818.452L631.19 818.094L618.485 818.091L618.42 803.155L617.86 750.75C616.794 750.295 616.439 750.382 615.318 750.494L611.945 750.796Z"/>
	<path fill="#CCE2EC" d="M655.417 775.56C656.298 767.301 655.564 758.289 655.542 749.947L675.956 749.906L676.087 775.254L675.959 817.766L655.499 818.147L655.417 775.56Z"/>
	<path fill="#CCE2EC" d="M676.087 775.254C677.148 767.13 676.043 758.475 676.544 750.25L678.066 749.668L678.575 749.736C685.197 750.534 692.406 749.989 699.099 749.961L699.1 817.043L698.925 817.935L678.535 817.842L675.959 817.766L676.087 775.254Z"/>
	<path fill="#195871" d="M676.087 775.254C677.148 767.13 676.043 758.475 676.544 750.25L678.066 749.668C679.526 756.214 678.529 764.571 678.535 771.404L678.535 817.842L675.959 817.766L676.087 775.254Z"/>
	<path fill="#CCE2EC" d="M633.993 750.002L653.101 749.864L654.85 750.25C656.464 758.279 654.345 767.376 655.417 775.56L655.499 818.147C654.749 818.25 653.918 818.183 653.158 818.187C648.447 817.721 643.412 818.138 638.667 818.191L638.622 818.581L631.089 818.452L631.19 818.094C631.829 816.167 631.543 813.658 631.545 811.624L631.552 799.7L631.496 750.374L633.993 750.002Z"/>
	<path fill="#195871" d="M653.101 749.864L654.85 750.25C656.464 758.279 654.345 767.376 655.417 775.56L655.499 818.147C654.749 818.25 653.918 818.183 653.158 818.187L653.101 749.864Z"/>
	<path fill="#195871" d="M631.496 750.374L633.993 750.002L634.044 817.5C635.158 818.547 637.137 818.18 638.667 818.191L638.622 818.581L631.089 818.452L631.19 818.094C631.829 816.167 631.543 813.658 631.545 811.624L631.552 799.7L631.496 750.374Z"/>
	<path fill="#CCE2EC" d="M611.945 750.796L611.994 750.123C612.79 739.305 614.913 729.616 623.643 722.261C631.565 715.587 640.737 713.809 650.827 714.689C643.366 725.783 635.721 737.45 631.248 750.116L631.496 750.374L631.552 799.7L631.545 811.624C631.543 813.658 631.829 816.167 631.19 818.094L618.485 818.091L618.42 803.155L617.86 750.75C616.794 750.295 616.439 750.382 615.318 750.494L611.945 750.796Z"/>
	<path fill="#256A7A" d="M611.945 750.796L611.994 750.123C612.79 739.305 614.913 729.616 623.643 722.261C631.565 715.587 640.737 713.809 650.827 714.689C643.366 725.783 635.721 737.45 631.248 750.116L618.475 749.923L618.42 803.155L617.86 750.75C616.794 750.295 616.439 750.382 615.318 750.494L611.945 750.796Z"/>
	<path fill="#195871" d="M571.905 840.834L571.851 868.47L579.577 868.488L583.506 868.089C583.496 878.897 584.359 890.545 583.02 901.232L582.353 907.907C581.129 908.338 580.343 908.315 579.075 908.246L571.643 908.085L432.402 908.254L432.453 840.963L571.905 840.834Z"/>
	<path fill="#FEFEFE" d="M579.577 868.488L583.506 868.089C583.496 878.897 584.359 890.545 583.02 901.232L582.353 907.907C581.129 908.338 580.343 908.315 579.075 908.246L571.643 908.085L571.851 868.47L579.577 868.488Z"/>
	<path fill="#531C02" d="M579.577 868.488L583.506 868.089C583.496 878.897 584.359 890.545 583.02 901.232L582.353 907.907C581.129 908.338 580.343 908.315 579.075 908.246L579.577 868.488Z"/>
</svg>
